<?xml version="1.0" encoding="UTF-8" standalone="no"?>
<svg
   xmlns:dc="http://purl.org/dc/elements/1.1/"
   xmlns:cc="http://creativecommons.org/ns#"
   xmlns:rdf="http://www.w3.org/1999/02/22-rdf-syntax-ns#"
   xmlns:svg="http://www.w3.org/2000/svg"
   xmlns="http://www.w3.org/2000/svg"
   xmlns:sodipodi="http://sodipodi.sourceforge.net/DTD/sodipodi-0.dtd"
   xmlns:inkscape="http://www.inkscape.org/namespaces/inkscape"
   x="0"
   y="0"
   width="48"
   height="48"
   version="1.1"
   id="svg2"
   inkscape:version="0.91 r13725"
   sodipodi:docname="Boost.svg">
  <metadata
     id="metadata61">
    <rdf:RDF>
      <cc:Work
         rdf:about="">
        <dc:format>image/svg+xml</dc:format>
        <dc:type
           rdf:resource="http://purl.org/dc/dcmitype/StillImage" />
      </cc:Work>
    </rdf:RDF>
  </metadata>
  <sodipodi:namedview
     pagecolor="#ffffff"
     bordercolor="#666666"
     borderopacity="1"
     objecttolerance="10"
     gridtolerance="10"
     guidetolerance="10"
     inkscape:pageopacity="0"
     inkscape:pageshadow="2"
     inkscape:window-width="640"
     inkscape:window-height="480"
     id="namedview59"
     showgrid="false"
     inkscape:zoom="4.9166667"
     inkscape:cx="24"
     inkscape:cy="24"
     inkscape:window-x="0"
     inkscape:window-y="0"
     inkscape:window-maximized="0"
     inkscape:current-layer="svg2" />
  <defs
     id="defs4">
    <linearGradient
       x1="15.59156"
       y1="11.68966"
       x2="53.62165"
       y2="57.52354"
       gradientUnits="userSpaceOnUse"
       id="color-1">
      <stop
         offset="0"
         stop-color="#000000"
         stop-opacity="0.7"
         id="stop7" />
      <stop
         offset="1"
         stop-color="#000000"
         stop-opacity="0"
         id="stop9" />
    </linearGradient>
    <filter
       id="dropshadow">
      <feColorMatrix
         type="matrix"
         values="0 0 0 0 .05  0 0 0 0 .15  0 0 0 0 .1  0 0 0 .8 0"
         id="feColorMatrix12" />
      <feOffset
         dx="0"
         dy="1"
         id="feOffset14" />
      <feGaussianBlur
         stdDeviation="1"
         id="feGaussianBlur16"
         result="result1" />
      <feComposite
         in="SourceGraphic"
         id="feComposite18"
         in2="result1" />
    </filter>
  </defs>
  <g
     id="g3408">
    <g
       id="Capa_1"
       stroke-miterlimit="4"
       font-size="14"
       style="font-size:14px;font-family:'Open Sans', sans-serif;fill:#000000">
      <g
         id="g23" />
      <g
         id="g25" />
      <g
         id="g27" />
      <g
         id="g29" />
      <g
         id="g31" />
      <g
         id="g33" />
      <g
         id="g35" />
      <g
         id="g37" />
      <g
         id="g39" />
      <g
         id="g41" />
      <g
         id="g43" />
      <g
         id="g45" />
      <g
         id="g47" />
      <g
         id="g49" />
      <g
         id="g51" />
    </g>
    <path
       d="M 3,24 C 3,12.40202 12.40202,3 24,3 35.59798,3 45,12.40202 45,24 45,35.59798 35.59798,45 24,45 12.40202,45 3,35.59798 3,24 Z"
       stroke-miterlimit="10"
       id="path53"
       inkscape:connector-curvature="0"
       style="fill:#b71c1c;stroke-miterlimit:10;filter:url(#dropshadow)" />
    <path
       d="m 28.99236,44.40297 c 0,0 -10.81385,-10.81385 -10.81385,-10.81385 -0.14618,-0.14618 -0.2366,-0.34813 -0.2366,-0.57119 0,0 0,-0.83996 0,-0.83996 0,0 -2.11375,-2.11375 -2.11375,-2.11375 -0.14618,-0.14618 -0.2366,-0.34813 -0.2366,-0.57119 l 0,-10.98601 c 0,-0.44611 0.36167,-0.80779 0.80779,-0.80779 l 1.54251,0 1.61559,1.61559 10e-6,0 -1.6156,-1.6156 0,-2.71715 1.61559,1.61559 0,-10e-6 -1.61558,-1.61558 c 0,-0.44611 0.36167,-0.80779 0.80779,-0.80779 l 7.17451,0 3.9999,3.9999 c 0,0 10e-6,0 10e-6,0 l -3.99989,-3.99989 c 0.36108,-1.42614 1.65501,-2.48462 3.19181,-2.48462 0.90771,0 1.73082,0.36925 2.32699,0.96542 l 13.45257,13.45257 c -0.89011,8.93202 -7.37699,16.21627 -15.90319,18.29532 z"
       stroke-miterlimit="10"
       id="path55"
       style="fill:url(#color-1);stroke-miterlimit:10"
       inkscape:connector-curvature="0" />
    <path
       d="m 32.40845,33.01793 c 0,1.81544 -1.47697,3.29241 -3.29241,3.29241 -1.5368,0 -2.83073,-1.05848 -3.19181,-2.48462 l -7.17451,0 c -0.44612,0 -0.80779,-0.36168 -0.80779,-0.80779 l 0,-2.7171 -1.54257,0 c -0.44612,0 -0.80779,-0.36168 -0.80779,-0.80779 l 0,-10.98601 c 0,-0.44612 0.36168,-0.80779 0.80779,-0.80779 l 1.54251,0 0,-2.71715 c 0,-0.44612 0.36168,-0.80779 0.80779,-0.80779 l 7.17451,0 c 0.36108,-1.42614 1.65501,-2.48462 3.19181,-2.48462 1.81544,0 3.29241,1.47697 3.29241,3.29241 0,1.81544 -1.47697,3.29241 -3.29241,3.29241 -1.5368,0 -2.83073,-1.05848 -3.19181,-2.48462 l -6.36672,0 0,1.90936 1.68861,0 c 0.44612,0 0.80779,0.36168 0.80779,0.80779 l 0,10.98601 c 0,0.44612 -0.36168,0.80779 -0.80779,0.80779 l -1.68861,0 0,1.9093 6.36672,0 c 0.36108,-1.42614 1.65501,-2.48462 3.19181,-2.48462 1.81544,0 3.29246,1.47697 3.29246,3.29241 z m -11.97013,-4.33269 0,-9.37042 -3.23118,0 0,9.37042 z m 7.00084,-13.70317 c 0,0.9246 0.75222,1.67682 1.67682,1.67682 0.9246,0 1.67682,-0.75222 1.67682,-1.67682 0,-0.9246 -0.75222,-1.67682 -1.67682,-1.67682 -0.9246,0 -1.67682,0.75222 -1.67682,1.67682 z m 3.35364,18.03586 c 0,-0.9246 -0.75222,-1.67682 -1.67682,-1.67682 -0.9246,0 -1.67682,0.75222 -1.67682,1.67682 0,0.9246 0.75222,1.67682 1.67682,1.67682 0.9246,0 1.67682,-0.75222 1.67682,-1.67682 z"
       stroke-miterlimit="4"
       id="path57"
       inkscape:connector-curvature="0"
       style="fill:#ffffff;stroke-width:0" />
  </g>
</svg>
