<svg x="0" y="0" width="48" height="48" version="1.1" xmlns="http://www.w3.org/2000/svg" xmlns:xlink="http://www.w3.org/1999/xlink"><defs><linearGradient x1="15.59156" y1="11.68966" x2="53.62165" y2="57.52354" gradientUnits="userSpaceOnUse" id="color-1"><stop offset="0" stop-color="#000000" stop-opacity="0.7"></stop><stop offset="1" stop-color="#000000" stop-opacity="0"></stop></linearGradient><filter id="dropshadow"><feColorMatrix type="matrix" values="0 0 0 0 .05  0 0 0 0 .15  0 0 0 0 .1  0 0 0 .8 0"></feColorMatrix> <feOffset dx="0" dy="1"></feOffset> <feGaussianBlur stdDeviation="1"></feGaussianBlur> <feComposite in="SourceGraphic"></feComposite></filter></defs><g fill="none" stroke="none" stroke-width="none" stroke-linecap="butt" stroke-linejoin="miter" stroke-miterlimit="none" stroke-dasharray="" stroke-dashoffset="0" font-family="none" font-weight="normal" font-size="none" text-anchor="start" mix-blend-mode="normal"><g id="Capa_1" fill="#000000" stroke="none" stroke-width="1" stroke-miterlimit="4" font-family="&quot;Open Sans&quot;, sans-serif" font-size="14"><g></g><g></g><g></g><g></g><g></g><g></g><g></g><g></g><g></g><g></g><g></g><g></g><g></g><g></g><g></g></g><path d="M3,24c0,-11.59798 9.40202,-21 21,-21c11.59798,0 21,9.40202 21,21c0,11.59798 -9.40202,21 -21,21c-11.59798,0 -21,-9.40202 -21,-21z" fill="#b71c1c" stroke-width="1" stroke-miterlimit="10" font-family="sans-serif" font-size="12" filter="url(#dropshadow)"></path><path d="M28.99236,44.40297c0,0 -10.81385,-10.81385 -10.81385,-10.81385c-0.14618,-0.14618 -0.2366,-0.34813 -0.2366,-0.57119c0,0 0,-0.83996 0,-0.83996c0,0 -2.11375,-2.11375 -2.11375,-2.11375c-0.14618,-0.14618 -0.2366,-0.34813 -0.2366,-0.57119l0,-10.98601c0,-0.44611 0.36167,-0.80779 0.80779,-0.80779l1.54251,0l1.61559,1.61559l0.00001,0l-1.6156,-1.6156l0,-2.71715l1.61559,1.61559l0,-0.00001l-1.61558,-1.61558c0,-0.44611 0.36167,-0.80779 0.80779,-0.80779l7.17451,0l3.9999,3.9999c0,0 0.00001,0 0.00001,0l-3.99989,-3.99989c0.36108,-1.42614 1.65501,-2.48462 3.19181,-2.48462c0.90771,0 1.73082,0.36925 2.32699,0.96542l13.45257,13.45257c-0.89011,8.93202 -7.37699,16.21627 -15.90319,18.29532z" fill="url(#color-1)" stroke-width="1" stroke-miterlimit="10" font-family="sans-serif" font-size="12"></path><path d="M32.40845,33.01793c0,1.81544 -1.47697,3.29241 -3.29241,3.29241c-1.5368,0 -2.83073,-1.05848 -3.19181,-2.48462l-7.17451,0c-0.44612,0 -0.80779,-0.36168 -0.80779,-0.80779l0,-2.7171l-1.54257,0c-0.44612,0 -0.80779,-0.36168 -0.80779,-0.80779l0,-10.98601c0,-0.44612 0.36168,-0.80779 0.80779,-0.80779l1.54251,0l0,-2.71715c0,-0.44612 0.36168,-0.80779 0.80779,-0.80779l7.17451,0c0.36108,-1.42614 1.65501,-2.48462 3.19181,-2.48462c1.81544,0 3.29241,1.47697 3.29241,3.29241c0,1.81544 -1.47697,3.29241 -3.29241,3.29241c-1.5368,0 -2.83073,-1.05848 -3.19181,-2.48462l-6.36672,0l0,1.90936l1.68861,0c0.44612,0 0.80779,0.36168 0.80779,0.80779l0,10.98601c0,0.44612 -0.36168,0.80779 -0.80779,0.80779l-1.68861,0l0,1.9093l6.36672,0c0.36108,-1.42614 1.65501,-2.48462 3.19181,-2.48462c1.81544,0 3.29246,1.47697 3.29246,3.29241z M20.43832,28.68524l0,-9.37042l-3.23118,0l0,9.37042z M27.43916,14.98207c0,0.9246 0.75222,1.67682 1.67682,1.67682c0.9246,0 1.67682,-0.75222 1.67682,-1.67682c0,-0.9246 -0.75222,-1.67682 -1.67682,-1.67682c-0.9246,0 -1.67682,0.75222 -1.67682,1.67682z M30.7928,33.01793c0,-0.9246 -0.75222,-1.67682 -1.67682,-1.67682c-0.9246,0 -1.67682,0.75222 -1.67682,1.67682c0,0.9246 0.75222,1.67682 1.67682,1.67682c0.9246,0 1.67682,-0.75222 1.67682,-1.67682z" fill="#ffffff" stroke="none" stroke-width="0" stroke-miterlimit="4" font-family="&quot;Open Sans&quot;, sans-serif" font-size="14"></path></g></svg>