<?xml version="1.0" encoding="UTF-8" standalone="no"?>
<svg
   xmlns:dc="http://purl.org/dc/elements/1.1/"
   xmlns:cc="http://creativecommons.org/ns#"
   xmlns:rdf="http://www.w3.org/1999/02/22-rdf-syntax-ns#"
   xmlns:svg="http://www.w3.org/2000/svg"
   xmlns="http://www.w3.org/2000/svg"
   xmlns:sodipodi="http://sodipodi.sourceforge.net/DTD/sodipodi-0.dtd"
   xmlns:inkscape="http://www.inkscape.org/namespaces/inkscape"
   x="0"
   y="0"
   width="48"
   height="48"
   version="1.1"
   id="svg2"
   inkscape:version="0.91 r13725"
   sodipodi:docname="Celsius.svg">
  <metadata
     id="metadata63">
    <rdf:RDF>
      <cc:Work
         rdf:about="">
        <dc:format>image/svg+xml</dc:format>
        <dc:type
           rdf:resource="http://purl.org/dc/dcmitype/StillImage" />
      </cc:Work>
    </rdf:RDF>
  </metadata>
  <sodipodi:namedview
     pagecolor="#ffffff"
     bordercolor="#666666"
     borderopacity="1"
     objecttolerance="10"
     gridtolerance="10"
     guidetolerance="10"
     inkscape:pageopacity="0"
     inkscape:pageshadow="2"
     inkscape:window-width="640"
     inkscape:window-height="480"
     id="namedview61"
     showgrid="false"
     inkscape:zoom="4.9166667"
     inkscape:cx="24"
     inkscape:cy="24"
     inkscape:window-x="0"
     inkscape:window-y="0"
     inkscape:window-maximized="0"
     inkscape:current-layer="svg2" />
  <defs
     id="defs4">
    <linearGradient
       x1="12.43203"
       y1="11.68966"
       x2="56.78118"
       y2="57.52354"
       gradientUnits="userSpaceOnUse"
       id="color-1">
      <stop
         offset="0"
         stop-color="#000000"
         stop-opacity="0.7"
         id="stop7" />
      <stop
         offset="1"
         stop-color="#000000"
         stop-opacity="0"
         id="stop9" />
    </linearGradient>
    <filter
       id="dropshadow">
      <feColorMatrix
         type="matrix"
         values="0 0 0 0 .05  0 0 0 0 .15  0 0 0 0 .1  0 0 0 .8 0"
         id="feColorMatrix12" />
      <feOffset
         dx="0"
         dy="1"
         id="feOffset14" />
      <feGaussianBlur
         stdDeviation="1"
         id="feGaussianBlur16"
         result="result1" />
      <feComposite
         in="SourceGraphic"
         id="feComposite18"
         in2="result1" />
    </filter>
  </defs>
  <g
     fill="none"
     stroke="none"
     stroke-width="none"
     stroke-linecap="butt"
     stroke-linejoin="miter"
     stroke-miterlimit="none"
     stroke-dasharray=""
     stroke-dashoffset="0"
     font-family="none"
     font-weight="normal"
     font-size="none"
     text-anchor="start"
     mix-blend-mode="normal"
     id="g20">
    <g
       id="Layer_1"
       stroke-miterlimit="4"
       font-size="14"
       font-family="&quot;Open Sans&quot;, sans-serif"
       stroke-width="1"
       stroke="none"
       fill="#000000">
      <g
         id="g23" />
      <g
         id="g25" />
      <g
         id="g27" />
      <g
         id="g29" />
      <g
         id="g31" />
      <g
         id="g33" />
      <g
         id="g35" />
      <g
         id="g37" />
      <g
         id="g39" />
      <g
         id="g41" />
      <g
         id="g43" />
      <g
         id="g45" />
      <g
         id="g47" />
      <g
         id="g49" />
      <g
         id="g51" />
      <g
         id="g53" />
    </g>
    <path
       d="M3,24c0,-11.59798 9.40202,-21 21,-21c11.59798,0 21,9.40202 21,21c0,11.59798 -9.40202,21 -21,21c-11.59798,0 -21,-9.40202 -21,-21z"
       stroke-miterlimit="10"
       font-size="12"
       id="path55"
       filter="url(#dropshadow)"
       font-family="sans-serif"
       stroke-width="1"
       fill="#dd2c00" />
    <path
       d="M29.77641,44.19555l-11.14512,-11.14512c-2.01317,-2.01317 -3.25998,-4.79265 -3.25998,-7.85778c0,-2.04666 0.5559,-3.96597 1.52465,-5.61482l-3.75361,-3.75361c-0.43865,-0.43865 -0.71032,-1.04426 -0.71032,-1.71212c0,-1.3357 1.08668,-2.42244 2.42244,-2.42244c0.66787,0 1.27347,0.27168 1.71211,0.71032l3.63079,3.63079c1.79021,-1.23319 3.95807,-1.95581 6.29163,-1.95581l2.20497,2.20497c0.00001,0 0.00002,0 0.00003,0.00001c0,0 -2.20499,-2.20499 -2.20499,-2.20499c3.06517,0 5.84425,1.24684 7.85733,3.25992l10.33422,10.33422c-1.39939,7.94167 -7.26156,14.3446 -14.90415,16.52646z"
       stroke-miterlimit="10"
       font-size="12"
       id="path57"
       font-family="sans-serif"
       stroke-width="1"
       fill="url(#color-1)" />
    <path
       d="M35.56797,31.60248c-2.01553,2.84633 -5.33375,4.70786 -9.07897,4.70786c-6.1307,0 -11.11769,-4.98757 -11.11769,-11.11769c0,-6.13012 4.98699,-11.11769 11.11769,-11.11769c3.74528,0 7.06344,1.86153 9.07897,4.70786l-2.5079,0c-1.66715,-1.70869 -3.99502,-2.76933 -6.57107,-2.76933c-5.06955,0 -9.17916,4.10974 -9.17916,9.17923c0,5.06948 4.10962,9.17916 9.17916,9.17916c2.57605,0 4.90392,-1.06064 6.57107,-2.76933z M14.85446,16.53454c-1.33576,0 -2.42244,-1.08674 -2.42244,-2.42244c0,-1.3357 1.08667,-2.42244 2.42244,-2.42244c1.33576,0 2.42244,1.08674 2.42244,2.42244c0,1.3357 -1.08674,2.42244 -2.42244,2.42244z M14.85446,12.65864c-0.80147,0 -1.45346,0.65206 -1.45346,1.45346c0,0.80141 0.65199,1.45346 1.45346,1.45346c0.80147,0 1.45346,-0.65206 1.45346,-1.45346c0,-0.80141 -0.65206,-1.45346 -1.45346,-1.45346z"
       stroke-miterlimit="10"
       font-size="12"
       id="path59"
       font-family="sans-serif"
       stroke-width="0"
       fill="#ffffff" />
  </g>
</svg>
