<svg x="0" y="0" width="48" height="48" version="1.1" xmlns="http://www.w3.org/2000/svg" xmlns:xlink="http://www.w3.org/1999/xlink"><defs><linearGradient x1="16.53135" y1="11.68967" x2="52.68186" y2="57.52354" gradientUnits="userSpaceOnUse" id="color-1"><stop offset="0" stop-color="#000000" stop-opacity="0.7"></stop><stop offset="1" stop-color="#000000" stop-opacity="0"></stop></linearGradient><filter id="dropshadow"><feColorMatrix type="matrix" values="0 0 0 0 .05  0 0 0 0 .15  0 0 0 0 .1  0 0 0 .8 0"></feColorMatrix> <feOffset dx="0" dy="1"></feOffset> <feGaussianBlur stdDeviation="1"></feGaussianBlur> <feComposite in="SourceGraphic"></feComposite></filter></defs><g fill="none" stroke="none" stroke-width="none" stroke-linecap="butt" stroke-linejoin="miter" stroke-miterlimit="none" stroke-dasharray="" stroke-dashoffset="0" font-family="none" font-weight="none" font-size="none" text-anchor="start" mix-blend-mode="normal"><g fill="#000000" stroke="none" stroke-width="1" stroke-miterlimit="4" font-family="'Helvetica Neue', Helvetica, Arial-Unicode, Arial, Sans-serif" font-weight="bold" font-size="5"><text x="0" y="115">Created by Jason D. Rowley</text><text x="0" y="120">from the Noun Project</text></g><path d="M3,24c0,-11.59798 9.40202,-21 21,-21c11.59798,0 21,9.40202 21,21c0,11.59798 -9.40202,21 -21,21c-11.59798,0 -21,-9.40202 -21,-21z" fill="#388e3c" stroke-width="1" stroke-miterlimit="10" font-family="sans-serif" font-weight="normal" font-size="12" filter="url(#dropshadow)"></path><path d="M29.01005,13.42817c0,0 15.4261,15.4261 15.4261,15.4261c-1.88509,7.96609 -8.30739,14.17776 -16.38771,15.75584l-9.68169,-9.68169c-1.58559,-1.58559 -2.53386,-4.67874 -1.20444,-9.56799c0.73178,-2.68788 2.8786,-4.61482 5.1308,-5.38738l-3.4618,-3.4618l0.72439,-2.61388c3.5824,-3.21165 7.40681,-2.51674 9.45435,-0.4692z" fill="url(#color-1)" stroke-width="1" stroke-miterlimit="10" font-family="sans-serif" font-weight="normal" font-size="12"></path><path d="M18.83131,16.51125l0.72439,-2.61388c3.65314,-3.27508 7.55797,-2.48777 9.57357,-0.34633c1.38559,1.47997 1.76338,3.1807 2.10998,5.10165c0.69266,3.52703 -0.22049,9.54211 -2.23609,12.81719c-1.76338,3.14952 -5.00728,5.38534 -8.15625,4.72414c-2.6768,-0.3466 -5.63701,-3.65314 -3.6846,-10.83359c1.63754,-6.0148 10.36088,-8.21916 11.49479,-2.20436c0.81877,-4.47191 0.25195,-6.10946 -1.38559,-8.06214c-1.48052,-1.76338 -5.10193,-1.88922 -8.4402,1.41732z M27.77514,28.38383c2.33047,-6.70801 -6.61336,-7.90457 -8.03041,-2.48804c-0.85023,3.30682 -0.91315,6.77093 1.29121,7.65289c2.95994,1.0078 5.66847,-2.20436 6.7392,-5.16485z" fill="#ffffff" stroke="none" stroke-width="0" stroke-miterlimit="4" font-family="&quot;Open Sans&quot;, sans-serif" font-weight="normal" font-size="14"></path></g></svg>