<?xml version="1.0" encoding="UTF-8" standalone="no"?>
<svg
   xmlns:dc="http://purl.org/dc/elements/1.1/"
   xmlns:cc="http://creativecommons.org/ns#"
   xmlns:rdf="http://www.w3.org/1999/02/22-rdf-syntax-ns#"
   xmlns:svg="http://www.w3.org/2000/svg"
   xmlns="http://www.w3.org/2000/svg"
   xmlns:sodipodi="http://sodipodi.sourceforge.net/DTD/sodipodi-0.dtd"
   xmlns:inkscape="http://www.inkscape.org/namespaces/inkscape"
   x="0"
   y="0"
   width="48"
   height="48"
   version="1.1"
   id="svg2"
   inkscape:version="0.91 r13725"
   sodipodi:docname="Farheneit.svg">
  <metadata
     id="metadata63">
    <rdf:RDF>
      <cc:Work
         rdf:about="">
        <dc:format>image/svg+xml</dc:format>
        <dc:type
           rdf:resource="http://purl.org/dc/dcmitype/StillImage" />
      </cc:Work>
    </rdf:RDF>
  </metadata>
  <sodipodi:namedview
     pagecolor="#ffffff"
     bordercolor="#666666"
     borderopacity="1"
     objecttolerance="10"
     gridtolerance="10"
     guidetolerance="10"
     inkscape:pageopacity="0"
     inkscape:pageshadow="2"
     inkscape:window-width="640"
     inkscape:window-height="480"
     id="namedview61"
     showgrid="false"
     inkscape:zoom="4.9166667"
     inkscape:cx="24"
     inkscape:cy="24"
     inkscape:window-x="0"
     inkscape:window-y="0"
     inkscape:window-maximized="0"
     inkscape:current-layer="svg2" />
  <defs
     id="defs4">
    <linearGradient
       x1="12.79487"
       y1="11.68966"
       x2="56.41833"
       y2="57.52354"
       gradientUnits="userSpaceOnUse"
       id="color-1">
      <stop
         offset="0"
         stop-color="#000000"
         stop-opacity="0.7"
         id="stop7" />
      <stop
         offset="1"
         stop-color="#000000"
         stop-opacity="0"
         id="stop9" />
    </linearGradient>
    <filter
       id="dropshadow">
      <feColorMatrix
         type="matrix"
         values="0 0 0 0 .05  0 0 0 0 .15  0 0 0 0 .1  0 0 0 .8 0"
         id="feColorMatrix12" />
      <feOffset
         dx="0"
         dy="1"
         id="feOffset14" />
      <feGaussianBlur
         stdDeviation="1"
         id="feGaussianBlur16"
         result="result1" />
      <feComposite
         in="SourceGraphic"
         id="feComposite18"
         in2="result1" />
    </filter>
  </defs>
  <g
     fill="none"
     stroke="none"
     stroke-width="none"
     stroke-linecap="butt"
     stroke-linejoin="miter"
     stroke-miterlimit="none"
     stroke-dasharray=""
     stroke-dashoffset="0"
     font-family="none"
     font-weight="normal"
     font-size="none"
     text-anchor="start"
     mix-blend-mode="normal"
     id="g20">
    <g
       id="Layer_1"
       stroke-miterlimit="4"
       font-size="14"
       font-family="&quot;Open Sans&quot;, sans-serif"
       stroke-width="1"
       stroke="none"
       fill="#000000">
      <g
         id="g23" />
      <g
         id="g25" />
      <g
         id="g27" />
      <g
         id="g29" />
      <g
         id="g31" />
      <g
         id="g33" />
      <g
         id="g35" />
      <g
         id="g37" />
      <g
         id="g39" />
      <g
         id="g41" />
      <g
         id="g43" />
      <g
         id="g45" />
      <g
         id="g47" />
      <g
         id="g49" />
      <g
         id="g51" />
      <g
         id="g53" />
    </g>
    <path
       d="M3,24c0,-11.59798 9.40202,-21 21,-21c11.59798,0 21,9.40202 21,21c0,11.59798 -9.40202,21 -21,21c-11.59798,0 -21,-9.40202 -21,-21z"
       stroke-miterlimit="10"
       font-size="12"
       id="path55"
       filter="url(#dropshadow)"
       font-family="sans-serif"
       stroke-width="1"
       fill="#ffd600" />
    <path
       d="M28.53306,44.50948l-8.19914,-8.19914c0,0 0.00001,0 0.00001,0l0,-13.65739l-6.82874,-6.82874c-0.43865,-0.43865 -0.71032,-1.04426 -0.71032,-1.71212c0,-1.3357 1.08673,-2.42243 2.42243,-2.42243c0.66785,0 1.27345,0.27168 1.7121,0.71033l3.40453,3.40453l0,-1.72957l14.8712,0l9.79447,9.79447c0.00026,0.04349 0.0004,0.08702 0.0004,0.13058c0,10.04161 -7.04796,18.43708 -16.46694,20.50948z"
       stroke-miterlimit="10"
       font-size="12"
       id="path57"
       font-family="sans-serif"
       stroke-width="1"
       fill="url(#color-1)" />
    <path
       d="M22.27245,16.01347l0,6.48294l10.09036,0l0,1.93853l-10.09036,0l0,11.8754l-1.93853,0l0,-22.23539l14.8712,0l0,1.93853z M15.2173,16.53452c-1.33576,0 -2.42243,-1.08673 -2.42243,-2.42243c0,-1.3357 1.08673,-2.42243 2.42243,-2.42243c1.3357,0 2.42243,1.08673 2.42243,2.42243c0,1.3357 -1.08667,2.42243 -2.42243,2.42243z M15.2173,12.65863c-0.80147,0 -1.45346,0.65205 -1.45346,1.45346c0,0.8014 0.65205,1.45346 1.45346,1.45346c0.8014,0 1.45346,-0.65205 1.45346,-1.45346c0,-0.8014 -0.65199,-1.45346 -1.45346,-1.45346z"
       stroke-miterlimit="10"
       font-size="12"
       id="path59"
       font-family="sans-serif"
       stroke-width="0"
       fill="#ffffff" />
  </g>
</svg>
