<svg x="0" y="0" width="48" height="48" version="1.1" xmlns="http://www.w3.org/2000/svg" xmlns:xlink="http://www.w3.org/1999/xlink"><defs><linearGradient x1="12.79487" y1="11.68966" x2="56.41833" y2="57.52354" gradientUnits="userSpaceOnUse" id="color-1"><stop offset="0" stop-color="#000000" stop-opacity="0.7"></stop><stop offset="1" stop-color="#000000" stop-opacity="0"></stop></linearGradient><filter id="dropshadow"><feColorMatrix type="matrix" values="0 0 0 0 .05  0 0 0 0 .15  0 0 0 0 .1  0 0 0 .8 0"></feColorMatrix> <feOffset dx="0" dy="1"></feOffset> <feGaussianBlur stdDeviation="1"></feGaussianBlur> <feComposite in="SourceGraphic"></feComposite></filter></defs><g fill="none" stroke="none" stroke-width="none" stroke-linecap="butt" stroke-linejoin="miter" stroke-miterlimit="none" stroke-dasharray="" stroke-dashoffset="0" font-family="none" font-weight="normal" font-size="none" text-anchor="start" mix-blend-mode="normal"><g id="Layer_1" fill="#000000" stroke="none" stroke-width="1" stroke-miterlimit="4" font-family="&quot;Open Sans&quot;, sans-serif" font-size="14"><g></g><g></g><g></g><g></g><g></g><g></g><g></g><g></g><g></g><g></g><g></g><g></g><g></g><g></g><g></g><g></g></g><path d="M3,24c0,-11.59798 9.40202,-21 21,-21c11.59798,0 21,9.40202 21,21c0,11.59798 -9.40202,21 -21,21c-11.59798,0 -21,-9.40202 -21,-21z" fill="#ffd600" stroke-width="1" stroke-miterlimit="10" font-family="sans-serif" font-size="12" filter="url(#dropshadow)"></path><path d="M28.53306,44.50948l-8.19914,-8.19914c0,0 0.00001,0 0.00001,0l0,-13.65739l-6.82874,-6.82874c-0.43865,-0.43865 -0.71032,-1.04426 -0.71032,-1.71212c0,-1.3357 1.08673,-2.42243 2.42243,-2.42243c0.66785,0 1.27345,0.27168 1.7121,0.71033l3.40453,3.40453l0,-1.72957l14.8712,0l9.79447,9.79447c0.00026,0.04349 0.0004,0.08702 0.0004,0.13058c0,10.04161 -7.04796,18.43708 -16.46694,20.50948z" fill="url(#color-1)" stroke-width="1" stroke-miterlimit="10" font-family="sans-serif" font-size="12"></path><path d="M22.27245,16.01347l0,6.48294l10.09036,0l0,1.93853l-10.09036,0l0,11.8754l-1.93853,0l0,-22.23539l14.8712,0l0,1.93853z M15.2173,16.53452c-1.33576,0 -2.42243,-1.08673 -2.42243,-2.42243c0,-1.3357 1.08673,-2.42243 2.42243,-2.42243c1.3357,0 2.42243,1.08673 2.42243,2.42243c0,1.3357 -1.08667,2.42243 -2.42243,2.42243z M15.2173,12.65863c-0.80147,0 -1.45346,0.65205 -1.45346,1.45346c0,0.8014 0.65205,1.45346 1.45346,1.45346c0.8014,0 1.45346,-0.65205 1.45346,-1.45346c0,-0.8014 -0.65199,-1.45346 -1.45346,-1.45346z" fill="#ffffff" stroke-width="0" stroke-miterlimit="10" font-family="sans-serif" font-size="12"></path></g></svg>