<svg x="0" y="0" width="48" height="48" version="1.1" xmlns="http://www.w3.org/2000/svg" xmlns:xlink="http://www.w3.org/1999/xlink"><defs><linearGradient x1="15.45297" y1="11.68966" x2="53.76023" y2="57.52354" gradientUnits="userSpaceOnUse" id="color-1"><stop offset="0" stop-color="#000000" stop-opacity="0.7"></stop><stop offset="1" stop-color="#000000" stop-opacity="0"></stop></linearGradient><filter id="dropshadow"><feColorMatrix type="matrix" values="0 0 0 0 .05  0 0 0 0 .15  0 0 0 0 .1  0 0 0 .8 0"></feColorMatrix> <feOffset dx="0" dy="1"></feOffset> <feGaussianBlur stdDeviation="1"></feGaussianBlur> <feComposite in="SourceGraphic"></feComposite></filter></defs><g fill="none" stroke="none" stroke-width="none" stroke-linecap="butt" stroke-linejoin="miter" stroke-miterlimit="none" stroke-dasharray="" stroke-dashoffset="0" font-family="none" font-weight="normal" font-size="none" text-anchor="start" mix-blend-mode="normal"><g id="Capa_1" fill="#000000" stroke="none" stroke-width="1" stroke-miterlimit="4" font-family="&quot;Open Sans&quot;, sans-serif" font-size="14"><g><g></g></g><g></g><g></g><g></g><g></g><g></g><g></g><g></g><g></g><g></g><g></g><g></g><g></g><g></g><g></g><g></g></g><path d="M3,24c0,-11.59798 9.40202,-21 21,-21c11.59798,0 21,9.40202 21,21c0,11.59798 -9.40202,21 -21,21c-11.59798,0 -21,-9.40202 -21,-21z" fill="#ef6c00" stroke-width="1" stroke-miterlimit="10" font-family="sans-serif" font-size="12" filter="url(#dropshadow)"></path><path d="M26.57821,44.84331l-9.6939,-9.6939c0.00192,0.00192 0.00384,0.00384 0.00577,0.00576l-0.00577,-0.00577c-0.73489,-0.73489 -1.18496,-1.67222 -1.38289,-2.35731l-0.00001,-0.00001c-0.1882,-0.65885 0.18821,-1.34665 0.84706,-1.53486c0.44994,-0.12858 0.91351,0.00637 1.2221,0.31496c0,0 2.22457,2.22457 2.22457,2.22457c0.57486,-0.16965 0.88833,-0.99228 0.94022,-1.13496l1.85553,1.85553c0,0 0,0 0,-0.00001l-1.85552,-1.85552c0.25348,-1.05001 3.38795,-14.02959 3.80069,-15.39783l0.08002,-0.28244c0.50645,-1.71596 1.54908,-5.29186 4.41638,-5.29186c0.97905,0 1.70983,0.37295 2.24411,0.90723l13.60896,13.60896c-1.01378,9.71179 -8.64674,17.4548 -18.30732,18.63746z" fill="url(#color-1)" stroke-width="1" stroke-miterlimit="10" font-family="sans-serif" font-size="12"></path><path d="M29.03245,11.68966c2.5409,0 3.40954,2.51195 3.51115,3.83676c0.05054,0.68043 -0.46354,1.28138 -1.14397,1.33191c-0.68833,0.0508 -1.27427,-0.4559 -1.33218,-1.13634c0,-0.03632 -0.15241,-1.54934 -1.03552,-1.54934c-1.00657,0 -1.78097,2.64224 -2.03446,3.51115l-0.08686,0.29665c-0.3185,1.06395 -2.60618,10.48238 -3.77174,15.31096c0,0.01448 -0.00711,0.03632 -0.01448,0.05817c-0.3185,1.10028 -1.43326,2.96075 -3.53273,2.96075c-2.42535,0 -3.71383,-2.21529 -4.09024,-3.51825c-0.18821,-0.65885 0.18821,-1.34665 0.84706,-1.53486c0.65859,-0.18821 1.34639,0.18821 1.5346,0.84732c0,0.00711 0.52829,1.7228 1.70122,1.7228c0.70939,0 1.09317,-1.00631 1.15108,-1.16556c0.25348,-1.05 3.38796,-14.02959 3.80069,-15.39783l0.08002,-0.28244c0.50644,-1.71596 1.54907,-5.29186 4.41638,-5.29186z" fill="#ffffff" stroke="none" stroke-width="0" stroke-miterlimit="4" font-family="&quot;Open Sans&quot;, sans-serif" font-size="14"></path></g></svg>