<?xml version="1.0" encoding="UTF-8" standalone="no"?>
<svg
   xmlns:dc="http://purl.org/dc/elements/1.1/"
   xmlns:cc="http://creativecommons.org/ns#"
   xmlns:rdf="http://www.w3.org/1999/02/22-rdf-syntax-ns#"
   xmlns:svg="http://www.w3.org/2000/svg"
   xmlns="http://www.w3.org/2000/svg"
   xmlns:sodipodi="http://sodipodi.sourceforge.net/DTD/sodipodi-0.dtd"
   xmlns:inkscape="http://www.inkscape.org/namespaces/inkscape"
   x="0"
   y="0"
   width="48"
   height="48"
   version="1.1"
   id="svg3378"
   inkscape:version="0.91 r13725"
   sodipodi:docname="Led Orange Pressed.svg">
  <metadata
     id="metadata3410">
    <rdf:RDF>
      <cc:Work
         rdf:about="">
        <dc:format>image/svg+xml</dc:format>
        <dc:type
           rdf:resource="http://purl.org/dc/dcmitype/StillImage" />
        <dc:title></dc:title>
      </cc:Work>
    </rdf:RDF>
  </metadata>
  <sodipodi:namedview
     pagecolor="#ffffff"
     bordercolor="#666666"
     borderopacity="1"
     objecttolerance="10"
     gridtolerance="10"
     guidetolerance="10"
     inkscape:pageopacity="0"
     inkscape:pageshadow="2"
     inkscape:window-width="640"
     inkscape:window-height="480"
     id="namedview3408"
     showgrid="false"
     inkscape:zoom="4.9166667"
     inkscape:cx="24"
     inkscape:cy="24"
     inkscape:window-x="0"
     inkscape:window-y="0"
     inkscape:window-maximized="0"
     inkscape:current-layer="svg3378" />
  <defs
     id="defs3380">
    <linearGradient
       x1="11.68966"
       y1="11.68966"
       x2="57.52354"
       y2="57.52354"
       gradientUnits="userSpaceOnUse"
       id="color-1">
      <stop
         offset="0"
         stop-color="#000000"
         stop-opacity="0.7"
         id="stop3383" />
      <stop
         offset="1"
         stop-color="#000000"
         stop-opacity="0"
         id="stop3385" />
    </linearGradient>
    <filter
       id="dropshadow">
      <feColorMatrix
         type="matrix"
         values="0 0 0 0 .05  0 0 0 0 .15  0 0 0 0 .1  0 0 0 .8 0"
         id="feColorMatrix3388" />
      <feOffset
         dx="0"
         dy="1"
         id="feOffset3390" />
      <feGaussianBlur
         stdDeviation="1"
         id="feGaussianBlur3392"
         result="result1" />
      <feComposite
         in="SourceGraphic"
         id="feComposite3394"
         in2="result1" />
    </filter>
  </defs>
  <g
     style="font-size:14px;font-family:'Open Sans', sans-serif;fill:#000000"
     id="g3398"
     font-size="14"
     stroke-miterlimit="4" />
  <g
     style="font-size:14px;font-family:'Open Sans', sans-serif;fill:#000000"
     id="g3400"
     font-size="14"
     stroke-miterlimit="4" />
  <path
     style="fill:#e65100;stroke-miterlimit:10;filter:url(#dropshadow)"
     inkscape:connector-curvature="0"
     id="path3402"
     stroke-miterlimit="10"
     d="M 3,24 C 3,12.40202 12.40202,3 24,3 35.59798,3 45,12.40202 45,24 45,35.59798 35.59798,45 24,45 12.40202,45 3,35.59798 3,24 Z" />
  <path
     style="fill:#ffffff;stroke-width:0"
     inkscape:connector-curvature="0"
     id="path3406"
     stroke-miterlimit="4"
     d="m 36.31034,24 -3.60661,3.60661 0,5.09712 -5.09712,0 L 24,36.31034 l -3.60661,-3.60661 -5.09712,0 0,-5.09712 L 11.68966,24 l 3.60661,-3.60661 0,-5.09712 5.09712,0 L 24,11.68966 l 3.60661,3.60661 5.09712,0 0,5.09712 z m -5.78254,0 c 0,-3.60661 -2.92119,-6.5278 -6.5278,-6.5278 -3.60661,0 -6.5278,2.92119 -6.5278,6.5278 0,3.60661 2.92119,6.5278 6.5278,6.5278 3.60661,0 6.5278,-2.92119 6.5278,-6.5278 z m -2.17594,0 c 0,2.40441 -1.94746,4.35186 -4.35186,4.35186 -2.40441,0 -4.35186,-1.94746 -4.35186,-4.35186 0,-2.40441 1.94746,-4.35186 4.35186,-4.35186 2.40441,0 4.35186,1.94746 4.35186,4.35186 z" />
</svg>
