<svg x="0" y="0" width="48" height="48" version="1.1" xmlns="http://www.w3.org/2000/svg" xmlns:xlink="http://www.w3.org/1999/xlink"><defs><linearGradient x1="11.68966" y1="11.68966" x2="57.52354" y2="57.52354" gradientUnits="userSpaceOnUse" id="color-1"><stop offset="0" stop-color="#000000" stop-opacity="0.7"></stop><stop offset="1" stop-color="#000000" stop-opacity="0"></stop></linearGradient><filter id="dropshadow"><feColorMatrix type="matrix" values="0 0 0 0 .05  0 0 0 0 .15  0 0 0 0 .1  0 0 0 .8 0"></feColorMatrix> <feOffset dx="0" dy="1"></feOffset> <feGaussianBlur stdDeviation="1"></feGaussianBlur> <feComposite in="SourceGraphic"></feComposite></filter></defs><g fill="none" stroke="none" stroke-width="none" stroke-linecap="butt" stroke-linejoin="miter" stroke-miterlimit="none" stroke-dasharray="" stroke-dashoffset="0" font-family="none" font-weight="normal" font-size="none" text-anchor="start" mix-blend-mode="normal"><g fill="#000000" stroke="none" stroke-width="1" stroke-miterlimit="4" font-family="&quot;Open Sans&quot;, sans-serif" font-size="14"></g><g fill="#000000" stroke="none" stroke-width="1" stroke-miterlimit="4" font-family="&quot;Open Sans&quot;, sans-serif" font-size="14"></g><path d="M3,24c0,-11.59798 9.40202,-21 21,-21c11.59798,0 21,9.40202 21,21c0,11.59798 -9.40202,21 -21,21c-11.59798,0 -21,-9.40202 -21,-21z" fill="#e65100" stroke-width="1" stroke-miterlimit="10" font-family="sans-serif" font-size="12" filter="url(#dropshadow)"></path><path d="M27.32999,44.73745l-12.03372,-12.03372l0,-5.09712l-3.60661,-3.60661l3.60661,-3.60661l0,-5.09712l5.09712,0l3.60661,-3.60661l3.60661,3.60661l5.09712,0l12.03372,12.03372c-1.4229,8.93096 -8.4765,15.98456 -17.40746,17.40746z" fill="url(#color-1)" stroke-width="1" stroke-miterlimit="10" font-family="sans-serif" font-size="12"></path><path d="M36.31034,24l-3.60661,3.60661l0,5.09712l-5.09712,0l-3.60661,3.60661l-3.60661,-3.60661l-5.09712,0l0,-5.09712l-3.60661,-3.60661l3.60661,-3.60661l0,-5.09712l5.09712,0l3.60661,-3.60661l3.60661,3.60661l5.09712,0l0,5.09712z M30.5278,24c0,-3.60661 -2.92119,-6.5278 -6.5278,-6.5278c-3.60661,0 -6.5278,2.92119 -6.5278,6.5278c0,3.60661 2.92119,6.5278 6.5278,6.5278c3.60661,0 6.5278,-2.92119 6.5278,-6.5278z M28.35186,24c0,2.40441 -1.94746,4.35186 -4.35186,4.35186c-2.40441,0 -4.35186,-1.94746 -4.35186,-4.35186c0,-2.40441 1.94746,-4.35186 4.35186,-4.35186c2.40441,0 4.35186,1.94746 4.35186,4.35186z" fill="#ffffff" stroke="none" stroke-width="0" stroke-miterlimit="4" font-family="&quot;Open Sans&quot;, sans-serif" font-size="14"></path></g></svg>