<?xml version="1.0" encoding="UTF-8" standalone="no"?>
<svg
   xmlns:dc="http://purl.org/dc/elements/1.1/"
   xmlns:cc="http://creativecommons.org/ns#"
   xmlns:rdf="http://www.w3.org/1999/02/22-rdf-syntax-ns#"
   xmlns:svg="http://www.w3.org/2000/svg"
   xmlns="http://www.w3.org/2000/svg"
   xmlns:sodipodi="http://sodipodi.sourceforge.net/DTD/sodipodi-0.dtd"
   xmlns:inkscape="http://www.inkscape.org/namespaces/inkscape"
   x="0"
   y="0"
   width="48"
   height="48"
   version="1.1"
   id="svg2"
   inkscape:version="0.91 r13725"
   sodipodi:docname="Motor.svg">
  <metadata
     id="metadata62">
    <rdf:RDF>
      <cc:Work
         rdf:about="">
        <dc:format>image/svg+xml</dc:format>
        <dc:type
           rdf:resource="http://purl.org/dc/dcmitype/StillImage" />
      </cc:Work>
    </rdf:RDF>
  </metadata>
  <sodipodi:namedview
     pagecolor="#ffffff"
     bordercolor="#666666"
     borderopacity="1"
     objecttolerance="10"
     gridtolerance="10"
     guidetolerance="10"
     inkscape:pageopacity="0"
     inkscape:pageshadow="2"
     inkscape:window-width="640"
     inkscape:window-height="480"
     id="namedview60"
     showgrid="false"
     inkscape:zoom="4.9166667"
     inkscape:cx="24"
     inkscape:cy="24"
     inkscape:window-x="0"
     inkscape:window-y="0"
     inkscape:window-maximized="0"
     inkscape:current-layer="svg2" />
  <defs
     id="defs4">
    <linearGradient
       x1="11.68966"
       y1="14.51263"
       x2="57.52354"
       y2="54.70057"
       gradientUnits="userSpaceOnUse"
       id="color-1">
      <stop
         offset="0"
         stop-color="#000000"
         stop-opacity="0.7"
         id="stop7" />
      <stop
         offset="1"
         stop-color="#000000"
         stop-opacity="0"
         id="stop9" />
    </linearGradient>
    <filter
       id="dropshadow">
      <feColorMatrix
         type="matrix"
         values="0 0 0 0 .05  0 0 0 0 .15  0 0 0 0 .1  0 0 0 .8 0"
         id="feColorMatrix12" />
      <feOffset
         dx="0"
         dy="1"
         id="feOffset14" />
      <feGaussianBlur
         stdDeviation="1"
         id="feGaussianBlur16"
         result="result1" />
      <feComposite
         in="SourceGraphic"
         id="feComposite18"
         in2="result1" />
    </filter>
  </defs>
  <g
     id="g3410">
    <g
       id="Capa_1"
       stroke-miterlimit="4"
       font-size="14"
       style="font-weight:normal;font-size:14px;font-family:'Open Sans', sans-serif;text-anchor:start;mix-blend-mode:normal;fill:#000000;stroke:none;stroke-width:1;stroke-linecap:butt;stroke-linejoin:miter;stroke-miterlimit:4;stroke-dasharray:none;stroke-dashoffset:0">
      <g
         id="XMLID_197_" />
      <g
         id="g24" />
      <g
         id="g26" />
      <g
         id="g28" />
      <g
         id="g30" />
      <g
         id="g32" />
      <g
         id="g34" />
      <g
         id="g36" />
      <g
         id="g38" />
      <g
         id="g40" />
      <g
         id="g42" />
      <g
         id="g44" />
      <g
         id="g46" />
      <g
         id="g48" />
      <g
         id="g50" />
      <g
         id="g52" />
    </g>
    <path
       d="M 3,24 C 3,12.40202 12.40202,3 24,3 35.59798,3 45,12.40202 45,24 45,35.59798 35.59798,45 24,45 12.40202,45 3,35.59798 3,24 Z"
       stroke-miterlimit="10"
       font-size="12"
       id="path54"
       inkscape:connector-curvature="0"
       style="font-weight:normal;font-size:12px;font-family:sans-serif;text-anchor:start;mix-blend-mode:normal;fill:#2979ff;stroke:none;stroke-width:1;stroke-linecap:butt;stroke-linejoin:miter;stroke-miterlimit:10;stroke-dasharray:none;stroke-dashoffset:0;filter:url(#dropshadow)" />
    <path
       d="M 30.5484,43.95888 17.29529,30.70577 c -0.47287,-0.47287 -0.8962,-0.9953 -1.26143,-1.55872 l -4.3442,-4.3442 0,-1.6057 2.85728,0 1.61268,1.61268 c 0,0 0,-1e-5 0,-1e-5 0,0 -1.61267,-1.61267 -1.61267,-1.61267 0.40892,-4.85702 4.4921,-8.68452 9.45305,-8.68452 0,0 10e-6,10e-6 10e-6,10e-6 2.61549,0 4.98699,1.06388 6.70472,2.78161 l 0.0082,0.0082 c -0.0027,-0.0027 -0.0055,-0.0055 -0.0082,-0.0082 0,0 13.25415,13.25415 13.25415,13.25415 -2.07582,6.33075 -7.07973,11.33467 -13.41048,13.41049 z"
       stroke-miterlimit="10"
       font-size="12"
       id="path56"
       style="font-weight:normal;font-size:12px;font-family:sans-serif;text-anchor:start;mix-blend-mode:normal;fill:url(#color-1);stroke:none;stroke-width:1;stroke-linecap:butt;stroke-linejoin:miter;stroke-miterlimit:10;stroke-dasharray:none;stroke-dashoffset:0"
       inkscape:connector-curvature="0" />
    <path
       d="m 36.31034,23.19715 0,1.6057 -2.85723,0 C 33.04414,29.65987 28.96096,33.48737 24,33.48737 c -4.96096,0 -9.04414,-3.8275 -9.45305,-8.68452 l -2.85728,0 0,-1.6057 2.85728,0 c 0.40892,-4.85702 4.4921,-8.68452 9.45305,-8.68452 4.96096,0 9.04414,3.8275 9.45311,8.68452 z M 31.88172,24 c 0,-4.34598 -3.53574,-7.88167 -7.88172,-7.88167 -4.34598,0 -7.88167,3.53569 -7.88167,7.88167 0,4.34598 3.53569,7.88167 7.88167,7.88167 4.34598,0 7.88172,-3.53569 7.88172,-7.88167 z m -5.03412,-4.81431 1.97918,0 0,9.55919 -1.858,0 0,-6.32794 -2.46383,4.71229 -1.00982,0 -2.46383,-4.71229 0,6.32794 -1.85795,0 0,-9.55919 1.99262,0 2.82736,5.4393 z"
       stroke-miterlimit="10"
       font-size="12"
       id="path58"
       inkscape:connector-curvature="0"
       style="font-weight:normal;font-size:12px;font-family:sans-serif;text-anchor:start;mix-blend-mode:normal;fill:#ffffff;stroke:none;stroke-width:0;stroke-linecap:butt;stroke-linejoin:miter;stroke-miterlimit:10;stroke-dasharray:none;stroke-dashoffset:0" />
  </g>
</svg>
