<svg x="0" y="0" width="48" height="48" version="1.1" xmlns="http://www.w3.org/2000/svg" xmlns:xlink="http://www.w3.org/1999/xlink"><defs><linearGradient x1="11.68966" y1="14.51263" x2="57.52354" y2="54.70057" gradientUnits="userSpaceOnUse" id="color-1"><stop offset="0" stop-color="#000000" stop-opacity="0"></stop><stop offset="1" stop-color="#000000" stop-opacity="0"></stop></linearGradient><filter id="dropshadow"><feColorMatrix type="matrix" values="0 0 0 0 .05  0 0 0 0 .15  0 0 0 0 .1  0 0 0 .8 0"></feColorMatrix> <feOffset dx="0" dy="1"></feOffset> <feGaussianBlur stdDeviation="1"></feGaussianBlur> <feComposite in="SourceGraphic"></feComposite></filter></defs><g fill="none" stroke="none" stroke-width="none" stroke-linecap="butt" stroke-linejoin="miter" stroke-miterlimit="none" stroke-dasharray="" stroke-dashoffset="0" font-family="none" font-weight="normal" font-size="none" text-anchor="start" mix-blend-mode="normal"><g id="Capa_1" fill="#000000" stroke="none" stroke-width="1" stroke-miterlimit="4" font-family="&quot;Open Sans&quot;, sans-serif" font-size="14"><g id="XMLID_197_"></g><g></g><g></g><g></g><g></g><g></g><g></g><g></g><g></g><g></g><g></g><g></g><g></g><g></g><g></g><g></g></g><path d="M3,24c0,-11.59798 9.40202,-21 21,-21c11.59798,0 21,9.40202 21,21c0,11.59798 -9.40202,21 -21,21c-11.59798,0 -21,-9.40202 -21,-21z" fill="#2979ff" stroke-width="1" stroke-miterlimit="10" font-family="sans-serif" font-size="12" filter="url(#dropshadow)"></path><path d="M30.5484,43.95888l-13.25311,-13.25311c-0.47287,-0.47287 -0.8962,-0.9953 -1.26143,-1.55872l-4.3442,-4.3442l0,-1.6057l2.85728,0l1.61268,1.61268c0,0 0,-0.00001 0,-0.00001c0,0 -1.61267,-1.61267 -1.61267,-1.61267c0.40892,-4.85702 4.4921,-8.68452 9.45305,-8.68452c0,0 0.00001,0.00001 0.00001,0.00001c2.61549,0 4.98699,1.06388 6.70472,2.78161l0.00822,0.00822c-0.00274,-0.00274 -0.00548,-0.00549 -0.00822,-0.00823c0,0 13.25415,13.25415 13.25415,13.25415c-2.07582,6.33075 -7.07973,11.33467 -13.41048,13.41049z" fill="url(#color-1)" stroke-width="1" stroke-miterlimit="10" font-family="sans-serif" font-size="12"></path><path d="M36.31034,23.19715l0,1.6057l-2.85723,0c-0.40897,4.85702 -4.49215,8.68452 -9.45311,8.68452c-4.96096,0 -9.04414,-3.8275 -9.45305,-8.68452l-2.85728,0l0,-1.6057l2.85728,0c0.40892,-4.85702 4.4921,-8.68452 9.45305,-8.68452c4.96096,0 9.04414,3.8275 9.45311,8.68452z M31.88172,24c0,-4.34598 -3.53574,-7.88167 -7.88172,-7.88167c-4.34598,0 -7.88167,3.53569 -7.88167,7.88167c0,4.34598 3.53569,7.88167 7.88167,7.88167c4.34598,0 7.88172,-3.53569 7.88172,-7.88167z M26.8476,19.18569l1.97918,0l0,9.55919l-1.858,0l0,-6.32794l-2.46383,4.71229l-1.00982,0l-2.46383,-4.71229l0,6.32794l-1.85795,0l0,-9.55919l1.99262,0l2.82736,5.4393z" fill="#ffffff" stroke-width="0" stroke-miterlimit="10" font-family="sans-serif" font-size="12"></path></g></svg>