<svg x="0" y="0" width="48" height="48" version="1.1" xmlns="http://www.w3.org/2000/svg" xmlns:xlink="http://www.w3.org/1999/xlink"><defs><linearGradient x1="11.68966" y1="11.68966" x2="57.52354" y2="57.52354" gradientUnits="userSpaceOnUse" id="color-1"><stop offset="0" stop-color="#000000" stop-opacity="0"></stop><stop offset="1" stop-color="#000000" stop-opacity="0"></stop></linearGradient><filter id="dropshadow"><feColorMatrix type="matrix" values="0 0 0 0 .05  0 0 0 0 .15  0 0 0 0 .1  0 0 0 .8 0"></feColorMatrix> <feOffset dx="0" dy="1"></feOffset> <feGaussianBlur stdDeviation="1"></feGaussianBlur> <feComposite in="SourceGraphic"></feComposite></filter></defs><g fill="none" stroke="none" stroke-width="none" stroke-linecap="butt" stroke-linejoin="miter" stroke-miterlimit="none" stroke-dasharray="" stroke-dashoffset="0" font-family="none" font-weight="normal" font-size="none" text-anchor="start" mix-blend-mode="normal"><g fill="#000000" stroke="none" stroke-width="1" stroke-miterlimit="4" font-family="&quot;Open Sans&quot;, sans-serif" font-size="14"></g><g fill="#000000" stroke="none" stroke-width="1" stroke-miterlimit="4" font-family="&quot;Open Sans&quot;, sans-serif" font-size="14"></g><g fill="#000000" stroke="none" stroke-width="1" stroke-miterlimit="4" font-family="&quot;Open Sans&quot;, sans-serif" font-size="14"></g><g fill="#000000" stroke="none" stroke-width="1" stroke-miterlimit="4" font-family="&quot;Open Sans&quot;, sans-serif" font-size="14"></g><g id="Capa_1" fill="#000000" stroke="none" stroke-width="1" stroke-miterlimit="4" font-family="&quot;Open Sans&quot;, sans-serif" font-size="14"><g></g><g></g><g></g><g></g><g></g><g></g><g></g><g></g><g></g><g></g><g></g><g></g><g></g><g></g><g></g><g></g></g><g fill="#000000" stroke="none" stroke-width="1" stroke-miterlimit="4" font-family="&quot;Open Sans&quot;, sans-serif" font-size="14"></g><g fill="#000000" stroke="none" stroke-width="1" stroke-miterlimit="4" font-family="&quot;Open Sans&quot;, sans-serif" font-size="14"></g><g fill="#000000" stroke="none" stroke-width="1" stroke-miterlimit="4" font-family="&quot;Open Sans&quot;, sans-serif" font-size="14"></g><path d="M3,24c0,-11.59798 9.40202,-21 21,-21c11.59798,0 21,9.40202 21,21c0,11.59798 -9.40202,21 -21,21c-11.59798,0 -21,-9.40202 -21,-21z" fill="#ef6c00" stroke-width="1" stroke-miterlimit="10" font-family="sans-serif" font-size="12" filter="url(#dropshadow)"></path><path d="M11.68966,17.28527l6.71473,6.71473l0,-0.00001l-6.71472,-6.71472l2.23824,0l0,-4.47648l-0.00001,-0.00001c0,-0.61552 0.49801,-1.11912 1.11912,-1.11912c0.30986,0 0.58907,0.12533 0.79111,0.32737c0,0 0.00395,0.00395 0.00395,0.00395c-0.00131,-0.00132 -0.00262,-0.00264 -0.00394,-0.00396c0,0 5.26825,5.26825 5.26825,5.26825l1.77449,0l0,-4.47649c0,-0.61552 0.49801,-1.11912 1.11912,-1.11912c0.30986,0 0.58907,0.12533 0.79111,0.32737l0.00278,0.00278c-0.00092,-0.00093 -0.00185,-0.00186 -0.00278,-0.00279c0,0 5.26825,5.26825 5.26825,5.26825l1.77449,0l0,-4.47649c0,-0.61552 0.49801,-1.11912 1.11912,-1.11912c0.30986,0 0.58907,0.12533 0.79111,0.32737c0,0 0.00278,0.00278 0.00278,0.00278c-0.00092,-0.00093 -0.00185,-0.00186 -0.00278,-0.00279l11.24313,11.24313c0.0085,0.24557 0.01279,0.49221 0.01279,0.73985c0,11.59798 -9.40202,21 -21,21c-0.48074,0 -0.9577,-0.01615 -1.43038,-0.04795l-8.64171,-8.64171c0,0 0.00001,0 0.00001,0l-0.00001,-0.00001l0,-4.21804c0,0 -1.26136,-1.26136 -1.26136,-1.26136c-0.60251,-0.60251 -0.97689,-1.43279 -0.97689,-2.35444l4.47649,4.47649l0,-0.00001l-4.47649,-4.47649l0,-2.23824l2.23824,0l-2.23824,-2.23824z" fill="url(#color-1)" stroke-width="1" stroke-miterlimit="10" font-family="sans-serif" font-size="12"></path><path d="M36.31034,17.28527l0,6.71473l-6.71473,0l0,-6.71473l2.23824,0l0,-4.47649c0,-0.61552 0.49801,-1.11912 1.11912,-1.11912c0.62111,0 1.11912,0.5036 1.11912,1.11912l0,4.47649z M16.16615,17.28527l2.23824,0l0,6.71473l-6.71473,0l0,-6.71473l2.23824,0l0,-4.47649c0,-0.61552 0.49801,-1.11912 1.11912,-1.11912c0.62111,0 1.11912,0.5036 1.11912,1.11912z M25.11912,17.28527l2.23824,0l0,6.71473l-6.71473,0l0,-6.71473l2.23824,0l0,-4.47649c0,-0.61552 0.49801,-1.11912 1.11912,-1.11912c0.62111,0 1.11912,0.5036 1.11912,1.11912z M29.59561,26.23824l6.71473,0l0,2.23824c0,1.46045 -0.94006,2.68589 -2.23824,3.15033l0,4.68352l-2.23824,0l0,-4.68352c-1.29818,-0.45884 -2.23824,-1.68987 -2.23824,-3.15033z M20.64264,26.23824l6.71473,0l0,2.23824c0,1.46045 -0.94006,2.68589 -2.23824,3.15033l0,4.68352l-2.23824,0l0,-4.68352c-1.29818,-0.45884 -2.23824,-1.68987 -2.23824,-3.15033z M11.68966,26.23824l6.71473,0l0,2.23824c0,1.46045 -0.94006,2.68589 -2.23824,3.15033l0,4.68352l-2.23824,0l0,-4.68352c-1.29818,-0.45884 -2.23824,-1.68987 -2.23824,-3.15033z" fill="#ffffff" stroke="none" stroke-width="0" stroke-miterlimit="4" font-family="&quot;Open Sans&quot;, sans-serif" font-size="14"></path></g></svg>