<?xml version="1.0" encoding="UTF-8" standalone="no"?>
<svg
   xmlns:dc="http://purl.org/dc/elements/1.1/"
   xmlns:cc="http://creativecommons.org/ns#"
   xmlns:rdf="http://www.w3.org/1999/02/22-rdf-syntax-ns#"
   xmlns:svg="http://www.w3.org/2000/svg"
   xmlns="http://www.w3.org/2000/svg"
   xmlns:sodipodi="http://sodipodi.sourceforge.net/DTD/sodipodi-0.dtd"
   xmlns:inkscape="http://www.inkscape.org/namespaces/inkscape"
   x="0"
   y="0"
   width="48"
   height="48"
   version="1.1"
   id="svg2"
   inkscape:version="0.91 r13725"
   sodipodi:docname="Output.svg">
  <metadata
     id="metadata77">
    <rdf:RDF>
      <cc:Work
         rdf:about="">
        <dc:format>image/svg+xml</dc:format>
        <dc:type
           rdf:resource="http://purl.org/dc/dcmitype/StillImage" />
      </cc:Work>
    </rdf:RDF>
  </metadata>
  <sodipodi:namedview
     pagecolor="#ffffff"
     bordercolor="#666666"
     borderopacity="1"
     objecttolerance="10"
     gridtolerance="10"
     guidetolerance="10"
     inkscape:pageopacity="0"
     inkscape:pageshadow="2"
     inkscape:window-width="640"
     inkscape:window-height="480"
     id="namedview75"
     showgrid="false"
     inkscape:zoom="4.9166667"
     inkscape:cx="24"
     inkscape:cy="24"
     inkscape:window-x="0"
     inkscape:window-y="0"
     inkscape:window-maximized="0"
     inkscape:current-layer="svg2" />
  <defs
     id="defs4">
    <linearGradient
       x1="11.68966"
       y1="11.68966"
       x2="57.52354"
       y2="57.52354"
       gradientUnits="userSpaceOnUse"
       id="color-1">
      <stop
         offset="0"
         stop-color="#000000"
         stop-opacity="0.7"
         id="stop7" />
      <stop
         offset="1"
         stop-color="#000000"
         stop-opacity="0"
         id="stop9" />
    </linearGradient>
    <filter
       id="dropshadow">
      <feColorMatrix
         type="matrix"
         values="0 0 0 0 .05  0 0 0 0 .15  0 0 0 0 .1  0 0 0 .8 0"
         id="feColorMatrix12" />
      <feOffset
         dx="0"
         dy="1"
         id="feOffset14" />
      <feGaussianBlur
         stdDeviation="1"
         id="feGaussianBlur16"
         result="result1" />
      <feComposite
         in="SourceGraphic"
         id="feComposite18"
         in2="result1" />
    </filter>
  </defs>
  <g
     id="g3432">
    <g
       stroke-miterlimit="4"
       font-size="14"
       id="g22"
       style="font-weight:normal;font-size:14px;font-family:'Open Sans', sans-serif;text-anchor:start;mix-blend-mode:normal;fill:#000000;stroke:none;stroke-width:1;stroke-linecap:butt;stroke-linejoin:miter;stroke-miterlimit:4;stroke-dasharray:none;stroke-dashoffset:0" />
    <g
       stroke-miterlimit="4"
       font-size="14"
       id="g24"
       style="font-weight:normal;font-size:14px;font-family:'Open Sans', sans-serif;text-anchor:start;mix-blend-mode:normal;fill:#000000;stroke:none;stroke-width:1;stroke-linecap:butt;stroke-linejoin:miter;stroke-miterlimit:4;stroke-dasharray:none;stroke-dashoffset:0" />
    <g
       stroke-miterlimit="4"
       font-size="14"
       id="g26"
       style="font-weight:normal;font-size:14px;font-family:'Open Sans', sans-serif;text-anchor:start;mix-blend-mode:normal;fill:#000000;stroke:none;stroke-width:1;stroke-linecap:butt;stroke-linejoin:miter;stroke-miterlimit:4;stroke-dasharray:none;stroke-dashoffset:0" />
    <g
       stroke-miterlimit="4"
       font-size="14"
       id="g28"
       style="font-weight:normal;font-size:14px;font-family:'Open Sans', sans-serif;text-anchor:start;mix-blend-mode:normal;fill:#000000;stroke:none;stroke-width:1;stroke-linecap:butt;stroke-linejoin:miter;stroke-miterlimit:4;stroke-dasharray:none;stroke-dashoffset:0" />
    <g
       id="Capa_1"
       stroke-miterlimit="4"
       font-size="14"
       style="font-weight:normal;font-size:14px;font-family:'Open Sans', sans-serif;text-anchor:start;mix-blend-mode:normal;fill:#000000;stroke:none;stroke-width:1;stroke-linecap:butt;stroke-linejoin:miter;stroke-miterlimit:4;stroke-dasharray:none;stroke-dashoffset:0">
      <g
         id="g31" />
      <g
         id="g33" />
      <g
         id="g35" />
      <g
         id="g37" />
      <g
         id="g39" />
      <g
         id="g41" />
      <g
         id="g43" />
      <g
         id="g45" />
      <g
         id="g47" />
      <g
         id="g49" />
      <g
         id="g51" />
      <g
         id="g53" />
      <g
         id="g55" />
      <g
         id="g57" />
      <g
         id="g59" />
      <g
         id="g61" />
    </g>
    <g
       stroke-miterlimit="4"
       font-size="14"
       id="g63"
       style="font-weight:normal;font-size:14px;font-family:'Open Sans', sans-serif;text-anchor:start;mix-blend-mode:normal;fill:#000000;stroke:none;stroke-width:1;stroke-linecap:butt;stroke-linejoin:miter;stroke-miterlimit:4;stroke-dasharray:none;stroke-dashoffset:0" />
    <g
       stroke-miterlimit="4"
       font-size="14"
       id="g65"
       style="font-weight:normal;font-size:14px;font-family:'Open Sans', sans-serif;text-anchor:start;mix-blend-mode:normal;fill:#000000;stroke:none;stroke-width:1;stroke-linecap:butt;stroke-linejoin:miter;stroke-miterlimit:4;stroke-dasharray:none;stroke-dashoffset:0" />
    <g
       stroke-miterlimit="4"
       font-size="14"
       id="g67"
       style="font-weight:normal;font-size:14px;font-family:'Open Sans', sans-serif;text-anchor:start;mix-blend-mode:normal;fill:#000000;stroke:none;stroke-width:1;stroke-linecap:butt;stroke-linejoin:miter;stroke-miterlimit:4;stroke-dasharray:none;stroke-dashoffset:0" />
    <path
       d="M 3,24 C 3,12.40202 12.40202,3 24,3 35.59798,3 45,12.40202 45,24 45,35.59798 35.59798,45 24,45 12.40202,45 3,35.59798 3,24 Z"
       stroke-miterlimit="10"
       font-size="12"
       id="path69"
       inkscape:connector-curvature="0"
       style="font-weight:normal;font-size:12px;font-family:sans-serif;text-anchor:start;mix-blend-mode:normal;fill:#ef6c00;stroke:none;stroke-width:1;stroke-linecap:butt;stroke-linejoin:miter;stroke-miterlimit:10;stroke-dasharray:none;stroke-dashoffset:0;filter:url(#dropshadow)" />
    <path
       d="M 11.68966,17.28527 18.40439,24 l 0,-10e-6 -6.71472,-6.71472 2.23824,0 0,-4.47648 -1e-5,-10e-6 c 0,-0.61552 0.49801,-1.11912 1.11912,-1.11912 0.30986,0 0.58907,0.12533 0.79111,0.32737 0,0 0.0039,0.0039 0.0039,0.0039 -0.0013,-0.0013 -0.0026,-0.0026 -0.0039,-0.004 0,0 5.26825,5.26825 5.26825,5.26825 l 1.77449,0 0,-4.47649 c 0,-0.61552 0.49801,-1.11912 1.11912,-1.11912 0.30986,0 0.58907,0.12533 0.79111,0.32737 l 0.0028,0.0028 c -9.2e-4,-9.3e-4 -0.0019,-0.0019 -0.0028,-0.0028 0,0 5.26825,5.26825 5.26825,5.26825 l 1.77449,0 0,-4.47649 c 0,-0.61552 0.49801,-1.11912 1.11912,-1.11912 0.30986,0 0.58907,0.12533 0.79111,0.32737 0,0 0.0028,0.0028 0.0028,0.0028 -9.2e-4,-9.3e-4 -0.0018,-0.0019 -0.0028,-0.0028 l 11.24314,11.2432 C 44.99571,23.50572 45,23.75236 45,24 45,35.59798 35.59798,45 24,45 23.51926,45 23.0423,44.98385 22.56962,44.95205 l -8.64171,-8.64171 c 0,0 10e-6,0 10e-6,0 l -10e-6,-10e-6 0,-4.21804 c 0,0 -1.26136,-1.26136 -1.26136,-1.26136 -0.60251,-0.60251 -0.97689,-1.43279 -0.97689,-2.35444 l 4.47649,4.47649 0,-10e-6 -4.47649,-4.47649 0,-2.23824 2.23824,0 L 11.68966,24 Z"
       stroke-miterlimit="10"
       font-size="12"
       id="path71"
       style="font-weight:normal;font-size:12px;font-family:sans-serif;text-anchor:start;mix-blend-mode:normal;fill:url(#color-1);stroke:none;stroke-width:1;stroke-linecap:butt;stroke-linejoin:miter;stroke-miterlimit:10;stroke-dasharray:none;stroke-dashoffset:0"
       inkscape:connector-curvature="0" />
    <path
       d="m 36.31034,17.28527 0,6.71473 -6.71473,0 0,-6.71473 2.23824,0 0,-4.47649 c 0,-0.61552 0.49801,-1.11912 1.11912,-1.11912 0.62111,0 1.11912,0.5036 1.11912,1.11912 l 0,4.47649 z m -20.14419,0 2.23824,0 0,6.71473 -6.71473,0 0,-6.71473 2.23824,0 0,-4.47649 c 0,-0.61552 0.49801,-1.11912 1.11912,-1.11912 0.62111,0 1.11912,0.5036 1.11912,1.11912 z m 8.95297,0 2.23824,0 0,6.71473 -6.71473,0 0,-6.71473 2.23824,0 0,-4.47649 c 0,-0.61552 0.49801,-1.11912 1.11912,-1.11912 0.62111,0 1.11912,0.5036 1.11912,1.11912 z m 4.47649,8.95297 6.71473,0 0,2.23824 c 0,1.46045 -0.94006,2.68589 -2.23824,3.15033 l 0,4.68352 -2.23824,0 0,-4.68352 c -1.29818,-0.45884 -2.23824,-1.68987 -2.23824,-3.15033 z m -8.95297,0 6.71473,0 0,2.23824 c 0,1.46045 -0.94006,2.68589 -2.23824,3.15033 l 0,4.68352 -2.23824,0 0,-4.68352 c -1.29818,-0.45884 -2.23824,-1.68987 -2.23824,-3.15033 z m -8.95298,0 6.71473,0 0,2.23824 c 0,1.46045 -0.94006,2.68589 -2.23824,3.15033 l 0,4.68352 -2.23824,0 0,-4.68352 c -1.29818,-0.45884 -2.23824,-1.68987 -2.23824,-3.15033 z"
       stroke-miterlimit="4"
       font-size="14"
       id="path73"
       inkscape:connector-curvature="0"
       style="font-weight:normal;font-size:14px;font-family:'Open Sans', sans-serif;text-anchor:start;mix-blend-mode:normal;fill:#ffffff;stroke:none;stroke-width:0;stroke-linecap:butt;stroke-linejoin:miter;stroke-miterlimit:4;stroke-dasharray:none;stroke-dashoffset:0" />
  </g>
</svg>
