<?xml version="1.0" encoding="UTF-8" standalone="no"?>
<svg
   xmlns:dc="http://purl.org/dc/elements/1.1/"
   xmlns:cc="http://creativecommons.org/ns#"
   xmlns:rdf="http://www.w3.org/1999/02/22-rdf-syntax-ns#"
   xmlns:svg="http://www.w3.org/2000/svg"
   xmlns="http://www.w3.org/2000/svg"
   xmlns:sodipodi="http://sodipodi.sourceforge.net/DTD/sodipodi-0.dtd"
   xmlns:inkscape="http://www.inkscape.org/namespaces/inkscape"
   x="0"
   y="0"
   width="48"
   height="48"
   version="1.1"
   id="svg2"
   inkscape:version="0.91 r13725"
   sodipodi:docname="Proportional Pressed.svg">
  <metadata
     id="metadata34">
    <rdf:RDF>
      <cc:Work
         rdf:about="">
        <dc:format>image/svg+xml</dc:format>
        <dc:type
           rdf:resource="http://purl.org/dc/dcmitype/StillImage" />
      </cc:Work>
    </rdf:RDF>
  </metadata>
  <sodipodi:namedview
     pagecolor="#ffffff"
     bordercolor="#666666"
     borderopacity="1"
     objecttolerance="10"
     gridtolerance="10"
     guidetolerance="10"
     inkscape:pageopacity="0"
     inkscape:pageshadow="2"
     inkscape:window-width="640"
     inkscape:window-height="480"
     id="namedview32"
     showgrid="false"
     inkscape:zoom="4.9166667"
     inkscape:cx="24"
     inkscape:cy="24"
     inkscape:window-x="0"
     inkscape:window-y="0"
     inkscape:window-maximized="0"
     inkscape:current-layer="svg2" />
  <defs
     id="defs4">
    <linearGradient
       x1="11.68966"
       y1="14.7196"
       x2="57.52354"
       y2="54.4936"
       gradientUnits="userSpaceOnUse"
       id="color-1">
      <stop
         offset="0"
         stop-color="#000000"
         stop-opacity="0"
         id="stop7" />
      <stop
         offset="1"
         stop-color="#000000"
         stop-opacity="0"
         id="stop9" />
    </linearGradient>
    <filter
       id="dropshadow">
      <feColorMatrix
         type="matrix"
         values="0 0 0 0 .05  0 0 0 0 .15  0 0 0 0 .1  0 0 0 .8 0"
         id="feColorMatrix12" />
      <feOffset
         dx="0"
         dy="1"
         id="feOffset14" />
      <feGaussianBlur
         stdDeviation="1"
         id="feGaussianBlur16"
         result="result1" />
      <feComposite
         in="SourceGraphic"
         id="feComposite18"
         in2="result1" />
    </filter>
  </defs>
  <g
     id="g3351">
    <g
       stroke-miterlimit="4"
       font-size="14"
       id="g22"
       style="font-size:14px;font-family:'Open Sans', sans-serif;fill:#000000">
      <g
         id="g24" />
    </g>
    <path
       d="M 3,24 C 3,12.40202 12.40202,3 24,3 35.59798,3 45,12.40202 45,24 45,35.59798 35.59798,45 24,45 12.40202,45 3,35.59798 3,24 Z"
       stroke-miterlimit="10"
       id="path26"
       inkscape:connector-curvature="0"
       style="fill:#d81b60;stroke-miterlimit:10;filter:url(#dropshadow)" />
    <path
       d="m 21.12425,15.01539 c 1.67614,0.46833 3.17974,1.62684 4.43684,3.45088 0.64088,0.96132 1.25711,1.72544 1.3557,1.75009 0.07395,0 0.44368,-0.51763 0.81342,-1.13386 1.75009,-2.98254 3.37693,-4.04246 6.45807,-4.23965 l 2.04588,-0.12325 c 0,0.76412 0,2.8593 0,2.9579 0,0.12325 -0.39439,0.22184 -0.88737,0.24649 -1.62684,0.0493 -2.46491,0.32044 -3.50018,1.08456 -1.08456,0.78877 -3.25369,3.82062 -3.32763,4.60939 -0.02465,0.59158 1.38035,2.98254 2.66211,4.43684 1.13386,1.28175 2.53886,1.99658 3.99316,2.02123 0.93667,0 1.03526,0.0493 1.10921,0.66553 0.0493,0.39439 0.02465,1.10921 -0.02465,1.62684 L 36.18486,33.2804 34.36082,33.1818 C 33.37485,33.10785 32.16705,32.88601 31.67406,32.63952 30.4909,32.09724 28.56827,30.19926 27.75485,28.76961 27.38511,28.12873 26.99073,27.6111 26.91678,27.6111 c -0.0986,0.02465 -0.56693,0.64088 -1.03526,1.38035 -1.08456,1.72544 -2.04588,2.7114 -3.30298,3.37693 -1.4543,0.78877 -5.00377,0.76412 -6.43342,0 -2.73605,-1.5036 -4.2643,-4.09176 -4.43684,-7.66588 -0.22184,-4.28895 1.5529,-7.86307 4.56009,-9.26807 1.33105,-0.61623 3.42623,-0.78877 4.85588,-0.41904 z m -2.11982,2.98255 c -3.08114,0.02465 -4.80658,2.24307 -4.78193,6.08834 0,2.07053 0.44368,3.40158 1.5036,4.48614 1.18316,1.25711 3.52483,1.65149 5.29956,0.88737 1.28175,-0.54228 2.8593,-2.21842 3.69737,-3.89456 0.66553,-1.3557 0.66553,-1.42965 0.27114,-2.19377 -0.86272,-1.72544 -2.61281,-3.86991 -3.69737,-4.60939 -0.88737,-0.59158 -1.42965,-0.76412 -2.29237,-0.76412 z"
       stroke-miterlimit="4"
       id="path30"
       inkscape:connector-curvature="0"
       style="fill:#ffffff;stroke-width:0" />
  </g>
</svg>
