<svg x="0" y="0" width="48" height="48" version="1.1" xmlns="http://www.w3.org/2000/svg" xmlns:xlink="http://www.w3.org/1999/xlink"><defs><linearGradient x1="11.68966" y1="19.12551" x2="57.52354" y2="50.0877" gradientUnits="userSpaceOnUse" id="color-1"><stop offset="0" stop-color="#000000" stop-opacity="0.7"></stop><stop offset="1" stop-color="#000000" stop-opacity="0"></stop></linearGradient><filter id="dropshadow"><feColorMatrix type="matrix" values="0 0 0 0 .05  0 0 0 0 .15  0 0 0 0 .1  0 0 0 .8 0"></feColorMatrix> <feOffset dx="0" dy="1"></feOffset> <feGaussianBlur stdDeviation="1"></feGaussianBlur> <feComposite in="SourceGraphic"></feComposite></filter></defs><g fill="none" stroke="none" stroke-width="none" stroke-linecap="butt" stroke-linejoin="miter" stroke-miterlimit="none" stroke-dasharray="" stroke-dashoffset="0" font-family="none" font-weight="normal" font-size="none" text-anchor="start" mix-blend-mode="normal"><g id="Capa_1" fill="#000000" stroke="none" stroke-width="1" stroke-miterlimit="4" font-family="&quot;Open Sans&quot;, sans-serif" font-size="14"><g id="XMLID_21_"></g><g></g><g></g><g></g><g></g><g></g><g></g><g></g><g></g><g></g><g></g><g></g><g></g><g></g><g></g><g></g></g><path d="M3,24c0,-11.59798 9.40202,-21 21,-21c11.59798,0 21,9.40202 21,21c0,11.59798 -9.40202,21 -21,21c-11.59798,0 -21,-9.40202 -21,-21z" fill="#ff6d00" stroke-width="1" stroke-miterlimit="10" font-family="sans-serif" font-size="12" filter="url(#dropshadow)"></path><path d="M31.20528,43.7313c0,0 -19.51562,-19.51562 -19.51562,-19.51562l0,-1.59605c0,0 0.00001,0.00001 0.00001,0.00001c0,0 4.52962,0 4.52962,0l0.90233,0.90233l-0.00001,-0.00002l-0.90231,-0.90231c0.21602,0 0.41765,0.08707 0.56443,0.23385l1.71665,1.71665l1.75537,-4.91501l0,0c0.113,-0.31639 0.41205,-0.52812 0.74801,-0.52961l0.88583,0.88583l-0.00001,-0.00002l-0.88582,-0.88582c0.00117,0 0.00234,0 0.00351,0c0.21631,0 0.41782,0.08724 0.56443,0.23385l0.00237,0.00237c-0.00079,-0.0008 -0.00158,-0.00159 -0.00237,-0.00238c0,0 3.42204,3.42204 3.42204,3.42204l1.08316,-3.11962l0,0c0.10811,-0.31128 0.3964,-0.52413 0.72567,-0.53578c0.22616,-0.00791 0.4391,0.0797 0.5925,0.2331l3.682,3.682c0.13687,-0.25592 0.40545,-0.42145 0.70362,-0.42146c0,0 0.00001,0 0.00001,0l4.52962,0l0.00001,0.00001l0,-0.00001c0,0 7.71679,7.71679 7.71679,7.71679c-1.96275,6.2093 -6.73338,11.17094 -12.82186,13.39486z" fill="url(#color-1)" stroke-width="1" stroke-miterlimit="10" font-family="sans-serif" font-size="12"></path><path d="M30.32468,28.87444c-0.31783,0 -0.60708,-0.18918 -0.73328,-0.48366l-2.68253,-6.25916l-2.15493,6.2066c-0.11066,0.31862 -0.4096,0.53324 -0.74684,0.53627c-0.00234,0 -0.00473,0 -0.00708,0c-0.33443,0 -0.63368,-0.2086 -0.74913,-0.52302l-2.23335,-6.08403l-2.17052,6.07743c-0.11146,0.31213 -0.40428,0.52287 -0.73562,0.52946c-0.33208,0.00676 -0.63235,-0.19232 -0.75615,-0.49978l-1.67489,-4.15887l-3.9907,0l0,-1.59605l4.52963,0c0.32565,0 0.61857,0.19786 0.74025,0.49988l1.09122,2.70956l2.20499,-6.17394c0.113,-0.31639 0.41205,-0.52813 0.74801,-0.52962c0.00117,0 0.00234,0 0.00351,0c0.33458,0 0.63374,0.20871 0.74913,0.52302l2.22271,6.05508l2.09779,-6.04184c0.10811,-0.31128 0.3964,-0.52414 0.72567,-0.53579c0.33001,-0.01154 0.63188,0.1803 0.76169,0.48318l2.64321,6.1675l0.81154,-2.59703c0.10412,-0.33315 0.41263,-0.56 0.76169,-0.56l4.52963,0l0,1.59605l-3.94293,0l-1.28088,4.09881c-0.09965,0.31889 -0.38736,0.54191 -0.72104,0.55894c-0.01357,0.00064 -0.02724,0.00101 -0.04081,0.00101z" fill="#ffffff" stroke="none" stroke-width="0" stroke-miterlimit="4" font-family="&quot;Open Sans&quot;, sans-serif" font-size="14"></path></g></svg>