<?xml version="1.0" encoding="UTF-8" standalone="no"?>
<svg
   xmlns:dc="http://purl.org/dc/elements/1.1/"
   xmlns:cc="http://creativecommons.org/ns#"
   xmlns:rdf="http://www.w3.org/1999/02/22-rdf-syntax-ns#"
   xmlns:svg="http://www.w3.org/2000/svg"
   xmlns="http://www.w3.org/2000/svg"
   xmlns:sodipodi="http://sodipodi.sourceforge.net/DTD/sodipodi-0.dtd"
   xmlns:inkscape="http://www.inkscape.org/namespaces/inkscape"
   x="0"
   y="0"
   width="48"
   height="48"
   version="1.1"
   id="svg2"
   inkscape:version="0.91 r13725"
   sodipodi:docname="Resistor Pressed.svg">
  <metadata
     id="metadata62">
    <rdf:RDF>
      <cc:Work
         rdf:about="">
        <dc:format>image/svg+xml</dc:format>
        <dc:type
           rdf:resource="http://purl.org/dc/dcmitype/StillImage" />
      </cc:Work>
    </rdf:RDF>
  </metadata>
  <sodipodi:namedview
     pagecolor="#ffffff"
     bordercolor="#666666"
     borderopacity="1"
     objecttolerance="10"
     gridtolerance="10"
     guidetolerance="10"
     inkscape:pageopacity="0"
     inkscape:pageshadow="2"
     inkscape:window-width="640"
     inkscape:window-height="480"
     id="namedview60"
     showgrid="false"
     inkscape:zoom="4.9166667"
     inkscape:cx="24"
     inkscape:cy="24"
     inkscape:window-x="0"
     inkscape:window-y="0"
     inkscape:window-maximized="0"
     inkscape:current-layer="svg2" />
  <defs
     id="defs4">
    <linearGradient
       x1="11.68966"
       y1="19.12551"
       x2="57.52354"
       y2="50.0877"
       gradientUnits="userSpaceOnUse"
       id="color-1">
      <stop
         offset="0"
         stop-color="#000000"
         stop-opacity="0"
         id="stop7" />
      <stop
         offset="1"
         stop-color="#000000"
         stop-opacity="0"
         id="stop9" />
    </linearGradient>
    <filter
       id="dropshadow">
      <feColorMatrix
         type="matrix"
         values="0 0 0 0 .05  0 0 0 0 .15  0 0 0 0 .1  0 0 0 .8 0"
         id="feColorMatrix12" />
      <feOffset
         dx="0"
         dy="1"
         id="feOffset14" />
      <feGaussianBlur
         stdDeviation="1"
         id="feGaussianBlur16"
         result="result1" />
      <feComposite
         in="SourceGraphic"
         id="feComposite18"
         in2="result1" />
    </filter>
  </defs>
  <g
     id="g3410">
    <g
       id="Capa_1"
       stroke-miterlimit="4"
       font-size="14"
       style="font-size:14px;font-family:'Open Sans', sans-serif;fill:#000000">
      <g
         id="XMLID_21_" />
      <g
         id="g24" />
      <g
         id="g26" />
      <g
         id="g28" />
      <g
         id="g30" />
      <g
         id="g32" />
      <g
         id="g34" />
      <g
         id="g36" />
      <g
         id="g38" />
      <g
         id="g40" />
      <g
         id="g42" />
      <g
         id="g44" />
      <g
         id="g46" />
      <g
         id="g48" />
      <g
         id="g50" />
      <g
         id="g52" />
    </g>
    <path
       d="M 3,24 C 3,12.40202 12.40202,3 24,3 35.59798,3 45,12.40202 45,24 45,35.59798 35.59798,45 24,45 12.40202,45 3,35.59798 3,24 Z"
       stroke-miterlimit="10"
       id="path54"
       inkscape:connector-curvature="0"
       style="fill:#ff6d00;stroke-miterlimit:10;filter:url(#dropshadow)" />
    <path
       d="m 30.32468,28.87444 c -0.31783,0 -0.60708,-0.18918 -0.73328,-0.48366 l -2.68253,-6.25916 -2.15493,6.2066 c -0.11066,0.31862 -0.4096,0.53324 -0.74684,0.53627 -0.0023,0 -0.0047,0 -0.0071,0 -0.33443,0 -0.63368,-0.2086 -0.74913,-0.52302 L 21.01752,22.26744 18.847,28.34487 c -0.11146,0.31213 -0.40428,0.52287 -0.73562,0.52946 -0.33208,0.0068 -0.63235,-0.19232 -0.75615,-0.49978 l -1.67489,-4.15887 -3.9907,0 0,-1.59605 4.52963,0 c 0.32565,0 0.61857,0.19786 0.74025,0.49988 l 1.09122,2.70956 2.20499,-6.17394 c 0.113,-0.31639 0.41205,-0.52813 0.74801,-0.52962 0.0012,0 0.0023,0 0.0035,0 0.33458,0 0.63374,0.20871 0.74913,0.52302 l 2.22271,6.05508 2.09779,-6.04184 c 0.10811,-0.31128 0.3964,-0.52414 0.72567,-0.53579 0.33001,-0.01154 0.63188,0.1803 0.76169,0.48318 l 2.64321,6.1675 0.81154,-2.59703 c 0.10412,-0.33315 0.41263,-0.56 0.76169,-0.56 l 4.52963,0 0,1.59605 -3.94293,0 -1.28088,4.09881 c -0.09965,0.31889 -0.38736,0.54191 -0.72104,0.55894 -0.01357,6.4e-4 -0.02724,0.001 -0.04081,0.001 z"
       stroke-miterlimit="4"
       id="path58"
       inkscape:connector-curvature="0"
       style="fill:#ffffff;stroke-width:0" />
  </g>
</svg>
