<svg x="0" y="0" width="48" height="48" version="1.1" xmlns="http://www.w3.org/2000/svg" xmlns:xlink="http://www.w3.org/1999/xlink"><defs><linearGradient x1="11.68966" y1="11.68967" x2="56.81644" y2="56.81644" gradientUnits="userSpaceOnUse" id="color-1"><stop offset="0" stop-color="#000000" stop-opacity="0.7"></stop><stop offset="1" stop-color="#000000" stop-opacity="0"></stop></linearGradient><filter id="dropshadow"><feColorMatrix type="matrix" values="0 0 0 0 .05  0 0 0 0 .15  0 0 0 0 .1  0 0 0 .8 0"></feColorMatrix> <feOffset dx="0" dy="1"></feOffset> <feGaussianBlur stdDeviation="1"></feGaussianBlur> <feComposite in="SourceGraphic"></feComposite></filter></defs><g fill="none" stroke="none" stroke-width="none" stroke-linecap="butt" stroke-linejoin="miter" stroke-miterlimit="none" stroke-dasharray="" stroke-dashoffset="0" font-family="none" font-weight="normal" font-size="none" text-anchor="start" mix-blend-mode="normal"><g fill="#000000" stroke="none" stroke-width="1" stroke-miterlimit="4" font-family="&quot;Open Sans&quot;, sans-serif" font-size="14"></g><g fill="#000000" stroke="none" stroke-width="1" stroke-miterlimit="4" font-family="&quot;Open Sans&quot;, sans-serif" font-size="14"></g><path d="M3,24c0,-11.59798 9.40202,-21 21,-21c11.59798,0 21,9.40202 21,21c0,11.59798 -9.40202,21 -21,21c-11.59798,0 -21,-9.40202 -21,-21z" fill="#008fcc" stroke-width="1" stroke-miterlimit="10" font-family="sans-serif" font-size="12" filter="url(#dropshadow)"></path><path d="M27.32391,44.73842l-12.02968,-12.02968c-2.22765,-2.22764 -3.60457,-5.30646 -3.60457,-8.70873c0,0 0,-0.00001 0,-0.00001c0.00001,-6.80146 5.50272,-12.31033 12.30418,-12.31033c3.40227,0 6.48264,1.37846 8.71182,3.60764l12.03191,12.03191c-1.42294,8.93335 -8.47957,15.98849 -17.41366,17.4092z" fill="url(#color-1)" stroke-width="1" stroke-miterlimit="10" font-family="sans-serif" font-size="12"></path><path d="M36.31034,24c0,6.80146 -5.51503,12.31034 -12.31649,12.31034c-6.80146,0 -12.30418,-5.50888 -12.30418,-12.31034c0,-6.80146 5.50272,-12.31034 12.30418,-12.31034c6.80146,0 12.31649,5.50888 12.31649,12.31034z M33.84827,24c0,-5.44117 -4.4071,-9.84827 -9.84827,-9.84827c-5.44117,0 -9.84827,4.4071 -9.84827,9.84827c0,5.44117 4.4071,9.84827 9.84827,9.84827c5.44117,0 9.84827,-4.4071 9.84827,-9.84827z M24.61552,24.30776l5.53965,3.28686l-0.92943,1.51417l-6.45677,-3.87776l0,-7.3862l1.84655,0z" fill="#ffffff" stroke="none" stroke-width="0" stroke-miterlimit="4" font-family="&quot;Open Sans&quot;, sans-serif" font-size="14"></path></g></svg>