<?xml version="1.0" encoding="UTF-8" standalone="no"?>
<svg
   xmlns:dc="http://purl.org/dc/elements/1.1/"
   xmlns:cc="http://creativecommons.org/ns#"
   xmlns:rdf="http://www.w3.org/1999/02/22-rdf-syntax-ns#"
   xmlns:svg="http://www.w3.org/2000/svg"
   xmlns="http://www.w3.org/2000/svg"
   xmlns:sodipodi="http://sodipodi.sourceforge.net/DTD/sodipodi-0.dtd"
   xmlns:inkscape="http://www.inkscape.org/namespaces/inkscape"
   x="0"
   y="0"
   width="48"
   height="48"
   version="1.1"
   id="svg2"
   inkscape:version="0.91 r13725"
   sodipodi:docname="RTC.svg">
  <metadata
     id="metadata34">
    <rdf:RDF>
      <cc:Work
         rdf:about="">
        <dc:format>image/svg+xml</dc:format>
        <dc:type
           rdf:resource="http://purl.org/dc/dcmitype/StillImage" />
      </cc:Work>
    </rdf:RDF>
  </metadata>
  <sodipodi:namedview
     pagecolor="#ffffff"
     bordercolor="#666666"
     borderopacity="1"
     objecttolerance="10"
     gridtolerance="10"
     guidetolerance="10"
     inkscape:pageopacity="0"
     inkscape:pageshadow="2"
     inkscape:window-width="640"
     inkscape:window-height="480"
     id="namedview32"
     showgrid="false"
     inkscape:zoom="4.9166667"
     inkscape:cx="24"
     inkscape:cy="24"
     inkscape:window-x="0"
     inkscape:window-y="0"
     inkscape:window-maximized="0"
     inkscape:current-layer="svg2" />
  <defs
     id="defs4">
    <linearGradient
       x1="11.68966"
       y1="11.68967"
       x2="56.81644"
       y2="56.81644"
       gradientUnits="userSpaceOnUse"
       id="color-1">
      <stop
         offset="0"
         stop-color="#000000"
         stop-opacity="0.7"
         id="stop7" />
      <stop
         offset="1"
         stop-color="#000000"
         stop-opacity="0"
         id="stop9" />
    </linearGradient>
    <filter
       id="dropshadow">
      <feColorMatrix
         type="matrix"
         values="0 0 0 0 .05  0 0 0 0 .15  0 0 0 0 .1  0 0 0 .8 0"
         id="feColorMatrix12" />
      <feOffset
         dx="0"
         dy="1"
         id="feOffset14" />
      <feGaussianBlur
         stdDeviation="1"
         id="feGaussianBlur16"
         result="result1" />
      <feComposite
         in="SourceGraphic"
         id="feComposite18"
         in2="result1" />
    </filter>
  </defs>
  <g
     id="g3367">
    <g
       stroke-miterlimit="4"
       font-size="14"
       id="g22"
       style="font-size:14px;font-family:'Open Sans', sans-serif;fill:#000000" />
    <g
       stroke-miterlimit="4"
       font-size="14"
       id="g24"
       style="font-size:14px;font-family:'Open Sans', sans-serif;fill:#000000" />
    <path
       d="M 3,24 C 3,12.40202 12.40202,3 24,3 35.59798,3 45,12.40202 45,24 45,35.59798 35.59798,45 24,45 12.40202,45 3,35.59798 3,24 Z"
       stroke-miterlimit="10"
       id="path26"
       inkscape:connector-curvature="0"
       style="fill:#008fcc;stroke-miterlimit:10;filter:url(#dropshadow)" />
    <path
       d="M 27.32391,44.73842 15.29423,32.70874 c -2.22765,-2.22764 -3.60457,-5.30646 -3.60457,-8.70873 0,0 0,-10e-6 0,-10e-6 10e-6,-6.80146 5.50272,-12.31033 12.30418,-12.31033 3.40227,0 6.48264,1.37846 8.71182,3.60764 L 44.73757,27.32922 C 43.31463,36.26257 36.258,43.31771 27.32391,44.73842 Z"
       stroke-miterlimit="10"
       id="path28"
       style="fill:url(#color-1);stroke-miterlimit:10"
       inkscape:connector-curvature="0" />
    <path
       d="m 36.31034,24 c 0,6.80146 -5.51503,12.31034 -12.31649,12.31034 -6.80146,0 -12.30418,-5.50888 -12.30418,-12.31034 0,-6.80146 5.50272,-12.31034 12.30418,-12.31034 6.80146,0 12.31649,5.50888 12.31649,12.31034 z m -2.46207,0 c 0,-5.44117 -4.4071,-9.84827 -9.84827,-9.84827 -5.44117,0 -9.84827,4.4071 -9.84827,9.84827 0,5.44117 4.4071,9.84827 9.84827,9.84827 5.44117,0 9.84827,-4.4071 9.84827,-9.84827 z m -9.23275,0.30776 5.53965,3.28686 -0.92943,1.51417 -6.45677,-3.87776 0,-7.3862 1.84655,0 z"
       stroke-miterlimit="4"
       id="path30"
       inkscape:connector-curvature="0"
       style="fill:#ffffff;stroke-width:0" />
  </g>
</svg>
