<svg x="0" y="0" width="48" height="48" version="1.1" xmlns="http://www.w3.org/2000/svg" xmlns:xlink="http://www.w3.org/1999/xlink"><defs><linearGradient x1="11.68966" y1="11.68966" x2="57.52354" y2="57.52353" gradientUnits="userSpaceOnUse" id="color-1"><stop offset="0" stop-color="#000000" stop-opacity="0"></stop><stop offset="1" stop-color="#000000" stop-opacity="0"></stop></linearGradient><filter id="dropshadow"><feColorMatrix type="matrix" values="0 0 0 0 .05  0 0 0 0 .15  0 0 0 0 .1  0 0 0 .8 0"></feColorMatrix> <feOffset dx="0" dy="1"></feOffset> <feGaussianBlur stdDeviation="1"></feGaussianBlur> <feComposite in="SourceGraphic"></feComposite></filter></defs><g fill="none" stroke="none" stroke-width="none" stroke-linecap="butt" stroke-linejoin="miter" stroke-miterlimit="none" stroke-dasharray="" stroke-dashoffset="0" font-family="none" font-weight="normal" font-size="none" text-anchor="start" mix-blend-mode="normal"><g id="Capa_1" fill="#000000" stroke="none" stroke-width="1" stroke-miterlimit="4" font-family="&quot;Open Sans&quot;, sans-serif" font-size="14"><g></g><g></g><g></g><g></g><g></g><g></g><g></g><g></g><g></g><g></g><g></g><g></g><g></g><g></g><g></g></g><g id="Capa_1" fill="#000000" stroke="none" stroke-width="1" stroke-miterlimit="4" font-family="&quot;Open Sans&quot;, sans-serif" font-size="14"><g><g></g></g><g></g><g></g><g></g><g></g><g></g><g></g><g></g><g></g><g></g><g></g><g></g><g></g><g></g><g></g><g></g></g><g fill="#000000" stroke="none" stroke-width="1" stroke-miterlimit="4" font-family="&quot;Open Sans&quot;, sans-serif" font-size="14"></g><path d="M3,24c0,-11.59798 9.40202,-21 21,-21c11.59798,0 21,9.40202 21,21c0,11.59798 -9.40202,21 -21,21c-11.59798,0 -21,-9.40202 -21,-21z" fill="#aa00ff" stroke-width="1" stroke-miterlimit="10" font-family="sans-serif" font-size="12" filter="url(#dropshadow)"></path><path d="M22.63218,21.26436c0,0 0,-9.5747 0,-9.5747c0,0 2.73564,2.73564 2.73564,2.73564l0,-0.00001l-2.73563,-2.73563l2.73563,0l4.78736,4.78736l1.82603,-1.82603c0.24773,0.21179 0.4871,0.43316 0.71747,0.66353c0,0 12.03557,12.03557 12.03557,12.03557c-1.43034,8.92185 -8.48063,15.96617 -17.40546,17.38756l-12.03321,-12.03321c-2.22783,-2.22782 -3.6059,-5.30541 -3.6059,-8.70443c0,-3.74782 1.68926,-7.09212 4.32914,-9.34902z" fill="url(#color-1)" stroke-width="1" stroke-miterlimit="10" font-family="sans-serif" font-size="12"></path><path d="M36.31034,24c0,6.79804 -5.5123,12.31034 -12.31034,12.31034c-6.79804,0 -12.31034,-5.5123 -12.31034,-12.31034c0,-3.74781 1.68925,-7.09212 4.32914,-9.34902l1.93546,1.93546c-2.14747,1.75764 -3.52896,4.41804 -3.52896,7.41356c0,5.28661 4.2881,9.57471 9.57471,9.57471c5.28661,0 9.57471,-4.2881 9.57471,-9.57471c0,-2.99552 -1.38149,-5.65592 -3.52896,-7.41356l1.93546,-1.93546c2.63988,2.2569 4.32914,5.6012 4.32914,9.34902z M25.36782,25.36782l-2.73563,0l0,-13.67815l2.73563,0z" fill="#ffffff" stroke="none" stroke-width="0" stroke-miterlimit="4" font-family="&quot;Open Sans&quot;, sans-serif" font-size="14"></path></g></svg>