<?xml version="1.0" encoding="UTF-8" standalone="no"?>
<svg
   xmlns:dc="http://purl.org/dc/elements/1.1/"
   xmlns:cc="http://creativecommons.org/ns#"
   xmlns:rdf="http://www.w3.org/1999/02/22-rdf-syntax-ns#"
   xmlns:svg="http://www.w3.org/2000/svg"
   xmlns="http://www.w3.org/2000/svg"
   xmlns:sodipodi="http://sodipodi.sourceforge.net/DTD/sodipodi-0.dtd"
   xmlns:inkscape="http://www.inkscape.org/namespaces/inkscape"
   x="0"
   y="0"
   width="48"
   height="48"
   version="1.1"
   id="svg2"
   inkscape:version="0.91 r13725"
   sodipodi:docname="Shutdown.svg">
  <metadata
     id="metadata99">
    <rdf:RDF>
      <cc:Work
         rdf:about="">
        <dc:format>image/svg+xml</dc:format>
        <dc:type
           rdf:resource="http://purl.org/dc/dcmitype/StillImage" />
      </cc:Work>
    </rdf:RDF>
  </metadata>
  <sodipodi:namedview
     pagecolor="#ffffff"
     bordercolor="#666666"
     borderopacity="1"
     objecttolerance="10"
     gridtolerance="10"
     guidetolerance="10"
     inkscape:pageopacity="0"
     inkscape:pageshadow="2"
     inkscape:window-width="640"
     inkscape:window-height="480"
     id="namedview97"
     showgrid="false"
     inkscape:zoom="4.9166667"
     inkscape:cx="24"
     inkscape:cy="24"
     inkscape:window-x="0"
     inkscape:window-y="0"
     inkscape:window-maximized="0"
     inkscape:current-layer="svg2" />
  <defs
     id="defs4">
    <linearGradient
       x1="11.68966"
       y1="11.68966"
       x2="57.52354"
       y2="57.52353"
       gradientUnits="userSpaceOnUse"
       id="color-1">
      <stop
         offset="0"
         stop-color="#000000"
         stop-opacity="0.7"
         id="stop7" />
      <stop
         offset="1"
         stop-color="#000000"
         stop-opacity="0"
         id="stop9" />
    </linearGradient>
    <filter
       id="dropshadow">
      <feColorMatrix
         type="matrix"
         values="0 0 0 0 .05  0 0 0 0 .15  0 0 0 0 .1  0 0 0 .8 0"
         id="feColorMatrix12" />
      <feOffset
         dx="0"
         dy="1"
         id="feOffset14" />
      <feGaussianBlur
         stdDeviation="1"
         id="feGaussianBlur16"
         result="result1" />
      <feComposite
         in="SourceGraphic"
         id="feComposite18"
         in2="result1" />
    </filter>
  </defs>
  <g
     id="g3465">
    <g
       id="Capa_1"
       stroke-miterlimit="4"
       font-size="14"
       style="font-size:14px;font-family:'Open Sans', sans-serif;fill:#000000">
      <g
         id="g23" />
      <g
         id="g25" />
      <g
         id="g27" />
      <g
         id="g29" />
      <g
         id="g31" />
      <g
         id="g33" />
      <g
         id="g35" />
      <g
         id="g37" />
      <g
         id="g39" />
      <g
         id="g41" />
      <g
         id="g43" />
      <g
         id="g45" />
      <g
         id="g47" />
      <g
         id="g49" />
      <g
         id="g51" />
    </g>
    <g
       id="g53"
       stroke-miterlimit="4"
       font-size="14"
       style="font-size:14px;font-family:'Open Sans', sans-serif;fill:#000000">
      <g
         id="g55">
        <g
           id="g57" />
      </g>
      <g
         id="g59" />
      <g
         id="g61" />
      <g
         id="g63" />
      <g
         id="g65" />
      <g
         id="g67" />
      <g
         id="g69" />
      <g
         id="g71" />
      <g
         id="g73" />
      <g
         id="g75" />
      <g
         id="g77" />
      <g
         id="g79" />
      <g
         id="g81" />
      <g
         id="g83" />
      <g
         id="g85" />
      <g
         id="g87" />
    </g>
    <g
       stroke-miterlimit="4"
       font-size="14"
       id="g89"
       style="font-size:14px;font-family:'Open Sans', sans-serif;fill:#000000" />
    <path
       d="M 3,24 C 3,12.40202 12.40202,3 24,3 35.59798,3 45,12.40202 45,24 45,35.59798 35.59798,45 24,45 12.40202,45 3,35.59798 3,24 Z"
       stroke-miterlimit="10"
       id="path91"
       inkscape:connector-curvature="0"
       style="fill:#aa00ff;stroke-miterlimit:10;filter:url(#dropshadow)" />
    <path
       d="m 22.63218,21.26436 c 0,0 0,-9.5747 0,-9.5747 0,0 2.73564,2.73564 2.73564,2.73564 l 0,-10e-6 -2.73563,-2.73563 2.73563,0 4.78736,4.78736 1.82603,-1.82603 c 0.24773,0.21179 0.4871,0.43316 0.71747,0.66353 0,0 12.03557,12.03557 12.03557,12.03557 -1.43034,8.92185 -8.48063,15.96617 -17.40546,17.38756 L 15.29558,32.70444 c -2.22783,-2.22782 -3.6059,-5.30541 -3.6059,-8.70443 0,-3.74782 1.68926,-7.09212 4.32914,-9.34902 z"
       stroke-miterlimit="10"
       id="path93"
       style="fill:url(#color-1);stroke-miterlimit:10"
       inkscape:connector-curvature="0" />
    <path
       d="m 36.31034,24 c 0,6.79804 -5.5123,12.31034 -12.31034,12.31034 -6.79804,0 -12.31034,-5.5123 -12.31034,-12.31034 0,-3.74781 1.68925,-7.09212 4.32914,-9.34902 l 1.93546,1.93546 C 15.80679,18.34408 14.4253,21.00448 14.4253,24 c 0,5.28661 4.2881,9.57471 9.57471,9.57471 5.28661,0 9.57471,-4.2881 9.57471,-9.57471 0,-2.99552 -1.38149,-5.65592 -3.52896,-7.41356 l 1.93546,-1.93546 c 2.63988,2.2569 4.32914,5.6012 4.32914,9.34902 z m -10.94252,1.36782 -2.73563,0 0,-13.67815 2.73563,0 z"
       stroke-miterlimit="4"
       id="path95"
       inkscape:connector-curvature="0"
       style="fill:#ffffff;stroke-width:0" />
  </g>
</svg>
