<svg x="0" y="0" width="48" height="48" version="1.1" xmlns="http://www.w3.org/2000/svg" xmlns:xlink="http://www.w3.org/1999/xlink"><defs><linearGradient x1="11.68966" y1="11.68966" x2="57.52354" y2="57.52354" gradientUnits="userSpaceOnUse" id="color-1"><stop offset="0" stop-color="#000000" stop-opacity="0"></stop><stop offset="1" stop-color="#000000" stop-opacity="0"></stop></linearGradient><filter id="dropshadow"><feColorMatrix type="matrix" values="0 0 0 0 .05  0 0 0 0 .15  0 0 0 0 .1  0 0 0 .8 0"></feColorMatrix> <feOffset dx="0" dy="1"></feOffset> <feGaussianBlur stdDeviation="1"></feGaussianBlur> <feComposite in="SourceGraphic"></feComposite></filter></defs><g fill="none" stroke="none" stroke-width="none" stroke-linecap="butt" stroke-linejoin="miter" stroke-miterlimit="none" stroke-dasharray="" stroke-dashoffset="0" font-family="none" font-weight="normal" font-size="none" text-anchor="start" mix-blend-mode="normal"><g fill="#000000" stroke="none" stroke-width="1" stroke-miterlimit="4" font-family="&quot;Open Sans&quot;, sans-serif" font-size="14"></g><path d="M3,24c0,-11.59798 9.40202,-21 21,-21c11.59798,0 21,9.40202 21,21c0,11.59798 -9.40202,21 -21,21c-11.59798,0 -21,-9.40202 -21,-21z" fill="#d50000" stroke-width="1" stroke-miterlimit="10" font-family="sans-serif" font-size="12" filter="url(#dropshadow)"></path><path d="M28.17183,44.58562c0,0 -16.48217,-16.48217 -16.48217,-16.48217c0,0 0.00001,0 0.00001,0l-0.00001,-0.00001l0,-8.20689l6.46293,0c0,0 16.41379,16.41378 16.41379,16.41378c0,0 1.74395,-1.74396 1.74395,-1.74395l3.38542,3.38542c-2.96639,3.33478 -6.97951,5.71786 -11.52392,6.63382z M41.22865,36.01043c0,0 -14.49301,-14.49301 -14.49301,-14.49301c0,0 0,-0.00683 0,-0.00683l-2.73564,-2.73564l0,-0.00001l-2.85873,-2.85873l2.85873,-2.85873c0,0 9.46053,9.46053 9.46053,9.46053c-0.0661,-0.42477 -0.16017,-0.84027 -0.28026,-1.24457c0,0 -6.44464,-6.44464 -6.44464,-6.44464l0,-2.82454c2.30165,0.52298 4.35944,1.69066 5.97196,3.30318l0.00935,0.00935c-0.00311,-0.00312 -0.00622,-0.00623 -0.00934,-0.00935l12.02885,12.02885c-0.50885,3.1876 -1.73502,6.13588 -3.50779,8.67415z M34.64683,32.90286l-1.74396,1.74396l-21.2132,-21.2132l1.74396,-1.74396z" fill="url(#color-1)" stroke-width="1" stroke-miterlimit="10" font-family="sans-serif" font-size="12"></path><path d="M36.31034,34.56637l-1.74396,1.74396l-2.79034,-2.7835c-1.44305,1.18316 -3.15965,2.04488 -5.0404,2.47575l0,-2.82454c1.13529,-0.34195 2.16799,-0.9096 3.08442,-1.61402l-5.82005,-5.82005l0,9.19856l-6.83908,-6.83908l-5.47126,0l0,-8.20689l6.46293,0l-6.46293,-6.46293l1.74396,-1.74396z M33.57471,24c0,-4.33597 -2.88609,-7.99488 -6.83908,-9.1712l0,-2.82454c5.4781,1.24471 9.57471,6.14149 9.57471,11.99574c0,2.05172 -0.51293,3.98034 -1.40201,5.68327l-2.07224,-2.07224c0.45822,-1.11477 0.73862,-2.32529 0.73862,-3.61103z M30.15517,24c0,0.29408 -0.02052,0.58816 -0.06155,0.8754l-3.35799,-3.35799l0,-3.02287c2.02437,1.00534 3.41954,3.09126 3.41954,5.50546z M24,18.77495l-2.85873,-2.85873l2.85873,-2.85873z" fill="#ffffff" stroke="none" stroke-width="0" stroke-miterlimit="4" font-family="&quot;Open Sans&quot;, sans-serif" font-size="14"></path></g></svg>