<svg x="0" y="0" width="48" height="48" version="1.1" xmlns="http://www.w3.org/2000/svg" xmlns:xlink="http://www.w3.org/1999/xlink"><defs><linearGradient x1="11.68966" y1="12.00426" x2="57.52354" y2="57.20894" gradientUnits="userSpaceOnUse" id="color-1"><stop offset="0" stop-color="#000000" stop-opacity="0.7"></stop><stop offset="1" stop-color="#000000" stop-opacity="0"></stop></linearGradient><filter id="dropshadow"><feColorMatrix type="matrix" values="0 0 0 0 .05  0 0 0 0 .15  0 0 0 0 .1  0 0 0 .8 0"></feColorMatrix> <feOffset dx="0" dy="1"></feOffset> <feGaussianBlur stdDeviation="1"></feGaussianBlur> <feComposite in="SourceGraphic"></feComposite></filter></defs><g fill="none" stroke="none" stroke-width="none" stroke-linecap="butt" stroke-linejoin="miter" stroke-miterlimit="none" stroke-dasharray="" stroke-dashoffset="0" font-family="none" font-weight="normal" font-size="none" text-anchor="start" mix-blend-mode="normal"><g id="Capa_1" fill="#000000" stroke="none" stroke-width="1" stroke-miterlimit="4" font-family="&quot;Open Sans&quot;, sans-serif" font-size="14"><g></g><g></g><g></g><g></g><g></g><g></g><g></g><g></g><g></g><g></g><g></g><g></g><g></g><g></g><g></g></g><g fill="#000000" stroke="none" stroke-width="1" stroke-miterlimit="4" font-family="&quot;Open Sans&quot;, sans-serif" font-size="14"></g><path d="M3,24c0,-11.59798 9.40202,-21 21,-21c11.59798,0 21,9.40202 21,21c0,11.59798 -9.40202,21 -21,21c-11.59798,0 -21,-9.40202 -21,-21z" fill="#64dd17" stroke-width="1" stroke-miterlimit="10" font-family="sans-serif" font-size="12" filter="url(#dropshadow)"></path><path d="M17.16092,19.89655l0.00001,0.00001l6.83907,-6.83908l9.46053,9.46053c-0.0661,-0.42477 -0.16017,-0.84027 -0.28026,-1.24457l-6.44464,-6.44464l0,-2.82454c2.30281,0.52324 4.3615,1.69061 5.97439,3.3035c0,0 12.02671,12.02671 12.02671,12.02671c-1.37947,8.64633 -8.03661,15.53221 -16.5649,17.25115c0,0 -16.48217,-16.48217 -16.48217,-16.48217c0,0 0.00001,0 0.00001,0l-0.00001,-0.00001l0,-8.20689z" fill="url(#color-1)" stroke-width="1" stroke-miterlimit="10" font-family="sans-serif" font-size="12"></path><path d="M17.16092,19.89655l6.83908,-6.83908l0,21.88504l-6.83908,-6.83908l-5.47126,0l0,-8.20689z M36.31034,24c0,5.86109 -4.09661,10.75103 -9.57471,11.99574l0,-2.82454c3.95299,-1.17632 6.83908,-4.83523 6.83908,-9.1712c0,-4.33597 -2.88609,-7.99488 -6.83908,-9.1712l0,-2.82454c5.4781,1.24471 9.57471,6.13465 9.57471,11.99574z M26.73563,29.5123l0,-11.01775c2.02437,1.00534 3.41954,3.09126 3.41954,5.50546c0,2.41419 -1.39517,4.50011 -3.41954,5.5123z" fill="#ffffff" stroke="none" stroke-width="0" stroke-miterlimit="4" font-family="&quot;Open Sans&quot;, sans-serif" font-size="14"></path></g></svg>