<svg x="0" y="0" width="48" height="48" version="1.1" xmlns="http://www.w3.org/2000/svg" xmlns:xlink="http://www.w3.org/1999/xlink"><defs><linearGradient x1="19.90872" y1="11.68967" x2="49.30449" y2="57.52354" gradientUnits="userSpaceOnUse" id="color-1"><stop offset="0" stop-color="#000000" stop-opacity="0.7"></stop><stop offset="1" stop-color="#000000" stop-opacity="0"></stop></linearGradient><filter id="dropshadow"><feColorMatrix type="matrix" values="0 0 0 0 .05  0 0 0 0 .15  0 0 0 0 .1  0 0 0 .8 0"></feColorMatrix> <feOffset dx="0" dy="1"></feOffset> <feGaussianBlur stdDeviation="1"></feGaussianBlur> <feComposite in="SourceGraphic"></feComposite></filter></defs><g fill="none" stroke="none" stroke-width="none" stroke-linecap="butt" stroke-linejoin="miter" stroke-miterlimit="none" stroke-dasharray="" stroke-dashoffset="0" font-family="none" font-weight="normal" font-size="none" text-anchor="start" mix-blend-mode="normal"><g fill="#000000" stroke="none" stroke-width="1" stroke-miterlimit="4" font-family="&quot;Open Sans&quot;, sans-serif" font-size="14"><g><g></g></g></g><path d="M3,24c0,-11.59798 9.40202,-21 21,-21c11.59798,0 21,9.40202 21,21c0,11.59798 -9.40202,21 -21,21c-11.59798,0 -21,-9.40202 -21,-21z" fill="#00b8d4" stroke-width="1" stroke-miterlimit="10" font-family="sans-serif" font-size="12" filter="url(#dropshadow)"></path><path d="M25.93253,12.49665c-0.00146,-0.00147 -0.00293,-0.00294 -0.00439,-0.0044c0,0 18.03701,18.03701 18.03701,18.03701c-2.12065,6.48866 -7.31639,11.58634 -13.8653,13.57112l-8.99225,-8.99225c-0.74043,-0.74044 -1.19888,-1.76231 -1.19888,-2.89082c0,-1.20212 0.49641,-2.28319 1.3296,-3.03197l0,-14.73233c0,0 0,0 0,0c0.00001,-1.52607 1.22336,-2.76334 2.74943,-2.76334c0.75969,0 1.44431,0.30651 1.94039,0.80259z" fill="url(#color-1)" stroke-width="1" stroke-miterlimit="10" font-family="sans-serif" font-size="12"></path><path d="M28.09128,32.21731c0,2.26044 -1.8221,4.09303 -4.08262,4.09303c-2.2606,0 -4.09995,-1.83259 -4.09995,-4.09303c0,-1.20212 0.49641,-2.28318 1.3296,-3.03197l0,-14.73233c0,-1.52607 1.22337,-2.76335 2.74943,-2.76335c1.52632,0 2.7496,1.23728 2.7496,2.76335l0,14.73233c0.83319,0.74887 1.35393,1.82985 1.35393,3.03197z M23.98775,13.02276c-0.78095,0 -1.41633,0.64164 -1.41633,1.43025l0,9.52616l2.83284,0l0,-1.41642l-1.41642,0l0,-1.3331l1.41642,0l0,-1.41642l-1.41642,0l0,-1.3331l1.41642,0l0,-1.41642l-1.41642,0l0,-1.3331l1.41642,0l0,-1.27761c0,-0.78861 -0.63547,-1.43025 -1.4165,-1.43025z" fill="#ffffff" stroke="none" stroke-width="0" stroke-miterlimit="4" font-family="&quot;Open Sans&quot;, sans-serif" font-size="14"></path></g></svg>