<svg x="0" y="0" width="48" height="48" version="1.1" xmlns="http://www.w3.org/2000/svg" xmlns:xlink="http://www.w3.org/1999/xlink"><defs><linearGradient x1="14.42529" y1="11.68966" x2="54.78791" y2="57.52354" gradientUnits="userSpaceOnUse" id="color-1"><stop offset="0" stop-color="#000000" stop-opacity="0.7"></stop><stop offset="1" stop-color="#000000" stop-opacity="0"></stop></linearGradient><filter id="dropshadow"><feColorMatrix type="matrix" values="0 0 0 0 .05  0 0 0 0 .15  0 0 0 0 .1  0 0 0 .8 0"></feColorMatrix> <feOffset dx="0" dy="1"></feOffset> <feGaussianBlur stdDeviation="1"></feGaussianBlur> <feComposite in="SourceGraphic"></feComposite></filter></defs><g fill="none" stroke="none" stroke-width="none" stroke-linecap="butt" stroke-linejoin="miter" stroke-miterlimit="none" stroke-dasharray="" stroke-dashoffset="0" font-family="none" font-weight="normal" font-size="none" text-anchor="start" mix-blend-mode="normal"><g fill="#000000" stroke="none" stroke-width="1" stroke-miterlimit="4" font-family="&quot;Open Sans&quot;, sans-serif" font-size="14"></g><path d="M5,45c-1.10457,0 -2,-0.89543 -2,-2l0,-38c0,-1.10457 0.89543,-2 2,-2l38,0c1.10457,0 2,0.89543 2,2l0,38c0,1.10457 -0.89543,2 -2,2z" fill="#d50000" stroke-width="1" stroke-miterlimit="10" font-family="sans-serif" font-size="12" filter="url(#dropshadow)"></path><path d="M18.52874,36.31034l0.00001,0l-2.73564,-2.73564l0,-16.41377l-1.36782,-1.36782l0,-2.73563c0,0 2.73563,2.73563 2.73563,2.73563l0.00001,0c0,0 -2.73563,-2.73563 -2.73563,-2.73563l4.78734,0l1.36782,-1.36782l6.83908,0c0,0 1.36782,1.36782 1.36782,1.36782l4.78735,0l11.42529,11.42529l0,18.51723c0,1.10457 -0.89543,2 -2,2l-16.91005,0l-9.49325,-9.49325c-0.49583,-0.49583 -0.80359,-1.17974 -0.80359,-1.93204z" fill="url(#color-1)" stroke-width="1" stroke-miterlimit="10" font-family="sans-serif" font-size="12"></path><path d="M15.79311,17.16092l16.41378,0l0,16.41378c0,1.5046 -1.23103,2.73563 -2.73563,2.73563l-10.94252,0c-1.5046,0 -2.73563,-1.23103 -2.73563,-2.73563z M22.06454,26.73563l-2.89977,2.89977l1.93546,1.93546l2.89977,-2.89977l2.89977,2.89977l1.93546,-1.93546l-2.89977,-2.89977l2.89977,-2.89977l-1.93546,-1.93546l-2.89977,2.89977l-2.89977,-2.89977l-1.93546,1.93546z M33.57471,13.05748l0,2.73563l-19.14941,0l0,-2.73563l4.78735,0l1.36782,-1.36782l6.83908,0l1.36782,1.36782z" fill="#ffffff" stroke="none" stroke-width="0" stroke-miterlimit="4" font-family="&quot;Open Sans&quot;, sans-serif" font-size="14"></path></g></svg>