<svg x="0" y="0" width="48" height="48" version="1.1" xmlns="http://www.w3.org/2000/svg" xmlns:xlink="http://www.w3.org/1999/xlink"><defs><linearGradient x1="12.01895" y1="11.68966" x2="57.19425" y2="57.52354" gradientUnits="userSpaceOnUse" id="color-1"><stop offset="0" stop-color="#000000" stop-opacity="0"></stop><stop offset="1" stop-color="#000000" stop-opacity="0"></stop></linearGradient><filter id="dropshadow"><feColorMatrix type="matrix" values="0 0 0 0 .05  0 0 0 0 .15  0 0 0 0 .1  0 0 0 .8 0"></feColorMatrix> <feOffset dx="0" dy="1"></feOffset> <feGaussianBlur stdDeviation="1"></feGaussianBlur> <feComposite in="SourceGraphic"></feComposite></filter></defs><g fill="none" stroke="none" stroke-width="none" stroke-linecap="butt" stroke-linejoin="miter" stroke-miterlimit="none" stroke-dasharray="" stroke-dashoffset="0" font-family="none" font-weight="normal" font-size="none" text-anchor="start" mix-blend-mode="normal"><g id="Capa_1" fill="#000000" stroke="none" stroke-width="1" stroke-miterlimit="4" font-family="&quot;Open Sans&quot;, sans-serif" font-size="14"><g><g></g></g><g></g><g></g><g></g><g></g><g></g><g></g><g></g><g></g><g></g><g></g><g></g><g></g><g></g><g></g><g></g></g><g id="Capa_1" fill="#000000" stroke="none" stroke-width="1" stroke-miterlimit="4" font-family="&quot;Open Sans&quot;, sans-serif" font-size="14"><g><g></g></g><g></g><g></g><g></g><g></g><g></g><g></g><g></g><g></g><g></g><g></g><g></g><g></g><g></g><g></g><g></g></g><g id="Capa_1" fill="#000000" stroke="none" stroke-width="1" stroke-miterlimit="4" font-family="&quot;Open Sans&quot;, sans-serif" font-size="14"><g><g></g></g><g></g><g></g><g></g><g></g><g></g><g></g><g></g><g></g><g></g><g></g><g></g><g></g><g></g><g></g><g></g></g><path d="M3,24c0,-11.59798 9.40202,-21 21,-21c11.59798,0 21,9.40202 21,21c0,11.59798 -9.40202,21 -21,21c-11.59798,0 -21,-9.40202 -21,-21z" fill="#64dd17" stroke-width="1" stroke-miterlimit="10" font-family="sans-serif" font-size="12" filter="url(#dropshadow)"></path><path d="M17.49021,19.5926c-0.55726,-0.55726 -0.55726,-1.36782 0,-1.92507l5.57258,-5.57258c0,0 7.49765,7.49765 7.49765,7.49765c0,0 0,0 0.00001,0l-7.49765,-7.49765c0.2533,-0.2533 0.60792,-0.40528 0.96254,-0.40528c0.35462,0 0.70924,0.15198 0.96254,0.40528l18.84005,18.84005c-2.86442,8.19029 -10.66011,14.06501 -19.82792,14.06501c-0.89145,0 -1.76993,-0.05555 -2.63217,-0.16337l-8.95022,-8.95022c-0.2448,-0.2448 -0.39866,-0.57659 -0.39866,-0.94389l0,-7.44699c0,-0.7599 0.65858,-1.36782 1.41848,-1.36782c0.37995,0 0.7219,0.15198 0.96887,0.39895c0,0 6.99739,6.99739 6.99739,6.99739c0,0 5.95253,0 5.95253,0l-4.29976,-4.29976c-0.24697,-0.24697 -0.39895,-0.58892 -0.39895,-0.96887l0,-3.49552c0,0 -5.1673,-5.1673 -5.1673,-5.1673z" fill="url(#color-1)" stroke-width="1" stroke-miterlimit="10" font-family="sans-serif" font-size="12"></path><path d="M19.41529,19.5926c-0.55726,0.55726 -1.36782,0.55726 -1.92507,0c-0.55726,-0.55726 -0.55726,-1.36782 0,-1.92507l5.57258,-5.57258c0.2533,-0.2533 0.60792,-0.40528 0.96254,-0.40528c0.35462,0 0.70924,0.15198 0.96254,0.40528l5.57258,5.57258c0.55726,0.55726 0.55726,1.36782 0,1.92507c-0.2533,0.2533 -0.60792,0.40528 -0.96254,0.40528c-0.35462,0 -0.7599,-0.15198 -1.0132,-0.40528l-3.19157,-3.19157l0,11.8544c0,0.7599 -0.60792,1.36782 -1.36782,1.36782c-0.7599,0 -1.36782,-0.60792 -1.36782,-1.36782l0,-11.8544z M34.61323,26.12771c0.7599,0 1.36782,0.60792 1.36782,1.36782l0,7.44699c0,0.7599 -0.60792,1.36782 -1.36782,1.36782l-21.17581,0c-0.7599,0 -1.41848,-0.60792 -1.41848,-1.36782l0,-7.44699c0,-0.7599 0.65858,-1.36782 1.41848,-1.36782c0.7599,0 1.36782,0.60792 1.36782,1.36782l0,6.02852l18.44018,0l0,-6.02852c0,-0.7599 0.60792,-1.36782 1.36782,-1.36782z" fill="#ffffff" stroke-width="0" stroke-miterlimit="10" font-family="sans-serif" font-size="12"></path></g></svg>