<?xml version="1.0" encoding="UTF-8" standalone="no"?>
<svg
   xmlns:dc="http://purl.org/dc/elements/1.1/"
   xmlns:cc="http://creativecommons.org/ns#"
   xmlns:rdf="http://www.w3.org/1999/02/22-rdf-syntax-ns#"
   xmlns:svg="http://www.w3.org/2000/svg"
   xmlns="http://www.w3.org/2000/svg"
   xmlns:sodipodi="http://sodipodi.sourceforge.net/DTD/sodipodi-0.dtd"
   xmlns:inkscape="http://www.inkscape.org/namespaces/inkscape"
   x="0"
   y="0"
   width="48"
   height="48"
   version="1.1"
   id="svg2"
   inkscape:version="0.91 r13725"
   sodipodi:docname="Upload Pressed.svg">
  <metadata
     id="metadata137">
    <rdf:RDF>
      <cc:Work
         rdf:about="">
        <dc:format>image/svg+xml</dc:format>
        <dc:type
           rdf:resource="http://purl.org/dc/dcmitype/StillImage" />
      </cc:Work>
    </rdf:RDF>
  </metadata>
  <sodipodi:namedview
     pagecolor="#ffffff"
     bordercolor="#666666"
     borderopacity="1"
     objecttolerance="10"
     gridtolerance="10"
     guidetolerance="10"
     inkscape:pageopacity="0"
     inkscape:pageshadow="2"
     inkscape:window-width="640"
     inkscape:window-height="480"
     id="namedview135"
     showgrid="false"
     inkscape:zoom="4.9166667"
     inkscape:cx="24"
     inkscape:cy="24"
     inkscape:window-x="0"
     inkscape:window-y="0"
     inkscape:window-maximized="0"
     inkscape:current-layer="svg2" />
  <defs
     id="defs4">
    <linearGradient
       x1="12.01895"
       y1="11.68966"
       x2="57.19425"
       y2="57.52354"
       gradientUnits="userSpaceOnUse"
       id="color-1">
      <stop
         offset="0"
         stop-color="#000000"
         stop-opacity="0"
         id="stop7" />
      <stop
         offset="1"
         stop-color="#000000"
         stop-opacity="0"
         id="stop9" />
    </linearGradient>
    <filter
       id="dropshadow">
      <feColorMatrix
         type="matrix"
         values="0 0 0 0 .05  0 0 0 0 .15  0 0 0 0 .1  0 0 0 .8 0"
         id="feColorMatrix12" />
      <feOffset
         dx="0"
         dy="1"
         id="feOffset14" />
      <feGaussianBlur
         stdDeviation="1"
         id="feGaussianBlur16"
         result="result1" />
      <feComposite
         in="SourceGraphic"
         id="feComposite18"
         in2="result1" />
    </filter>
  </defs>
  <g
     id="g3522">
    <g
       id="Capa_1"
       stroke-miterlimit="4"
       font-size="14"
       style="font-size:14px;font-family:'Open Sans', sans-serif;fill:#000000">
      <g
         id="g23">
        <g
           id="g25" />
      </g>
      <g
         id="g27" />
      <g
         id="g29" />
      <g
         id="g31" />
      <g
         id="g33" />
      <g
         id="g35" />
      <g
         id="g37" />
      <g
         id="g39" />
      <g
         id="g41" />
      <g
         id="g43" />
      <g
         id="g45" />
      <g
         id="g47" />
      <g
         id="g49" />
      <g
         id="g51" />
      <g
         id="g53" />
      <g
         id="g55" />
    </g>
    <g
       id="g57"
       stroke-miterlimit="4"
       font-size="14"
       style="font-size:14px;font-family:'Open Sans', sans-serif;fill:#000000">
      <g
         id="g59">
        <g
           id="g61" />
      </g>
      <g
         id="g63" />
      <g
         id="g65" />
      <g
         id="g67" />
      <g
         id="g69" />
      <g
         id="g71" />
      <g
         id="g73" />
      <g
         id="g75" />
      <g
         id="g77" />
      <g
         id="g79" />
      <g
         id="g81" />
      <g
         id="g83" />
      <g
         id="g85" />
      <g
         id="g87" />
      <g
         id="g89" />
      <g
         id="g91" />
    </g>
    <g
       id="g93"
       stroke-miterlimit="4"
       font-size="14"
       style="font-size:14px;font-family:'Open Sans', sans-serif;fill:#000000">
      <g
         id="g95">
        <g
           id="g97" />
      </g>
      <g
         id="g99" />
      <g
         id="g101" />
      <g
         id="g103" />
      <g
         id="g105" />
      <g
         id="g107" />
      <g
         id="g109" />
      <g
         id="g111" />
      <g
         id="g113" />
      <g
         id="g115" />
      <g
         id="g117" />
      <g
         id="g119" />
      <g
         id="g121" />
      <g
         id="g123" />
      <g
         id="g125" />
      <g
         id="g127" />
    </g>
    <path
       d="M 3,24 C 3,12.40202 12.40202,3 24,3 35.59798,3 45,12.40202 45,24 45,35.59798 35.59798,45 24,45 12.40202,45 3,35.59798 3,24 Z"
       stroke-miterlimit="10"
       id="path129"
       inkscape:connector-curvature="0"
       style="fill:#64dd17;stroke-miterlimit:10;filter:url(#dropshadow)" />
    <path
       d="m 19.41529,19.5926 c -0.55726,0.55726 -1.36782,0.55726 -1.92507,0 -0.55726,-0.55726 -0.55726,-1.36782 0,-1.92507 l 5.57258,-5.57258 c 0.2533,-0.2533 0.60792,-0.40528 0.96254,-0.40528 0.35462,0 0.70924,0.15198 0.96254,0.40528 l 5.57258,5.57258 c 0.55726,0.55726 0.55726,1.36782 0,1.92507 -0.2533,0.2533 -0.60792,0.40528 -0.96254,0.40528 -0.35462,0 -0.7599,-0.15198 -1.0132,-0.40528 l -3.19157,-3.19157 0,11.8544 c 0,0.7599 -0.60792,1.36782 -1.36782,1.36782 -0.7599,0 -1.36782,-0.60792 -1.36782,-1.36782 l 0,-11.8544 z m 15.19794,6.53511 c 0.7599,0 1.36782,0.60792 1.36782,1.36782 l 0,7.44699 c 0,0.7599 -0.60792,1.36782 -1.36782,1.36782 l -21.17581,0 c -0.7599,0 -1.41848,-0.60792 -1.41848,-1.36782 l 0,-7.44699 c 0,-0.7599 0.65858,-1.36782 1.41848,-1.36782 0.7599,0 1.36782,0.60792 1.36782,1.36782 l 0,6.02852 18.44018,0 0,-6.02852 c 0,-0.7599 0.60792,-1.36782 1.36782,-1.36782 z"
       stroke-miterlimit="10"
       id="path133"
       inkscape:connector-curvature="0"
       style="fill:#ffffff;stroke-width:0;stroke-miterlimit:10" />
  </g>
</svg>
