<svg x="0" y="0" width="48" height="48" version="1.1" xmlns="http://www.w3.org/2000/svg" xmlns:xlink="http://www.w3.org/1999/xlink"><defs><linearGradient x1="18.33724" y1="11.68966" x2="50.87596" y2="57.52354" gradientUnits="userSpaceOnUse" id="color-1"><stop offset="0" stop-color="#000000" stop-opacity="0"></stop><stop offset="1" stop-color="#000000" stop-opacity="0"></stop></linearGradient><filter id="dropshadow"><feColorMatrix type="matrix" values="0 0 0 0 .05  0 0 0 0 .15  0 0 0 0 .1  0 0 0 .8 0"></feColorMatrix> <feOffset dx="0" dy="1"></feOffset> <feGaussianBlur stdDeviation="1"></feGaussianBlur> <feComposite in="SourceGraphic"></feComposite></filter></defs><g fill="none" stroke="none" stroke-width="none" stroke-linecap="butt" stroke-linejoin="miter" stroke-miterlimit="none" stroke-dasharray="" stroke-dashoffset="0" font-family="none" font-weight="normal" font-size="none" text-anchor="start" mix-blend-mode="normal"><g id="Capa_1" fill="#000000" stroke="none" stroke-width="1" stroke-miterlimit="4" font-family="&quot;Open Sans&quot;, sans-serif" font-size="14"><g><g></g></g><g></g><g></g><g></g><g></g><g></g><g></g><g></g><g></g><g></g><g></g><g></g><g></g><g></g><g></g><g></g></g><g id="Capa_1" fill="#000000" stroke="none" stroke-width="1" stroke-miterlimit="4" font-family="&quot;Open Sans&quot;, sans-serif" font-size="14"><g><g></g></g><g></g><g></g><g></g><g></g><g></g><g></g><g></g><g></g><g></g><g></g><g></g><g></g><g></g><g></g><g></g></g><path d="M3,24c0,-11.59798 9.40202,-21 21,-21c11.59798,0 21,9.40202 21,21c0,11.59798 -9.40202,21 -21,21c-11.59798,0 -21,-9.40202 -21,-21z" fill="#2c9191" stroke-width="1" stroke-miterlimit="10" font-family="sans-serif" font-size="12" filter="url(#dropshadow)"></path><path d="M20.70355,35.8941c-0.53599,-0.53599 -0.70882,-1.67884 -0.13075,-3.9207c0,0 0,0 0,0l0.907,-3.80391l-2.49258,-2.49258c0,0 0,0 0.00001,0l-0.00001,-0.00001l-0.64999,-1.08454c3.16696,-2.69005 6.81057,-4.26775 8.37201,-4.26775c0,0 0.00001,0.00001 0.00001,0.00001c0.33471,0 0.59771,0.10363 0.79266,0.29858l14.38501,14.38501c-2.82553,4.58135 -7.36193,7.9953 -12.71832,9.35095l-8.46507,-8.46507c0.00099,0.00099 0.00198,0.00198 0.00297,0.00296z M42.23595,34.42117l-17.8764,-17.8764c-0.42179,-0.42179 -0.64108,-1.03639 -0.6193,-1.80288c0,-1.28545 1.08454,-3.05223 3.25411,-3.05223l2.47195,2.47195c0,0 0,-0.00001 0,-0.00001l-2.47194,-2.47194c0.79111,0 1.39235,0.25893 1.80378,0.67035l15.79155,15.79155c-0.449,2.23911 -1.25411,4.34951 -2.35375,6.26961z" fill="url(#color-1)" stroke-width="1" stroke-miterlimit="10" font-family="sans-serif" font-size="12"></path><path d="M21.91783,36.31034c-1.3017,0 -2.25624,-0.80313 -1.34503,-4.33693l1.49447,-6.26769c0.26024,-1.00378 0.30283,-1.4051 0,-1.4051c-0.39098,0 -2.08069,0.69332 -3.08005,1.3763l-0.64999,-1.08454c3.16696,-2.69005 6.81057,-4.26775 8.37201,-4.26775c1.3012,0 1.5186,1.56612 0.86788,3.97575l-1.71089,6.58849c-0.30382,1.16431 -0.17308,1.56563 0.12975,1.56563c0.39048,0 1.67101,-0.4833 2.92888,-1.48733l0.73788,1.00428c-3.08054,3.13249 -6.44323,4.3389 -7.74493,4.3389z M26.99437,11.68966c1.6486,0 2.47265,1.12443 2.47265,2.41012c0,1.60576 -1.43145,3.09113 -3.29695,3.09113c-1.56194,0 -2.47315,-0.92377 -2.42981,-2.44902c0,-1.28545 1.08454,-3.05223 3.25411,-3.05223z" fill="#ffffff" stroke="none" stroke-width="0" stroke-miterlimit="4" font-family="&quot;Open Sans&quot;, sans-serif" font-size="14"></path></g></svg>