<?xml version="1.0" encoding="UTF-8" standalone="no"?>
<svg
   xmlns:dc="http://purl.org/dc/elements/1.1/"
   xmlns:cc="http://creativecommons.org/ns#"
   xmlns:rdf="http://www.w3.org/1999/02/22-rdf-syntax-ns#"
   xmlns:svg="http://www.w3.org/2000/svg"
   xmlns="http://www.w3.org/2000/svg"
   xmlns:sodipodi="http://sodipodi.sourceforge.net/DTD/sodipodi-0.dtd"
   xmlns:inkscape="http://www.inkscape.org/namespaces/inkscape"
   x="0"
   y="0"
   width="48"
   height="48"
   version="1.1"
   id="svg2"
   inkscape:version="0.91 r13725"
   sodipodi:docname="Oven.svg">
  <metadata
     id="metadata167">
    <rdf:RDF>
      <cc:Work
         rdf:about="">
        <dc:format>image/svg+xml</dc:format>
        <dc:type
           rdf:resource="http://purl.org/dc/dcmitype/StillImage" />
      </cc:Work>
    </rdf:RDF>
  </metadata>
  <sodipodi:namedview
     pagecolor="#ffffff"
     bordercolor="#666666"
     borderopacity="1"
     objecttolerance="10"
     gridtolerance="10"
     guidetolerance="10"
     inkscape:pageopacity="0"
     inkscape:pageshadow="2"
     inkscape:window-width="1440"
     inkscape:window-height="848"
     id="namedview165"
     showgrid="false"
     inkscape:zoom="4.9166667"
     inkscape:cx="24"
     inkscape:cy="17.569658"
     inkscape:window-x="-8"
     inkscape:window-y="-8"
     inkscape:window-maximized="1"
     inkscape:current-layer="svg2" />
  <defs
     id="defs4">
    <linearGradient
       x1="11.68966"
       y1="16.36918"
       x2="57.52354"
       y2="52.84402"
       gradientUnits="userSpaceOnUse"
       id="color-1">
      <stop
         offset="0"
         stop-color="#000000"
         stop-opacity="0.7"
         id="stop7" />
      <stop
         offset="1"
         stop-color="#000000"
         stop-opacity="0"
         id="stop9" />
    </linearGradient>
    <filter
       id="dropshadow">
      <feColorMatrix
         type="matrix"
         values="0 0 0 0 .05  0 0 0 0 .15  0 0 0 0 .1  0 0 0 .8 0"
         id="feColorMatrix12" />
      <feOffset
         dx="0"
         dy="1"
         id="feOffset14" />
      <feGaussianBlur
         stdDeviation="1"
         id="feGaussianBlur16"
         result="result1" />
      <feComposite
         in="SourceGraphic"
         id="feComposite18"
         in2="result1" />
    </filter>
  </defs>
  <g
     style="font-size:14px;font-family:'Open Sans', sans-serif;fill:#000000"
     font-size="14"
     stroke-miterlimit="4"
     id="Capa_1">
    <g
       id="g23">
      <g
         id="g25" />
    </g>
    <g
       id="g27" />
    <g
       id="g29" />
    <g
       id="g31" />
    <g
       id="g33" />
    <g
       id="g35" />
    <g
       id="g37" />
    <g
       id="g39" />
    <g
       id="g41" />
    <g
       id="g43" />
    <g
       id="g45" />
    <g
       id="g47" />
    <g
       id="g49" />
    <g
       id="g51" />
    <g
       id="g53" />
    <g
       id="g55" />
  </g>
  <g
     style="font-size:14px;font-family:'Open Sans', sans-serif;fill:#000000"
     font-size="14"
     stroke-miterlimit="4"
     id="g57">
    <g
       id="g59">
      <g
         id="g61" />
    </g>
    <g
       id="g63" />
    <g
       id="g65" />
    <g
       id="g67" />
    <g
       id="g69" />
    <g
       id="g71" />
    <g
       id="g73" />
    <g
       id="g75" />
    <g
       id="g77" />
    <g
       id="g79" />
    <g
       id="g81" />
    <g
       id="g83" />
    <g
       id="g85" />
    <g
       id="g87" />
    <g
       id="g89" />
    <g
       id="g91" />
  </g>
  <g
     style="font-size:14px;font-family:'Open Sans', sans-serif;fill:#000000"
     font-size="14"
     stroke-miterlimit="4"
     id="g93">
    <g
       id="g95" />
    <g
       id="g97" />
    <g
       id="g99" />
    <g
       id="g101" />
    <g
       id="g103" />
    <g
       id="g105" />
    <g
       id="g107" />
    <g
       id="g109" />
    <g
       id="g111" />
    <g
       id="g113" />
    <g
       id="g115" />
    <g
       id="g117" />
    <g
       id="g119" />
    <g
       id="g121" />
    <g
       id="g123" />
  </g>
  <g
     style="font-size:14px;font-family:'Open Sans', sans-serif;fill:#000000"
     font-size="14"
     stroke-miterlimit="4"
     id="g125">
    <g
       id="g127" />
    <g
       id="g129" />
    <g
       id="g131" />
    <g
       id="g133" />
    <g
       id="g135" />
    <g
       id="g137" />
    <g
       id="g139" />
    <g
       id="g141" />
    <g
       id="g143" />
    <g
       id="g145" />
    <g
       id="g147" />
    <g
       id="g149" />
    <g
       id="g151" />
    <g
       id="g153" />
    <g
       id="g155" />
    <g
       id="g157" />
  </g>
  <g
     id="g3416">
    <path
       d="M 3,24 C 3,12.40202 12.40202,3 24,3 35.59798,3 45,12.40202 45,24 45,35.59798 35.59798,45 24,45 12.40202,45 3,35.59798 3,24 Z"
       stroke-miterlimit="10"
       id="path159"
       inkscape:connector-curvature="0"
       style="fill:#18ad00;stroke-miterlimit:10;filter:url(#dropshadow)" />
    <path
       d="M 25.7221,44.9304 12.05609,31.26439 C 11.82981,31.03811 11.68966,30.7257 11.68966,30.38117 l 0,-12.76234 c 0,-0.68906 0.56059,-1.24965 1.24965,-1.24965 0,0 10e-6,10e-6 10e-6,10e-6 l 22.12137,0 c 0.34453,0 0.65694,0.14015 0.88322,0.36643 l 0.003,0.003 c -9.9e-4,-0.001 -0.002,-0.002 -0.003,-0.003 L 44.9304,25.7221 C 44.10053,35.94661 35.94661,44.10053 25.7221,44.9304 Z"
       stroke-miterlimit="10"
       id="path161"
       style="fill:url(#color-1);stroke-miterlimit:10"
       inkscape:connector-curvature="0" />
    <path
       d="m 36.31034,17.61883 0,12.76234 c 0,0.68906 -0.56059,1.24965 -1.24965,1.24965 l -22.12138,0 c -0.68906,0 -1.24965,-0.56059 -1.24965,-1.24965 l 0,-12.76234 c 0,-0.68906 0.56059,-1.24965 1.24965,-1.24965 l 22.12138,0 c 0.68906,0 1.24965,0.56059 1.24965,1.24965 z m -23.37103,13.21434 17.46845,0 0,-13.66634 -17.46845,0 c -0.24924,0 -0.452,0.20276 -0.452,0.452 l 0,12.76234 c 0,0.24924 0.20276,0.452 0.452,0.452 z m 14.8628,-11.9381 0,10.20987 c 0,0.22026 -0.17857,0.39882 -0.39882,0.39882 l -13.18775,0 c -0.22026,0 -0.39882,-0.17857 -0.39882,-0.39882 l 0,-10.20987 c 0,-0.22026 0.17857,-0.39882 0.39882,-0.39882 l 13.18775,0 c 0.22026,0 0.39882,0.17857 0.39882,0.39882 z m -0.79764,0.39882 -12.3901,0 0,9.41222 12.3901,0 z m 8.50822,-1.67506 c 0,-0.24924 -0.20276,-0.452 -0.452,-0.452 l -3.85529,0 0,13.66634 3.85529,0 c 0.24924,0 0.452,-0.20276 0.452,-0.452 z m -0.47859,6.80658 c 0,0.92362 -0.75144,1.67506 -1.67506,1.67506 -0.92362,0 -1.67506,-0.75144 -1.67506,-1.67506 0,-0.92362 0.75144,-1.67506 1.67506,-1.67506 0.92362,0 1.67506,0.75144 1.67506,1.67506 z m 0,3.8287 c 0,0.92362 -0.75144,1.67506 -1.67506,1.67506 -0.92362,0 -1.67506,-0.75144 -1.67506,-1.67506 0,-0.92362 0.75144,-1.67506 1.67506,-1.67506 0.92362,0 1.67506,0.75144 1.67506,1.67506 z m -5.53034,-9.35904 0,10.20987 c 0,0.22026 -0.17857,0.39882 -0.39882,0.39882 -0.22026,0 -0.39882,-0.17857 -0.39882,-0.39882 l 0,-10.20987 c 0,-0.22026 0.17857,-0.39882 0.39882,-0.39882 0.22026,0 0.39882,0.17857 0.39882,0.39882 z m 2.60564,1.27623 c 0,-0.22026 0.17857,-0.39882 0.39882,-0.39882 l 1.70164,0 c 0.22026,0 0.39882,0.17857 0.39882,0.39882 0,0.22026 -0.17857,0.39882 -0.39882,0.39882 l -1.70164,0 c -0.22026,0 -0.39882,-0.17857 -0.39882,-0.39882 z m 0,-1.27623 c 0,-0.22026 0.17857,-0.39882 0.39882,-0.39882 l 1.70164,0 c 0.22026,0 0.39882,0.17857 0.39882,0.39882 0,0.22026 -0.17857,0.39882 -0.39882,0.39882 l -1.70164,0 c -0.22026,0 -0.39882,-0.17857 -0.39882,-0.39882 z m 0,2.55246 c 0,-0.22026 0.17857,-0.39882 0.39882,-0.39882 l 1.70164,0 c 0.22026,0 0.39882,0.17857 0.39882,0.39882 0,0.22026 -0.17857,0.39882 -0.39882,0.39882 l -1.70164,0 c -0.22026,0 -0.39882,-0.17857 -0.39882,-0.39882 z m 1.24965,5.92917 c -0.09439,0 -0.18511,0.01537 -0.27035,0.04307 l 1.10469,1.10469 c 0.0277,-0.08524 0.04307,-0.17601 0.04307,-0.27035 0,-0.4838 -0.39361,-0.87741 -0.87741,-0.87741 z m 0,1.75482 c 0.09439,0 0.18511,-0.01537 0.27035,-0.04307 l -1.10469,-1.10469 c -0.0277,0.08524 -0.04307,0.17601 -0.04307,0.27035 0,0.4838 0.39361,0.87741 0.87741,0.87741 z m 0,-5.58352 c -0.09439,0 -0.18511,0.01537 -0.27035,0.04307 l 1.10469,1.10463 c 0.0277,-0.08524 0.04307,-0.17596 0.04307,-0.2703 0,-0.4838 -0.39361,-0.87741 -0.87741,-0.87741 z m 0,1.75482 c 0.09439,0 0.18511,-0.01537 0.27035,-0.04307 l -1.10469,-1.10463 c -0.0277,0.08524 -0.04307,0.17596 -0.04307,0.2703 0,0.4838 0.39361,0.87741 0.87741,0.87741 z"
       stroke-miterlimit="10"
       id="path163"
       inkscape:connector-curvature="0"
       style="fill:#ffffff;stroke-width:0;stroke-miterlimit:10" />
  </g>
</svg>
