<svg x="0" y="0" width="48" height="48" version="1.1" xmlns="http://www.w3.org/2000/svg" xmlns:xlink="http://www.w3.org/1999/xlink"><defs><linearGradient x1="11.68966" y1="16.36918" x2="57.52354" y2="52.84402" gradientUnits="userSpaceOnUse" id="color-1"><stop offset="0" stop-color="#000000" stop-opacity="0.7"></stop><stop offset="1" stop-color="#000000" stop-opacity="0"></stop></linearGradient><filter id="dropshadow"><feColorMatrix type="matrix" values="0 0 0 0 .05  0 0 0 0 .15  0 0 0 0 .1  0 0 0 .8 0"></feColorMatrix> <feOffset dx="0" dy="1"></feOffset> <feGaussianBlur stdDeviation="1"></feGaussianBlur> <feComposite in="SourceGraphic"></feComposite></filter></defs><g fill="none" stroke="none" stroke-width="none" stroke-linecap="butt" stroke-linejoin="miter" stroke-miterlimit="none" stroke-dasharray="" stroke-dashoffset="0" font-family="none" font-weight="normal" font-size="none" text-anchor="start" mix-blend-mode="normal"><g id="Capa_1" fill="#000000" stroke="none" stroke-width="1" stroke-miterlimit="4" font-family="&quot;Open Sans&quot;, sans-serif" font-size="14"><g><g></g></g><g></g><g></g><g></g><g></g><g></g><g></g><g></g><g></g><g></g><g></g><g></g><g></g><g></g><g></g><g></g></g><g id="Capa_1" fill="#000000" stroke="none" stroke-width="1" stroke-miterlimit="4" font-family="&quot;Open Sans&quot;, sans-serif" font-size="14"><g><g></g></g><g></g><g></g><g></g><g></g><g></g><g></g><g></g><g></g><g></g><g></g><g></g><g></g><g></g><g></g><g></g></g><g id="Capa_1" fill="#000000" stroke="none" stroke-width="1" stroke-miterlimit="4" font-family="&quot;Open Sans&quot;, sans-serif" font-size="14"><g></g><g></g><g></g><g></g><g></g><g></g><g></g><g></g><g></g><g></g><g></g><g></g><g></g><g></g><g></g></g><g id="Capa_1" fill="#000000" stroke="none" stroke-width="1" stroke-miterlimit="4" font-family="&quot;Open Sans&quot;, sans-serif" font-size="14"><g></g><g></g><g></g><g></g><g></g><g></g><g></g><g></g><g></g><g></g><g></g><g></g><g></g><g></g><g></g><g></g></g><path d="M3,24c0,-11.59798 9.40202,-21 21,-21c11.59798,0 21,9.40202 21,21c0,11.59798 -9.40202,21 -21,21c-11.59798,0 -21,-9.40202 -21,-21z" fill="#18ad00" stroke-width="1" stroke-miterlimit="10" font-family="sans-serif" font-size="12" filter="url(#dropshadow)"></path><path d="M25.7221,44.9304l-13.66601,-13.66601c-0.22628,-0.22628 -0.36643,-0.53869 -0.36643,-0.88322l0,-12.76234c0,-0.68906 0.56059,-1.24965 1.24965,-1.24965c0,0 0.00001,0.00001 0.00001,0.00001l22.12137,0c0.34453,0 0.65694,0.14015 0.88322,0.36643l0.00298,0.00298c-0.00099,-0.001 -0.00199,-0.002 -0.00298,-0.00299l8.98649,8.98649c-0.82987,10.22451 -8.98379,18.37843 -19.2083,19.2083z" fill="url(#color-1)" stroke-width="1" stroke-miterlimit="10" font-family="sans-serif" font-size="12"></path><path d="M36.31034,17.61883l0,12.76234c0,0.68906 -0.56059,1.24965 -1.24965,1.24965l-22.12138,0c-0.68906,0 -1.24965,-0.56059 -1.24965,-1.24965l0,-12.76234c0,-0.68906 0.56059,-1.24965 1.24965,-1.24965l22.12138,0c0.68906,0 1.24965,0.56059 1.24965,1.24965z M12.93931,30.83317l17.46845,0l0,-13.66634l-17.46845,0c-0.24924,0 -0.452,0.20276 -0.452,0.452l0,12.76234c0,0.24924 0.20276,0.452 0.452,0.452z M27.80211,18.89507l0,10.20987c0,0.22026 -0.17857,0.39882 -0.39882,0.39882l-13.18775,0c-0.22026,0 -0.39882,-0.17857 -0.39882,-0.39882l0,-10.20987c0,-0.22026 0.17857,-0.39882 0.39882,-0.39882l13.18775,0c0.22026,0 0.39882,0.17857 0.39882,0.39882z M27.00447,19.29389l-12.3901,0l0,9.41222l12.3901,0z M35.51269,17.61883c0,-0.24924 -0.20276,-0.452 -0.452,-0.452l-3.85529,0l0,13.66634l3.85529,0c0.24924,0 0.452,-0.20276 0.452,-0.452z M35.0341,24.42541c0,0.92362 -0.75144,1.67506 -1.67506,1.67506c-0.92362,0 -1.67506,-0.75144 -1.67506,-1.67506c0,-0.92362 0.75144,-1.67506 1.67506,-1.67506c0.92362,0 1.67506,0.75144 1.67506,1.67506z M35.0341,28.25411c0,0.92362 -0.75144,1.67506 -1.67506,1.67506c-0.92362,0 -1.67506,-0.75144 -1.67506,-1.67506c0,-0.92362 0.75144,-1.67506 1.67506,-1.67506c0.92362,0 1.67506,0.75144 1.67506,1.67506z M29.50376,18.89507l0,10.20987c0,0.22026 -0.17857,0.39882 -0.39882,0.39882c-0.22026,0 -0.39882,-0.17857 -0.39882,-0.39882l0,-10.20987c0,-0.22026 0.17857,-0.39882 0.39882,-0.39882c0.22026,0 0.39882,0.17857 0.39882,0.39882z M32.1094,20.1713c0,-0.22026 0.17857,-0.39882 0.39882,-0.39882l1.70164,0c0.22026,0 0.39882,0.17857 0.39882,0.39882c0,0.22026 -0.17857,0.39882 -0.39882,0.39882l-1.70164,0c-0.22026,0 -0.39882,-0.17857 -0.39882,-0.39882z M32.1094,18.89507c0,-0.22026 0.17857,-0.39882 0.39882,-0.39882l1.70164,0c0.22026,0 0.39882,0.17857 0.39882,0.39882c0,0.22026 -0.17857,0.39882 -0.39882,0.39882l-1.70164,0c-0.22026,0 -0.39882,-0.17857 -0.39882,-0.39882z M32.1094,21.44753c0,-0.22026 0.17857,-0.39882 0.39882,-0.39882l1.70164,0c0.22026,0 0.39882,0.17857 0.39882,0.39882c0,0.22026 -0.17857,0.39882 -0.39882,0.39882l-1.70164,0c-0.22026,0 -0.39882,-0.17857 -0.39882,-0.39882z M33.35905,27.3767c-0.09439,0 -0.18511,0.01537 -0.27035,0.04307l1.10469,1.10469c0.0277,-0.08524 0.04307,-0.17601 0.04307,-0.27035c0,-0.4838 -0.39361,-0.87741 -0.87741,-0.87741z M33.35905,29.13152c0.09439,0 0.18511,-0.01537 0.27035,-0.04307l-1.10469,-1.10469c-0.0277,0.08524 -0.04307,0.17601 -0.04307,0.27035c0,0.4838 0.39361,0.87741 0.87741,0.87741z M33.35905,23.548c-0.09439,0 -0.18511,0.01537 -0.27035,0.04307l1.10469,1.10463c0.0277,-0.08524 0.04307,-0.17596 0.04307,-0.2703c0,-0.4838 -0.39361,-0.87741 -0.87741,-0.87741z M33.35905,25.30282c0.09439,0 0.18511,-0.01537 0.27035,-0.04307l-1.10469,-1.10463c-0.0277,0.08524 -0.04307,0.17596 -0.04307,0.2703c0,0.4838 0.39361,0.87741 0.87741,0.87741z" fill="#b30000" stroke-width="0" stroke-miterlimit="10" font-family="sans-serif" font-size="12"></path></g></svg>