<?xml version="1.0" encoding="UTF-8" standalone="no"?>
<svg
   xmlns:dc="http://purl.org/dc/elements/1.1/"
   xmlns:cc="http://creativecommons.org/ns#"
   xmlns:rdf="http://www.w3.org/1999/02/22-rdf-syntax-ns#"
   xmlns:svg="http://www.w3.org/2000/svg"
   xmlns="http://www.w3.org/2000/svg"
   xmlns:sodipodi="http://sodipodi.sourceforge.net/DTD/sodipodi-0.dtd"
   xmlns:inkscape="http://www.inkscape.org/namespaces/inkscape"
   x="0"
   y="0"
   width="48"
   height="48"
   version="1.1"
   id="svg2"
   inkscape:version="0.91 r13725"
   sodipodi:docname="Reflow.svg">
  <metadata
     id="metadata133">
    <rdf:RDF>
      <cc:Work
         rdf:about="">
        <dc:format>image/svg+xml</dc:format>
        <dc:type
           rdf:resource="http://purl.org/dc/dcmitype/StillImage" />
      </cc:Work>
    </rdf:RDF>
  </metadata>
  <sodipodi:namedview
     pagecolor="#ffffff"
     bordercolor="#666666"
     borderopacity="1"
     objecttolerance="10"
     gridtolerance="10"
     guidetolerance="10"
     inkscape:pageopacity="0"
     inkscape:pageshadow="2"
     inkscape:window-width="640"
     inkscape:window-height="480"
     id="namedview131"
     showgrid="false"
     inkscape:zoom="4.9166667"
     inkscape:cx="24"
     inkscape:cy="24"
     inkscape:window-x="0"
     inkscape:window-y="0"
     inkscape:window-maximized="0"
     inkscape:current-layer="svg2" />
  <defs
     id="defs4">
    <linearGradient
       x1="11.68974"
       y1="11.68966"
       x2="57.52346"
       y2="57.52354"
       gradientUnits="userSpaceOnUse"
       id="color-1">
      <stop
         offset="0"
         stop-color="#000000"
         stop-opacity="0.7"
         id="stop7" />
      <stop
         offset="1"
         stop-color="#000000"
         stop-opacity="0"
         id="stop9" />
    </linearGradient>
    <filter
       id="dropshadow">
      <feColorMatrix
         type="matrix"
         values="0 0 0 0 .05  0 0 0 0 .15  0 0 0 0 .1  0 0 0 .8 0"
         id="feColorMatrix12" />
      <feOffset
         dx="0"
         dy="1"
         id="feOffset14" />
      <feGaussianBlur
         stdDeviation="1"
         id="feGaussianBlur16"
         result="result1" />
      <feComposite
         in="SourceGraphic"
         id="feComposite18"
         in2="result1" />
    </filter>
  </defs>
  <g
     id="g3451">
    <g
       id="Capa_1"
       stroke-miterlimit="4"
       font-size="14"
       style="font-size:14px;font-family:'Open Sans', sans-serif;fill:#000000">
      <g
         id="g23">
        <g
           id="g25" />
      </g>
      <g
         id="g27" />
      <g
         id="g29" />
      <g
         id="g31" />
      <g
         id="g33" />
      <g
         id="g35" />
      <g
         id="g37" />
      <g
         id="g39" />
      <g
         id="g41" />
      <g
         id="g43" />
      <g
         id="g45" />
      <g
         id="g47" />
      <g
         id="g49" />
      <g
         id="g51" />
      <g
         id="g53" />
      <g
         id="g55" />
    </g>
    <g
       id="g57"
       stroke-miterlimit="4"
       font-size="14"
       style="font-size:14px;font-family:'Open Sans', sans-serif;fill:#000000">
      <g
         id="g59">
        <g
           id="g61" />
      </g>
      <g
         id="g63" />
      <g
         id="g65" />
      <g
         id="g67" />
      <g
         id="g69" />
      <g
         id="g71" />
      <g
         id="g73" />
      <g
         id="g75" />
      <g
         id="g77" />
      <g
         id="g79" />
      <g
         id="g81" />
      <g
         id="g83" />
      <g
         id="g85" />
      <g
         id="g87" />
      <g
         id="g89" />
      <g
         id="g91" />
    </g>
    <g
       id="g93"
       stroke-miterlimit="4"
       font-size="14"
       style="font-size:14px;font-family:'Open Sans', sans-serif;fill:#000000">
      <g
         id="g95" />
      <g
         id="g97" />
      <g
         id="g99" />
      <g
         id="g101" />
      <g
         id="g103" />
      <g
         id="g105" />
      <g
         id="g107" />
      <g
         id="g109" />
      <g
         id="g111" />
      <g
         id="g113" />
      <g
         id="g115" />
      <g
         id="g117" />
      <g
         id="g119" />
      <g
         id="g121" />
      <g
         id="g123" />
    </g>
    <path
       d="M 3,24 C 3,12.40202 12.40202,3 24,3 35.59798,3 45,12.40202 45,24 45,35.59798 35.59798,45 24,45 12.40202,45 3,35.59798 3,24 Z"
       stroke-miterlimit="10"
       id="path125"
       inkscape:connector-curvature="0"
       style="fill:#b30000;stroke-miterlimit:10;filter:url(#dropshadow)" />
    <path
       d="m 23.64599,44.99708 c 0,0 -11.77405,-11.77405 -11.77405,-11.77405 -0.11256,-0.11257 -0.18218,-0.26808 -0.18219,-0.43988 l -10e-6,-10e-6 c 0,-0.34365 0.27854,-0.6221 0.6221,-0.6221 l 1.71765,0 c 0,0 0,-0.58711 0,-0.58711 L 11.87194,29.41638 C 11.75938,29.30381 11.68976,29.1483 11.68975,28.9765 l -10e-6,-1e-5 c 0,-0.34365 0.27854,-0.6221 0.6221,-0.6221 l 1.71765,0 c 0,0 0,-0.58711 0,-0.58711 l -2.15755,-2.15755 c -0.11256,-0.11257 -0.18218,-0.26808 -0.18219,-0.43988 l -10e-6,-10e-6 c 0,-0.34365 0.27854,-0.6221 0.6221,-0.6221 l 1.71765,0 c 0,0 0,-0.58719 0,-0.58719 L 11.87194,21.803 c -0.11256,-0.11257 -0.18219,-0.26808 -0.18219,-0.43989 l -10e-6,-10e-6 c 0,-0.34365 0.27854,-0.6221 0.6221,-0.6221 l 1.71765,0 0,-0.5871 -2.15755,-2.15755 c -0.11256,-0.11257 -0.18219,-0.26808 -0.18219,-0.43989 l -10e-6,-10e-6 c 0,-0.34365 0.27854,-0.6221 0.6221,-0.6221 l 1.71956,0 c 0.03898,-1.58369 1.31934,-2.86405 2.90303,-2.90312 l 0,-1.71947 c 0,-0.34365 0.27854,-0.6221 0.6221,-0.6221 0.1718,0 0.32733,0.06962 0.43991,0.1822 l 2.15755,2.15755 0.58709,0 0,-1.71765 c 0,-0.34365 0.27854,-0.6221 0.6221,-0.6221 0.1718,0 0.32733,0.06962 0.43991,0.1822 0,0 2.15755,2.15755 2.15755,2.15755 0,0 0.5871,0 0.5871,0 l 0,-1.71764 -10e-6,-10e-6 c 0,-0.34365 0.27854,-0.6221 0.6221,-0.6221 0.1718,0 0.32733,0.06962 0.43991,0.1822 0,0 2.15755,2.15755 2.15755,2.15755 l 0.5871,0 0,-1.71764 -10e-6,-10e-6 c 0,-0.34365 0.27854,-0.6221 0.6221,-0.6221 0.1718,0 0.32733,0.06962 0.43991,0.1822 l 2.15755,2.15755 0.5871,0 0,-1.71764 -1e-5,-10e-6 c 0,-0.34365 0.27854,-0.6221 0.6221,-0.6221 0.1718,0 0.32733,0.06962 0.43991,0.1822 L 44.99707,23.64589 C 44.99902,23.76369 45,23.88173 45,24 c 0,11.59798 -9.40202,21 -21,21 -0.11824,0 -0.23624,-9.8e-4 -0.35401,-0.0029 z"
       stroke-miterlimit="10"
       id="path127"
       style="fill:url(#color-1);stroke-miterlimit:10"
       inkscape:connector-curvature="0" />
    <path
       d="m 36.31025,17.00859 0,16.3224 c 0,1.64275 -1.33643,2.97918 -2.97918,2.97918 l -14.47229,0 c -7.5e-4,0 -0.0014,1.7e-4 -0.0022,1.7e-4 -0.0012,0 -0.0023,-1.7e-4 -0.0035,-1.7e-4 l -1.84447,0 c -1.61778,0 -2.93762,-1.29645 -2.97727,-2.90494 l -1.71956,0 c -0.34356,0 -0.6221,-0.27845 -0.6221,-0.6221 0,-0.34365 0.27853,-0.6221 0.6221,-0.6221 l 1.71765,0 0,-2.56246 -1.71765,0 c -0.34356,0 -0.6221,-0.27845 -0.6221,-0.6221 0,-0.34365 0.27853,-0.6221 0.6221,-0.6221 l 1.71765,0 0,-2.56246 -1.71765,0 c -0.34356,0 -0.6221,-0.27845 -0.6221,-0.6221 0,-0.34365 0.27853,-0.6221 0.6221,-0.6221 l 1.71765,0 0,-2.56254 -1.71765,0 c -0.34356,0 -0.6221,-0.27845 -0.6221,-0.6221 0,-0.34365 0.27853,-0.6221 0.6221,-0.6221 l 1.71765,0 0,-2.56246 -1.71765,0 c -0.34356,0 -0.6221,-0.27845 -0.6221,-0.6221 0,-0.34365 0.27853,-0.6221 0.6221,-0.6221 l 1.71956,0 c 0.03898,-1.58369 1.31934,-2.86405 2.90303,-2.90312 l 0,-1.71947 c 0,-0.34365 0.27853,-0.6221 0.6221,-0.6221 0.34356,0 0.6221,0.27845 0.6221,0.6221 l 0,1.71765 2.56246,0 0,-1.71765 c 0,-0.34365 0.27853,-0.6221 0.6221,-0.6221 0.34356,0 0.6221,0.27845 0.6221,0.6221 l 0,1.71765 2.56246,0 0,-1.71765 c 0,-0.34365 0.27853,-0.6221 0.6221,-0.6221 0.34356,0 0.6221,0.27845 0.6221,0.6221 l 0,1.71765 2.56246,0 0,-1.71765 c 0,-0.34365 0.27853,-0.6221 0.6221,-0.6221 0.34356,0 0.6221,0.27845 0.6221,0.6221 l 0,1.71765 2.56246,0 0,-1.71765 c 0,-0.34365 0.27853,-0.6221 0.6221,-0.6221 0.34356,0 0.6221,0.27845 0.6221,0.6221 l 0,1.71947 c 1.60849,0.03973 2.90494,1.35957 2.90503,2.97735 z m -19.30158,18.05731 1.42701,0 4.41937,-11.04097 c -1.63363,-1.23001 -3.64872,-1.93207 -5.73979,-1.93207 -0.34356,0 -0.6221,-0.27845 -0.6221,-0.6221 0,-0.34365 0.27853,-0.6221 0.6221,-0.6221 1.8497,0 3.679,0.48009 5.29023,1.38844 0.32034,0.18057 0.63014,0.37799 0.92925,0.58966 l 0.98698,-2.46566 c 0.31768,-0.79371 1.04471,-1.32606 1.89739,-1.38918 0.85277,-0.06445 1.6503,0.35625 2.08145,1.09464 l 3.39341,5.81129 c 0.20985,0.35949 0.58427,0.5642 0.99958,0.55076 0.41606,-0.0146 0.77439,-0.24618 0.95861,-0.61944 0.15196,-0.30806 0.52497,-0.43447 0.83311,-0.2826 0.30815,0.15204 0.43464,0.52505 0.2826,0.83311 -0.39018,0.79081 -1.14939,1.28144 -2.03069,1.31237 -0.88097,0.03235 -1.67294,-0.40528 -2.11762,-1.16672 l -3.39341,-5.81129 c -0.19244,-0.32963 -0.53442,-0.5097 -0.91515,-0.48134 -0.38056,0.0282 -0.69243,0.25647 -0.83419,0.61073 l -1.12749,2.81677 c 0.77123,0.69924 1.44111,1.50912 1.98275,2.40428 l 0.05989,0.09895 c 1.71516,2.83477 4.83892,4.5958 8.1522,4.5958 l 0.52181,0 0,-13.73067 c 0,-0.95662 -0.77828,-1.73499 -1.73499,-1.73499 l -16.32232,0 c -0.9567,0 -1.73499,0.77837 -1.73499,1.73499 l 0,16.32232 c 0,0.95662 0.77828,1.73499 1.73499,1.73499 z m 18.05731,-1.73507 0,-1.34746 -0.52181,0 c -1.8497,0 -3.679,-0.48009 -5.29023,-1.38844 -1.61123,-0.90834 -2.96898,-2.22495 -3.92651,-3.80748 L 25.26754,26.6885 c -0.40055,-0.66208 -0.87882,-1.26468 -1.41755,-1.80085 l -4.07415,10.17825 13.55515,0 c 0.9567,0 1.73499,-0.77837 1.73499,-1.73507 z"
       stroke-miterlimit="4"
       id="path129"
       inkscape:connector-curvature="0"
       style="fill:#ffb800;stroke-width:0" />
  </g>
</svg>
