<svg x="0" y="0" width="48" height="48" version="1.1" xmlns="http://www.w3.org/2000/svg" xmlns:xlink="http://www.w3.org/1999/xlink"><defs><linearGradient x1="11.68974" y1="11.68966" x2="57.52346" y2="57.52354" gradientUnits="userSpaceOnUse" id="color-1"><stop offset="0" stop-color="#000000" stop-opacity="0.7"></stop><stop offset="1" stop-color="#000000" stop-opacity="0"></stop></linearGradient><filter id="dropshadow"><feColorMatrix type="matrix" values="0 0 0 0 .05  0 0 0 0 .15  0 0 0 0 .1  0 0 0 .8 0"></feColorMatrix> <feOffset dx="0" dy="1"></feOffset> <feGaussianBlur stdDeviation="1"></feGaussianBlur> <feComposite in="SourceGraphic"></feComposite></filter></defs><g fill="none" stroke="none" stroke-width="none" stroke-linecap="butt" stroke-linejoin="miter" stroke-miterlimit="none" stroke-dasharray="" stroke-dashoffset="0" font-family="none" font-weight="normal" font-size="none" text-anchor="start" mix-blend-mode="normal"><g id="Capa_1" fill="#000000" stroke="none" stroke-width="1" stroke-miterlimit="4" font-family="&quot;Open Sans&quot;, sans-serif" font-size="14"><g><g></g></g><g></g><g></g><g></g><g></g><g></g><g></g><g></g><g></g><g></g><g></g><g></g><g></g><g></g><g></g><g></g></g><g id="Capa_1" fill="#000000" stroke="none" stroke-width="1" stroke-miterlimit="4" font-family="&quot;Open Sans&quot;, sans-serif" font-size="14"><g><g></g></g><g></g><g></g><g></g><g></g><g></g><g></g><g></g><g></g><g></g><g></g><g></g><g></g><g></g><g></g><g></g></g><g id="Capa_1" fill="#000000" stroke="none" stroke-width="1" stroke-miterlimit="4" font-family="&quot;Open Sans&quot;, sans-serif" font-size="14"><g></g><g></g><g></g><g></g><g></g><g></g><g></g><g></g><g></g><g></g><g></g><g></g><g></g><g></g><g></g></g><path d="M3,24c0,-11.59798 9.40202,-21 21,-21c11.59798,0 21,9.40202 21,21c0,11.59798 -9.40202,21 -21,21c-11.59798,0 -21,-9.40202 -21,-21z" fill="#b30000" stroke-width="1" stroke-miterlimit="10" font-family="sans-serif" font-size="12" filter="url(#dropshadow)"></path><path d="M23.64599,44.99708c0,0 -11.77405,-11.77405 -11.77405,-11.77405c-0.11256,-0.11257 -0.18218,-0.26808 -0.18219,-0.43988l-0.00001,-0.00001c0,-0.34365 0.27854,-0.6221 0.6221,-0.6221l1.71765,0c0,0 0,-0.58711 0,-0.58711l-2.15755,-2.15755c-0.11256,-0.11257 -0.18218,-0.26808 -0.18219,-0.43988l-0.00001,-0.00001c0,-0.34365 0.27854,-0.6221 0.6221,-0.6221l1.71765,0c0,0 0,-0.58711 0,-0.58711l-2.15755,-2.15755c-0.11256,-0.11257 -0.18218,-0.26808 -0.18219,-0.43988l-0.00001,-0.00001c0,-0.34365 0.27854,-0.6221 0.6221,-0.6221l1.71765,0c0,0 0,-0.58719 0,-0.58719l-2.15755,-2.15755c-0.11256,-0.11257 -0.18219,-0.26808 -0.18219,-0.43989l-0.00001,-0.00001c0,-0.34365 0.27854,-0.6221 0.6221,-0.6221l1.71765,0l0,-0.5871l-2.15755,-2.15755c-0.11256,-0.11257 -0.18219,-0.26808 -0.18219,-0.43989l-0.00001,-0.00001c0,-0.34365 0.27854,-0.6221 0.6221,-0.6221l1.71956,0c0.03898,-1.58369 1.31934,-2.86405 2.90303,-2.90312l0,-1.71947c0,-0.34365 0.27854,-0.6221 0.6221,-0.6221c0.1718,0 0.32733,0.06962 0.43991,0.1822l2.15755,2.15755l0.58709,0l0,-1.71765c0,-0.34365 0.27854,-0.6221 0.6221,-0.6221c0.1718,0 0.32733,0.06962 0.43991,0.1822c0,0 2.15755,2.15755 2.15755,2.15755c0,0 0.5871,0 0.5871,0l0,-1.71764l-0.00001,-0.00001c0,-0.34365 0.27854,-0.6221 0.6221,-0.6221c0.1718,0 0.32733,0.06962 0.43991,0.1822c0,0 2.15755,2.15755 2.15755,2.15755l0.5871,0l0,-1.71764l-0.00001,-0.00001c0,-0.34365 0.27854,-0.6221 0.6221,-0.6221c0.1718,0 0.32733,0.06962 0.43991,0.1822l2.15755,2.15755l0.5871,0l0,-1.71764l-0.00001,-0.00001c0,-0.34365 0.27854,-0.6221 0.6221,-0.6221c0.1718,0 0.32733,0.06962 0.43991,0.1822l11.77403,11.77403c0.00195,0.1178 0.00293,0.23584 0.00293,0.35411c0,11.59798 -9.40202,21 -21,21c-0.11824,0 -0.23624,-0.00098 -0.35401,-0.00292z" fill="url(#color-1)" stroke-width="1" stroke-miterlimit="10" font-family="sans-serif" font-size="12"></path><path d="M36.31025,17.00859l0,16.3224c0,1.64275 -1.33643,2.97918 -2.97918,2.97918l-14.47229,0c-0.00075,0 -0.00141,0.00017 -0.00216,0.00017c-0.00116,0 -0.00232,-0.00017 -0.00348,-0.00017l-1.84447,0c-1.61778,0 -2.93762,-1.29645 -2.97727,-2.90494l-1.71956,0c-0.34356,0 -0.6221,-0.27845 -0.6221,-0.6221c0,-0.34365 0.27853,-0.6221 0.6221,-0.6221l1.71765,0l0,-2.56246l-1.71765,0c-0.34356,0 -0.6221,-0.27845 -0.6221,-0.6221c0,-0.34365 0.27853,-0.6221 0.6221,-0.6221l1.71765,0l0,-2.56246l-1.71765,0c-0.34356,0 -0.6221,-0.27845 -0.6221,-0.6221c0,-0.34365 0.27853,-0.6221 0.6221,-0.6221l1.71765,0l0,-2.56254l-1.71765,0c-0.34356,0 -0.6221,-0.27845 -0.6221,-0.6221c0,-0.34365 0.27853,-0.6221 0.6221,-0.6221l1.71765,0l0,-2.56246l-1.71765,0c-0.34356,0 -0.6221,-0.27845 -0.6221,-0.6221c0,-0.34365 0.27853,-0.6221 0.6221,-0.6221l1.71956,0c0.03898,-1.58369 1.31934,-2.86405 2.90303,-2.90312l0,-1.71947c0,-0.34365 0.27853,-0.6221 0.6221,-0.6221c0.34356,0 0.6221,0.27845 0.6221,0.6221l0,1.71765l2.56246,0l0,-1.71765c0,-0.34365 0.27853,-0.6221 0.6221,-0.6221c0.34356,0 0.6221,0.27845 0.6221,0.6221l0,1.71765l2.56246,0l0,-1.71765c0,-0.34365 0.27853,-0.6221 0.6221,-0.6221c0.34356,0 0.6221,0.27845 0.6221,0.6221l0,1.71765l2.56246,0l0,-1.71765c0,-0.34365 0.27853,-0.6221 0.6221,-0.6221c0.34356,0 0.6221,0.27845 0.6221,0.6221l0,1.71765l2.56246,0l0,-1.71765c0,-0.34365 0.27853,-0.6221 0.6221,-0.6221c0.34356,0 0.6221,0.27845 0.6221,0.6221l0,1.71947c1.60849,0.03973 2.90494,1.35957 2.90503,2.97735z M17.00867,35.0659l1.42701,0l4.41937,-11.04097c-1.63363,-1.23001 -3.64872,-1.93207 -5.73979,-1.93207c-0.34356,0 -0.6221,-0.27845 -0.6221,-0.6221c0,-0.34365 0.27853,-0.6221 0.6221,-0.6221c1.8497,0 3.679,0.48009 5.29023,1.38844c0.32034,0.18057 0.63014,0.37799 0.92925,0.58966l0.98698,-2.46566c0.31768,-0.79371 1.04471,-1.32606 1.89739,-1.38918c0.85277,-0.06445 1.6503,0.35625 2.08145,1.09464l3.39341,5.81129c0.20985,0.35949 0.58427,0.5642 0.99958,0.55076c0.41606,-0.0146 0.77439,-0.24618 0.95861,-0.61944c0.15196,-0.30806 0.52497,-0.43447 0.83311,-0.2826c0.30815,0.15204 0.43464,0.52505 0.2826,0.83311c-0.39018,0.79081 -1.14939,1.28144 -2.03069,1.31237c-0.88097,0.03235 -1.67294,-0.40528 -2.11762,-1.16672l-3.39341,-5.81129c-0.19244,-0.32963 -0.53442,-0.5097 -0.91515,-0.48134c-0.38056,0.0282 -0.69243,0.25647 -0.83419,0.61073l-1.12749,2.81677c0.77123,0.69924 1.44111,1.50912 1.98275,2.40428l0.05989,0.09895c1.71516,2.83477 4.83892,4.5958 8.1522,4.5958l0.52181,0l0,-13.73067c0,-0.95662 -0.77828,-1.73499 -1.73499,-1.73499l-16.32232,0c-0.9567,0 -1.73499,0.77837 -1.73499,1.73499l0,16.32232c0,0.95662 0.77828,1.73499 1.73499,1.73499z M35.06598,33.33083l0,-1.34746l-0.52181,0c-1.8497,0 -3.679,-0.48009 -5.29023,-1.38844c-1.61123,-0.90834 -2.96898,-2.22495 -3.92651,-3.80748l-0.05989,-0.09895c-0.40055,-0.66208 -0.87882,-1.26468 -1.41755,-1.80085l-4.07415,10.17825l13.55515,0c0.9567,0 1.73499,-0.77837 1.73499,-1.73507z" fill="#ffb800" stroke="none" stroke-width="0" stroke-miterlimit="4" font-family="&quot;Open Sans&quot;, sans-serif" font-size="14"></path></g></svg>