<svg x="0" y="0" width="48" height="48" version="1.1" xmlns="http://www.w3.org/2000/svg" xmlns:xlink="http://www.w3.org/1999/xlink"><defs><linearGradient x1="11.70724" y1="11.68966" x2="57.50596" y2="57.52354" gradientUnits="userSpaceOnUse" id="color-1"><stop offset="0" stop-color="#000000" stop-opacity="0.7"></stop><stop offset="1" stop-color="#000000" stop-opacity="0"></stop></linearGradient><filter id="dropshadow"><feColorMatrix type="matrix" values="0 0 0 0 .05  0 0 0 0 .15  0 0 0 0 .1  0 0 0 .8 0"></feColorMatrix> <feOffset dx="0" dy="1"></feOffset> <feGaussianBlur stdDeviation="1"></feGaussianBlur> <feComposite in="SourceGraphic"></feComposite></filter></defs><g fill="none" stroke="none" stroke-width="none" stroke-linecap="butt" stroke-linejoin="miter" stroke-miterlimit="none" stroke-dasharray="" stroke-dashoffset="0" font-family="none" font-weight="normal" font-size="none" text-anchor="start" mix-blend-mode="normal"><g id="Capa_1" fill="#000000" stroke="none" stroke-width="1" stroke-miterlimit="4" font-family="&quot;Open Sans&quot;, sans-serif" font-size="14"><g><g></g></g><g></g><g></g><g></g><g></g><g></g><g></g><g></g><g></g><g></g><g></g><g></g><g></g><g></g><g></g><g></g></g><path d="M3,24c0,-11.59798 9.40202,-21 21,-21c11.59798,0 21,9.40202 21,21c0,11.59798 -9.40202,21 -21,21c-11.59798,0 -21,-9.40202 -21,-21z" fill="#404040" stroke-width="1" stroke-miterlimit="10" font-family="sans-serif" font-size="12" filter="url(#dropshadow)"></path><path d="M27.30854,44.74086c0,0 -12.78421,-12.78421 -12.78421,-12.78421c-0.30129,-0.30129 -0.34147,-0.77834 -0.09541,-1.12985l1.0522,-1.44581l-3.51395,-3.51395c-0.16136,-0.16136 -0.25993,-0.38404 -0.25993,-0.6242l0.8964,0.8964l0.00001,0c0,0 -0.89641,-0.89641 -0.89641,-0.89641l0,-2.29987c0,-0.43185 0.31134,-0.79843 0.73315,-0.86873l0.00001,0.00001l2.26471,-0.38666c0.21593,-0.9089 0.56744,-1.75754 1.03444,-2.53588c0,0 3.7483,3.7483 3.7483,3.7483c0,0 0,-0.00001 0,-0.00001l-3.74831,-3.74831l-1.34576,-1.8931l-0.00002,-0.00002c-0.25108,-0.35151 -0.21091,-0.82856 0.09039,-1.12985l0.80847,-0.80847l0.80345,-0.81851l8.6693,8.6693c0,0 0,0 0,-0.00001c0,0 -8.66931,-8.66931 -8.66931,-8.66931c0.30129,-0.30129 0.77834,-0.34147 1.12985,-0.09541l1.89313,1.34578c0.7683,-0.45194 1.59685,-0.79843 2.47562,-1.0244l0.38164,-2.28983c0.0703,-0.41679 0.43688,-0.72813 0.84864,-0.74821c0,0 2.29987,0 2.29987,0c0.24265,0 0.46469,0.09671 0.62515,0.25716c0,0 3.50587,3.50587 3.50587,3.50587l1.49312,-1.06143c0.35151,-0.25108 0.82856,-0.21091 1.12985,0.09039c0,0 12.85721,12.85721 12.85721,12.85721c-1.4273,8.93391 -8.48934,15.98745 -17.4275,17.40199z" fill="url(#color-1)" stroke-width="1" stroke-miterlimit="10" font-family="sans-serif" font-size="12"></path><path d="M36.29276,25.14742c0,0.43185 -0.30631,0.79843 -0.73315,0.86873l-2.28983,0.38666c-0.05022,0.18078 -0.10545,0.35653 -0.16069,0.53731c-0.04519,0.13558 -0.09039,0.26614 -0.1406,0.3967c-0.02511,0.06528 -0.04519,0.13056 -0.0703,0.19082c-0.03515,0.09039 -0.07532,0.1858 -0.1155,0.27619c-0.05524,0.12052 -0.10545,0.23601 -0.16069,0.35151c-0.02511,0.05022 -0.05022,0.10043 -0.07532,0.15065c-0.08537,0.17073 -0.17575,0.33644 -0.27116,0.50216c-0.08537,0.1406 -0.17073,0.28121 -0.26112,0.42181l-2.79701,-2.79701c-0.56241,-0.56241 -0.81851,-1.3508 -0.73315,-2.13918c0.14563,-1.32569 -0.28623,-2.7016 -1.30058,-3.71595c-1.24535,-1.24535 -3.03804,-1.61192 -4.60979,-1.10976c-0.10043,0.03515 -0.13056,0.16571 -0.05524,0.24103l1.93832,1.93832c0.54735,0.54735 0.54735,1.44621 -0.00502,1.99858l-0.8386,0.8386c-0.54735,0.55237 -1.45123,0.55237 -1.99858,0.00502l-1.84291,-1.84291c-0.07532,-0.08034 -0.21593,-0.04519 -0.24103,0.06528c-0.37662,1.50144 0.02009,3.15856 1.19011,4.32858c0.96414,0.96916 2.2597,1.40603 3.52513,1.32067c0.74821,-0.05022 1.48136,0.20588 2.00862,0.73315l2.95267,2.95267c-0.10545,0.0703 -0.21593,0.1406 -0.3264,0.20588c-0.17073,0.10043 -0.35151,0.20086 -0.53228,0.29125c-0.00502,0.00502 -0.01004,0.00502 -0.01506,0.01004c-0.18078,0.09039 -0.36155,0.17575 -0.54735,0.2561c-0.03515,0.01506 -0.0703,0.03013 -0.10545,0.04519c-0.15567,0.06528 -0.31134,0.12554 -0.47203,0.18078c-0.05022,0.02009 -0.10545,0.04017 -0.15567,0.05524c-0.19082,0.06528 -0.38666,0.12554 -0.58752,0.17575l-0.39168,2.30991c-0.0703,0.42181 -0.4419,0.73315 -0.86873,0.73315l-2.29987,0c-0.43185,0 -0.79341,-0.30631 -0.86873,-0.73315l-0.38666,-2.26472c-0.87877,-0.22095 -1.70733,-0.55739 -2.47563,-1.00431l-1.90317,1.35582c-0.35151,0.25108 -0.82856,0.21091 -1.12985,-0.09039l-1.61694,-1.61694c-0.30129,-0.30129 -0.34147,-0.77834 -0.09541,-1.12985l1.35582,-1.863c-0.4419,-0.75323 -0.80847,-1.58179 -1.03444,-2.46056l-2.30991,-0.39168c-0.42181,-0.0703 -0.73315,-0.4419 -0.73315,-0.86873l0,-2.29987c0,-0.43185 0.31134,-0.79843 0.73315,-0.86873l2.26472,-0.38666c0.21593,-0.9089 0.56744,-1.75754 1.03444,-2.53588l-1.34578,-1.89313c-0.25108,-0.35151 -0.21091,-0.82856 0.09039,-1.12985l0.80847,-0.80847l0.80345,-0.81851c0.30129,-0.30129 0.77834,-0.34147 1.12985,-0.09541l1.89313,1.34578c0.7683,-0.45194 1.59685,-0.79843 2.47563,-1.0244l0.38164,-2.28983c0.0703,-0.41679 0.43688,-0.72813 0.84864,-0.74821l2.29987,0c0.43185,0 0.79843,0.30631 0.86873,0.73315l0.38666,2.28983c0.87877,0.23099 1.70733,0.56744 2.47563,1.0244l1.89313,-1.34578c0.35151,-0.25108 0.82856,-0.21091 1.12985,0.09039l1.61694,1.61694c0.30129,0.30129 0.34147,0.77834 0.09541,1.12985l-1.34578,1.89313c0.45194,0.7683 0.79843,1.59685 1.0244,2.47563l2.28983,0.38164c0.42181,0.0703 0.73315,0.4419 0.73315,0.86873z M27.76114,26.96021l5.33289,5.33791l-0.81349,0.81349l-5.33791,-5.33791c-0.22597,-0.22095 -0.22597,-0.58752 0,-0.81349c0.22597,-0.22597 0.59254,-0.22597 0.81851,0z" fill="#ffffff" stroke-width="0" stroke-miterlimit="10" font-family="sans-serif" font-size="12"></path></g></svg>