<?xml version="1.0" encoding="UTF-8" standalone="no"?>
<svg
   xmlns:dc="http://purl.org/dc/elements/1.1/"
   xmlns:cc="http://creativecommons.org/ns#"
   xmlns:rdf="http://www.w3.org/1999/02/22-rdf-syntax-ns#"
   xmlns:svg="http://www.w3.org/2000/svg"
   xmlns="http://www.w3.org/2000/svg"
   xmlns:sodipodi="http://sodipodi.sourceforge.net/DTD/sodipodi-0.dtd"
   xmlns:inkscape="http://www.inkscape.org/namespaces/inkscape"
   x="0"
   y="0"
   width="48"
   height="48"
   version="1.1"
   id="svg2"
   inkscape:version="0.91 r13725"
   sodipodi:docname="Settings Pressed.svg">
  <metadata
     id="metadata65">
    <rdf:RDF>
      <cc:Work
         rdf:about="">
        <dc:format>image/svg+xml</dc:format>
        <dc:type
           rdf:resource="http://purl.org/dc/dcmitype/StillImage" />
      </cc:Work>
    </rdf:RDF>
  </metadata>
  <sodipodi:namedview
     pagecolor="#ffffff"
     bordercolor="#666666"
     borderopacity="1"
     objecttolerance="10"
     gridtolerance="10"
     guidetolerance="10"
     inkscape:pageopacity="0"
     inkscape:pageshadow="2"
     inkscape:window-width="640"
     inkscape:window-height="480"
     id="namedview63"
     showgrid="false"
     inkscape:zoom="4.9166667"
     inkscape:cx="24"
     inkscape:cy="24"
     inkscape:window-x="0"
     inkscape:window-y="0"
     inkscape:window-maximized="0"
     inkscape:current-layer="svg2" />
  <defs
     id="defs4">
    <linearGradient
       x1="11.70724"
       y1="11.68966"
       x2="57.50596"
       y2="57.52354"
       gradientUnits="userSpaceOnUse"
       id="color-1">
      <stop
         offset="0"
         stop-color="#000000"
         stop-opacity="0"
         id="stop7" />
      <stop
         offset="1"
         stop-color="#000000"
         stop-opacity="0"
         id="stop9" />
    </linearGradient>
    <filter
       id="dropshadow">
      <feColorMatrix
         type="matrix"
         values="0 0 0 0 .05  0 0 0 0 .15  0 0 0 0 .1  0 0 0 .8 0"
         id="feColorMatrix12" />
      <feOffset
         dx="0"
         dy="1"
         id="feOffset14" />
      <feGaussianBlur
         stdDeviation="1"
         id="feGaussianBlur16"
         result="result1" />
      <feComposite
         in="SourceGraphic"
         id="feComposite18"
         in2="result1" />
    </filter>
  </defs>
  <g
     id="g3414">
    <g
       id="Capa_1"
       stroke-miterlimit="4"
       font-size="14"
       style="font-weight:normal;font-size:14px;font-family:'Open Sans', sans-serif;text-anchor:start;mix-blend-mode:normal;fill:#000000;stroke:none;stroke-width:1;stroke-linecap:butt;stroke-linejoin:miter;stroke-miterlimit:4;stroke-dasharray:none;stroke-dashoffset:0">
      <g
         id="g23">
        <g
           id="g25" />
      </g>
      <g
         id="g27" />
      <g
         id="g29" />
      <g
         id="g31" />
      <g
         id="g33" />
      <g
         id="g35" />
      <g
         id="g37" />
      <g
         id="g39" />
      <g
         id="g41" />
      <g
         id="g43" />
      <g
         id="g45" />
      <g
         id="g47" />
      <g
         id="g49" />
      <g
         id="g51" />
      <g
         id="g53" />
      <g
         id="g55" />
    </g>
    <path
       d="M 3,24 C 3,12.40202 12.40202,3 24,3 35.59798,3 45,12.40202 45,24 45,35.59798 35.59798,45 24,45 12.40202,45 3,35.59798 3,24 Z"
       stroke-miterlimit="10"
       font-size="12"
       id="path57"
       inkscape:connector-curvature="0"
       style="font-weight:normal;font-size:12px;font-family:sans-serif;text-anchor:start;mix-blend-mode:normal;fill:#404040;stroke:none;stroke-width:1;stroke-linecap:butt;stroke-linejoin:miter;stroke-miterlimit:10;stroke-dasharray:none;stroke-dashoffset:0;filter:url(#dropshadow)" />
    <path
       d="m 36.29276,25.14742 c 0,0.43185 -0.30631,0.79843 -0.73315,0.86873 l -2.28983,0.38666 c -0.05022,0.18078 -0.10545,0.35653 -0.16069,0.53731 -0.04519,0.13558 -0.09039,0.26614 -0.1406,0.3967 -0.02511,0.06528 -0.04519,0.13056 -0.0703,0.19082 -0.03515,0.09039 -0.07532,0.1858 -0.1155,0.27619 -0.05524,0.12052 -0.10545,0.23601 -0.16069,0.35151 -0.02511,0.05022 -0.05022,0.10043 -0.07532,0.15065 -0.08537,0.17073 -0.17575,0.33644 -0.27116,0.50216 -0.08537,0.1406 -0.17073,0.28121 -0.26112,0.42181 l -2.79701,-2.79701 c -0.56241,-0.56241 -0.81851,-1.3508 -0.73315,-2.13918 0.14563,-1.32569 -0.28623,-2.7016 -1.30058,-3.71595 -1.24535,-1.24535 -3.03804,-1.61192 -4.60979,-1.10976 -0.10043,0.03515 -0.13056,0.16571 -0.05524,0.24103 l 1.93832,1.93832 c 0.54735,0.54735 0.54735,1.44621 -0.005,1.99858 l -0.8386,0.8386 c -0.54735,0.55237 -1.45123,0.55237 -1.99858,0.005 L 19.77184,22.6467 c -0.07532,-0.08034 -0.21593,-0.04519 -0.24103,0.06528 -0.37662,1.50144 0.02009,3.15856 1.19011,4.32858 0.96414,0.96916 2.2597,1.40603 3.52513,1.32067 0.74821,-0.05022 1.48136,0.20588 2.00862,0.73315 l 2.95267,2.95267 c -0.10545,0.0703 -0.21593,0.1406 -0.3264,0.20588 -0.17073,0.10043 -0.35151,0.20086 -0.53228,0.29125 -0.005,0.005 -0.01004,0.005 -0.01506,0.01004 -0.18078,0.09039 -0.36155,0.17575 -0.54735,0.2561 -0.03515,0.01506 -0.0703,0.03013 -0.10545,0.04519 -0.15567,0.06528 -0.31134,0.12554 -0.47203,0.18078 -0.05022,0.02009 -0.10545,0.04017 -0.15567,0.05524 -0.19082,0.06528 -0.38666,0.12554 -0.58752,0.17575 l -0.39168,2.30991 c -0.0703,0.42181 -0.4419,0.73315 -0.86873,0.73315 l -2.29987,0 c -0.43185,0 -0.79341,-0.30631 -0.86873,-0.73315 l -0.38666,-2.26472 c -0.87877,-0.22095 -1.70733,-0.55739 -2.47563,-1.00431 l -1.90317,1.35582 c -0.35151,0.25108 -0.82856,0.21091 -1.12985,-0.09039 L 14.52432,31.95665 C 14.22303,31.65536 14.18285,31.17831 14.42891,30.8268 l 1.35582,-1.863 c -0.4419,-0.75323 -0.80847,-1.58179 -1.03444,-2.46056 l -2.30991,-0.39168 c -0.42181,-0.0703 -0.73315,-0.4419 -0.73315,-0.86873 l 0,-2.29987 c 0,-0.43185 0.31134,-0.79843 0.73315,-0.86873 l 2.26472,-0.38666 c 0.21593,-0.9089 0.56744,-1.75754 1.03444,-2.53588 L 14.39376,17.25856 C 14.14268,16.90705 14.18285,16.43 14.48415,16.12871 l 0.80847,-0.80847 0.80345,-0.81851 c 0.30129,-0.30129 0.77834,-0.34147 1.12985,-0.09541 l 1.89313,1.34578 c 0.7683,-0.45194 1.59685,-0.79843 2.47563,-1.0244 l 0.38164,-2.28983 c 0.0703,-0.41679 0.43688,-0.72813 0.84864,-0.74821 l 2.29987,0 c 0.43185,0 0.79843,0.30631 0.86873,0.73315 l 0.38666,2.28983 c 0.87877,0.23099 1.70733,0.56744 2.47563,1.0244 l 1.89313,-1.34578 c 0.35151,-0.25108 0.82856,-0.21091 1.12985,0.09039 l 1.61694,1.61694 c 0.30129,0.30129 0.34147,0.77834 0.09541,1.12985 l -1.34578,1.89313 c 0.45194,0.7683 0.79843,1.59685 1.0244,2.47563 l 2.28983,0.38164 c 0.42181,0.0703 0.73315,0.4419 0.73315,0.86873 z m -8.53162,1.81279 5.33289,5.33791 -0.81349,0.81349 -5.33791,-5.33791 c -0.22597,-0.22095 -0.22597,-0.58752 0,-0.81349 0.22597,-0.22597 0.59254,-0.22597 0.81851,0 z"
       stroke-miterlimit="10"
       font-size="12"
       id="path61"
       inkscape:connector-curvature="0"
       style="font-weight:normal;font-size:12px;font-family:sans-serif;text-anchor:start;mix-blend-mode:normal;fill:#ffffff;stroke:none;stroke-width:0;stroke-linecap:butt;stroke-linejoin:miter;stroke-miterlimit:10;stroke-dasharray:none;stroke-dashoffset:0" />
  </g>
</svg>
