<?xml version="1.0" encoding="UTF-8" standalone="no"?>
<svg
   xmlns:dc="http://purl.org/dc/elements/1.1/"
   xmlns:cc="http://creativecommons.org/ns#"
   xmlns:rdf="http://www.w3.org/1999/02/22-rdf-syntax-ns#"
   xmlns:svg="http://www.w3.org/2000/svg"
   xmlns="http://www.w3.org/2000/svg"
   xmlns:sodipodi="http://sodipodi.sourceforge.net/DTD/sodipodi-0.dtd"
   xmlns:inkscape="http://www.inkscape.org/namespaces/inkscape"
   x="0"
   y="0"
   width="48"
   height="48"
   version="1.1"
   id="svg2"
   inkscape:version="0.91 r13725"
   sodipodi:docname="Fork.svg">
  <metadata
     id="metadata71">
    <rdf:RDF>
      <cc:Work
         rdf:about="">
        <dc:format>image/svg+xml</dc:format>
        <dc:type
           rdf:resource="http://purl.org/dc/dcmitype/StillImage" />
      </cc:Work>
    </rdf:RDF>
  </metadata>
  <sodipodi:namedview
     pagecolor="#ffffff"
     bordercolor="#666666"
     borderopacity="1"
     objecttolerance="10"
     gridtolerance="10"
     guidetolerance="10"
     inkscape:pageopacity="0"
     inkscape:pageshadow="2"
     inkscape:window-width="640"
     inkscape:window-height="480"
     id="namedview69"
     showgrid="false"
     inkscape:zoom="4.9166667"
     inkscape:cx="24"
     inkscape:cy="24"
     inkscape:window-x="0"
     inkscape:window-y="0"
     inkscape:window-maximized="0"
     inkscape:current-layer="svg2" />
  <defs
     id="defs4">
    <linearGradient
       x1="15.79293"
       y1="11.68966"
       x2="53.42027"
       y2="57.52354"
       gradientUnits="userSpaceOnUse"
       id="color-1">
      <stop
         offset="0"
         stop-color="#000000"
         stop-opacity="0"
         id="stop7" />
      <stop
         offset="1"
         stop-color="#000000"
         stop-opacity="0"
         id="stop9" />
    </linearGradient>
    <filter
       id="dropshadow">
      <feColorMatrix
         type="matrix"
         values="0 0 0 0 .05  0 0 0 0 .15  0 0 0 0 .1  0 0 0 .8 0"
         id="feColorMatrix12" />
      <feOffset
         dx="0"
         dy="1"
         id="feOffset14" />
      <feGaussianBlur
         stdDeviation="1"
         id="feGaussianBlur16"
         result="result1" />
      <feComposite
         in="SourceGraphic"
         id="feComposite18"
         in2="result1" />
    </filter>
  </defs>
  <g
     id="g3387">
    <g
       stroke-miterlimit="4"
       font-size="14"
       id="g22"
       style="font-size:14px;font-family:'Open Sans', sans-serif;fill:#000000" />
    <g
       stroke-miterlimit="4"
       font-size="14"
       id="g24"
       style="font-size:14px;font-family:'Open Sans', sans-serif;fill:#000000" />
    <g
       stroke-miterlimit="4"
       font-size="14"
       id="g26"
       style="font-size:14px;font-family:'Open Sans', sans-serif;fill:#000000" />
    <g
       stroke-miterlimit="4"
       font-size="14"
       id="g28"
       style="font-size:14px;font-family:'Open Sans', sans-serif;fill:#000000" />
    <g
       id="Capa_1"
       stroke-miterlimit="4"
       font-size="14"
       style="font-size:14px;font-family:'Open Sans', sans-serif;fill:#000000">
      <g
         id="g31" />
      <g
         id="g33" />
      <g
         id="g35" />
      <g
         id="g37" />
      <g
         id="g39" />
      <g
         id="g41" />
      <g
         id="g43" />
      <g
         id="g45" />
      <g
         id="g47" />
      <g
         id="g49" />
      <g
         id="g51" />
      <g
         id="g53" />
      <g
         id="g55" />
      <g
         id="g57" />
      <g
         id="g59" />
      <g
         id="g61" />
    </g>
    <path
       d="M 3,24 C 3,12.40202 12.40202,3 24,3 35.59798,3 45,12.40202 45,24 45,35.59798 35.59798,45 24,45 12.40202,45 3,35.59798 3,24 Z"
       stroke-miterlimit="10"
       id="path63"
       inkscape:connector-curvature="0"
       style="fill:#ef6c00;stroke-miterlimit:10;filter:url(#dropshadow)" />
    <path
       d="m 32.20707,16.81901 c 0,0.55565 -0.13912,1.07122 -0.41676,1.54676 -0.2778,0.47554 -0.65149,0.84704 -1.12203,1.114 -0.02128,3.06702 -1.22888,5.27914 -3.62245,6.63597 -0.72661,0.4062 -1.81142,0.83924 -3.25426,1.29883 -1.368,0.42731 -2.27365,0.80656 -2.71708,1.1382 -0.44342,0.33119 -0.66514,0.86534 -0.66514,1.60257 l 0,0.41676 c 0.4702,0.26685 0.84418,0.63864 1.12203,1.114 0.27774,0.47571 0.41664,0.99139 0.41664,1.54687 0,0.85473 -0.29925,1.58146 -0.89757,2.17973 -0.59827,0.59827 -1.32499,0.89763 -2.17984,0.89763 -0.8549,0 -1.58163,-0.29936 -2.18012,-0.89763 -0.59849,-0.59827 -0.89757,-1.32494 -0.89757,-2.17973 0,-0.55549 0.1389,-1.07117 0.41664,-1.54687 0.2778,-0.47537 0.65177,-0.84715 1.12203,-1.114 l 0,-13.14421 c -0.47026,-0.26696 -0.84423,-0.63835 -1.12203,-1.11389 -0.27774,-0.47554 -0.41664,-0.99122 -0.41664,-1.54687 0,-0.85479 0.2993,-1.58151 0.89757,-2.17984 0.59849,-0.59849 1.32505,-0.89763 2.18012,-0.89763 0.85501,0 1.58157,0.29936 2.17984,0.89763 0.59849,0.59832 0.89757,1.32505 0.89757,2.17984 0,0.55565 -0.1389,1.07134 -0.41664,1.54687 -0.2778,0.47554 -0.65183,0.84693 -1.12203,1.11389 l 0,7.96669 c 0.5771,-0.27802 1.39978,-0.58232 2.46853,-0.91374 0.58771,-0.18174 1.05539,-0.33933 1.40258,-0.47267 0.34719,-0.13379 0.72414,-0.29925 1.13012,-0.49693 0.40603,-0.19779 0.72128,-0.40867 0.94591,-0.63319 0.22458,-0.22452 0.4405,-0.49682 0.64936,-0.81745 0.20829,-0.32081 0.35775,-0.69197 0.44881,-1.114 0.09067,-0.42203 0.13587,-0.9111 0.13587,-1.46676 -0.47054,-0.26702 -0.84423,-0.63847 -1.12203,-1.114 -0.27786,-0.47548 -0.41636,-0.99111 -0.41636,-1.54676 0,-0.85507 0.29913,-1.58163 0.8974,-2.17995 0.59849,-0.59849 1.32516,-0.89757 2.17978,-0.89757 0.85501,0 1.58163,0.29925 2.18029,0.89757 0.59832,0.59849 0.89763,1.32505 0.89746,2.17989 z M 20.40958,33.23355 c 0,-0.42765 -0.14951,-0.79079 -0.44876,-1.09014 -0.2993,-0.29897 -0.66267,-0.44881 -1.08998,-0.44881 -0.42759,0 -0.7909,0.14968 -1.09014,0.44881 -0.29925,0.29936 -0.44881,0.6625 -0.44881,1.09014 0,0.42731 0.14974,0.79084 0.44881,1.08981 0.29925,0.2993 0.66255,0.44881 1.09014,0.44881 0.42731,0 0.79062,-0.14951 1.08998,-0.44881 0.29925,-0.29902 0.4487,-0.6625 0.44876,-1.08981 z m 0,-18.4662 c 0,-0.42748 -0.14951,-0.7909 -0.44876,-1.08986 -0.2993,-0.29913 -0.66267,-0.44881 -1.08998,-0.44881 -0.42759,0 -0.7909,0.14962 -1.09014,0.44881 -0.29925,0.29897 -0.44881,0.66238 -0.44881,1.08986 0,0.42759 0.14974,0.79073 0.44881,1.08998 0.29925,0.29925 0.66255,0.44881 1.09014,0.44881 0.42731,0 0.79062,-0.14957 1.08998,-0.44881 0.29925,-0.29908 0.4487,-0.66238 0.44876,-1.08998 z m 10.2587,2.05189 c 0,-0.42753 -0.14968,-0.79095 -0.44881,-1.08998 -0.29913,-0.29925 -0.66227,-0.44876 -1.08975,-0.44876 -0.4277,0 -0.79084,0.14945 -1.08998,0.44876 -0.29913,0.2993 -0.44881,0.6625 -0.44881,1.08998 0,0.42753 0.14968,0.7909 0.44881,1.08998 0.29891,0.29908 0.66227,0.44876 1.08998,0.44876 0.42748,0 0.79062,-0.14968 1.08975,-0.44876 0.29936,-0.29908 0.44881,-0.6625 0.44881,-1.08998 z"
       stroke-miterlimit="4"
       id="path67"
       inkscape:connector-curvature="0"
       style="fill:#ffffff;stroke-width:0" />
  </g>
</svg>
