<svg x="0" y="0" width="48" height="48" version="1.1" xmlns="http://www.w3.org/2000/svg" xmlns:xlink="http://www.w3.org/1999/xlink"><defs><linearGradient x1="15.79293" y1="11.68966" x2="53.42027" y2="57.52354" gradientUnits="userSpaceOnUse" id="color-1"><stop offset="0" stop-color="#000000" stop-opacity="0"></stop><stop offset="1" stop-color="#000000" stop-opacity="0"></stop></linearGradient><filter id="dropshadow"><feColorMatrix type="matrix" values="0 0 0 0 .05  0 0 0 0 .15  0 0 0 0 .1  0 0 0 .8 0"></feColorMatrix> <feOffset dx="0" dy="1"></feOffset> <feGaussianBlur stdDeviation="1"></feGaussianBlur> <feComposite in="SourceGraphic"></feComposite></filter></defs><g fill="none" stroke="none" stroke-width="none" stroke-linecap="butt" stroke-linejoin="miter" stroke-miterlimit="none" stroke-dasharray="" stroke-dashoffset="0" font-family="none" font-weight="normal" font-size="none" text-anchor="start" mix-blend-mode="normal"><g fill="#000000" stroke="none" stroke-width="1" stroke-miterlimit="4" font-family="&quot;Open Sans&quot;, sans-serif" font-size="14"></g><g fill="#000000" stroke="none" stroke-width="1" stroke-miterlimit="4" font-family="&quot;Open Sans&quot;, sans-serif" font-size="14"></g><g fill="#000000" stroke="none" stroke-width="1" stroke-miterlimit="4" font-family="&quot;Open Sans&quot;, sans-serif" font-size="14"></g><g fill="#000000" stroke="none" stroke-width="1" stroke-miterlimit="4" font-family="&quot;Open Sans&quot;, sans-serif" font-size="14"></g><g id="Capa_1" fill="#000000" stroke="none" stroke-width="1" stroke-miterlimit="4" font-family="&quot;Open Sans&quot;, sans-serif" font-size="14"><g></g><g></g><g></g><g></g><g></g><g></g><g></g><g></g><g></g><g></g><g></g><g></g><g></g><g></g><g></g><g></g></g><path d="M3,24c0,-11.59798 9.40202,-21 21,-21c11.59798,0 21,9.40202 21,21c0,11.59798 -9.40202,21 -21,21c-11.59798,0 -21,-9.40202 -21,-21z" fill="#ef6c00" stroke-width="1" stroke-miterlimit="10" font-family="sans-serif" font-size="12" filter="url(#dropshadow)"></path><path d="M26.16731,44.88952l-9.47681,-9.47681c0.00152,0.00152 0.00305,0.00305 0.00458,0.00457l-0.00505,-0.00505c-0.59818,-0.59817 -0.8971,-1.32469 -0.8971,-2.17925c0,-0.55548 0.1389,-1.07116 0.41664,-1.54687l1.166,1.166c0,0 0,-0.00001 0,-0.00001l-1.16599,-1.16599c0.2778,-0.47536 0.65177,-0.84715 1.12203,-1.114c0,0 1.16456,1.16456 1.16456,1.16456c0,0 0.00001,0 0.00001,0l-1.16457,-1.16457l0,-12.98972l-0.64068,-0.64068c-0.18387,-0.18386 -0.34432,-0.39311 -0.48136,-0.6277c-0.27774,-0.47553 -0.41664,-0.99122 -0.41664,-1.54687c0,-0.85479 0.2993,-1.58152 0.89757,-2.17984c0.59849,-0.5985 1.32505,-0.89763 2.18012,-0.89763c0.85502,0 1.58157,0.29936 2.17984,0.89763l5.13413,5.13413c-0.08835,-0.28803 -0.13245,-0.58882 -0.13245,-0.90235c0,-0.85507 0.29913,-1.58163 0.8974,-2.17995c0.59849,-0.59849 1.32516,-0.89757 2.17978,-0.89757c0.85502,0 1.58163,0.29925 2.18029,0.89757l13.3181,13.3181c-1.71864,9.01283 -9.1978,15.98262 -18.4604,16.9323z" fill="url(#color-1)" stroke-width="1" stroke-miterlimit="10" font-family="sans-serif" font-size="12"></path><path d="M32.20707,16.81901c0,0.55565 -0.13912,1.07122 -0.41676,1.54676c-0.2778,0.47554 -0.65149,0.84704 -1.12203,1.114c-0.02128,3.06702 -1.22888,5.27914 -3.62245,6.63597c-0.72661,0.4062 -1.81142,0.83924 -3.25426,1.29883c-1.368,0.42731 -2.27365,0.80656 -2.71708,1.1382c-0.44342,0.33119 -0.66514,0.86534 -0.66514,1.60257l0,0.41676c0.4702,0.26685 0.84418,0.63864 1.12203,1.114c0.27774,0.47571 0.41664,0.99139 0.41664,1.54687c0,0.85473 -0.29925,1.58146 -0.89757,2.17973c-0.59827,0.59827 -1.32499,0.89763 -2.17984,0.89763c-0.8549,0 -1.58163,-0.29936 -2.18012,-0.89763c-0.59849,-0.59827 -0.89757,-1.32494 -0.89757,-2.17973c0,-0.55549 0.1389,-1.07117 0.41664,-1.54687c0.2778,-0.47537 0.65177,-0.84715 1.12203,-1.114l0,-13.14421c-0.47026,-0.26696 -0.84423,-0.63835 -1.12203,-1.11389c-0.27774,-0.47554 -0.41664,-0.99122 -0.41664,-1.54687c0,-0.85479 0.2993,-1.58151 0.89757,-2.17984c0.59849,-0.59849 1.32505,-0.89763 2.18012,-0.89763c0.85501,0 1.58157,0.29936 2.17984,0.89763c0.59849,0.59832 0.89757,1.32505 0.89757,2.17984c0,0.55565 -0.1389,1.07134 -0.41664,1.54687c-0.2778,0.47554 -0.65183,0.84693 -1.12203,1.11389l0,7.96669c0.5771,-0.27802 1.39978,-0.58232 2.46853,-0.91374c0.58771,-0.18174 1.05539,-0.33933 1.40258,-0.47267c0.34719,-0.13379 0.72414,-0.29925 1.13012,-0.49693c0.40603,-0.19779 0.72128,-0.40867 0.94591,-0.63319c0.22458,-0.22452 0.4405,-0.49682 0.64936,-0.81745c0.20829,-0.32081 0.35775,-0.69197 0.44881,-1.114c0.09067,-0.42203 0.13587,-0.9111 0.13587,-1.46676c-0.47054,-0.26702 -0.84423,-0.63847 -1.12203,-1.114c-0.27786,-0.47548 -0.41636,-0.99111 -0.41636,-1.54676c0,-0.85507 0.29913,-1.58163 0.8974,-2.17995c0.59849,-0.59849 1.32516,-0.89757 2.17978,-0.89757c0.85501,0 1.58163,0.29925 2.18029,0.89757c0.59832,0.59849 0.89763,1.32505 0.89746,2.17989z M20.40958,33.23355c0,-0.42765 -0.14951,-0.79079 -0.44876,-1.09014c-0.2993,-0.29897 -0.66267,-0.44881 -1.08998,-0.44881c-0.42759,0 -0.7909,0.14968 -1.09014,0.44881c-0.29925,0.29936 -0.44881,0.6625 -0.44881,1.09014c0,0.42731 0.14974,0.79084 0.44881,1.08981c0.29925,0.2993 0.66255,0.44881 1.09014,0.44881c0.42731,0 0.79062,-0.14951 1.08998,-0.44881c0.29925,-0.29902 0.4487,-0.6625 0.44876,-1.08981z M20.40958,14.76735c0,-0.42748 -0.14951,-0.7909 -0.44876,-1.08986c-0.2993,-0.29913 -0.66267,-0.44881 -1.08998,-0.44881c-0.42759,0 -0.7909,0.14962 -1.09014,0.44881c-0.29925,0.29897 -0.44881,0.66238 -0.44881,1.08986c0,0.42759 0.14974,0.79073 0.44881,1.08998c0.29925,0.29925 0.66255,0.44881 1.09014,0.44881c0.42731,0 0.79062,-0.14957 1.08998,-0.44881c0.29925,-0.29908 0.4487,-0.66238 0.44876,-1.08998z M30.66828,16.81924c0,-0.42753 -0.14968,-0.79095 -0.44881,-1.08998c-0.29913,-0.29925 -0.66227,-0.44876 -1.08975,-0.44876c-0.4277,0 -0.79084,0.14945 -1.08998,0.44876c-0.29913,0.2993 -0.44881,0.6625 -0.44881,1.08998c0,0.42753 0.14968,0.7909 0.44881,1.08998c0.29891,0.29908 0.66227,0.44876 1.08998,0.44876c0.42748,0 0.79062,-0.14968 1.08975,-0.44876c0.29936,-0.29908 0.44881,-0.6625 0.44881,-1.08998z" fill="#ffffff" stroke="none" stroke-width="0" stroke-miterlimit="4" font-family="&quot;Open Sans&quot;, sans-serif" font-size="14"></path></g></svg>