<?xml version="1.0" encoding="UTF-8" standalone="no"?>
<svg
   xmlns:dc="http://purl.org/dc/elements/1.1/"
   xmlns:cc="http://creativecommons.org/ns#"
   xmlns:rdf="http://www.w3.org/1999/02/22-rdf-syntax-ns#"
   xmlns:svg="http://www.w3.org/2000/svg"
   xmlns="http://www.w3.org/2000/svg"
   xmlns:sodipodi="http://sodipodi.sourceforge.net/DTD/sodipodi-0.dtd"
   xmlns:inkscape="http://www.inkscape.org/namespaces/inkscape"
   x="0"
   y="0"
   width="48"
   height="48"
   version="1.1"
   id="svg2"
   inkscape:version="0.91 r13725"
   sodipodi:docname="SD.svg">
  <metadata
     id="metadata38">
    <rdf:RDF>
      <cc:Work
         rdf:about="">
        <dc:format>image/svg+xml</dc:format>
        <dc:type
           rdf:resource="http://purl.org/dc/dcmitype/StillImage" />
      </cc:Work>
    </rdf:RDF>
  </metadata>
  <sodipodi:namedview
     pagecolor="#ffffff"
     bordercolor="#666666"
     borderopacity="1"
     objecttolerance="10"
     gridtolerance="10"
     guidetolerance="10"
     inkscape:pageopacity="0"
     inkscape:pageshadow="2"
     inkscape:window-width="640"
     inkscape:window-height="480"
     id="namedview36"
     showgrid="false"
     inkscape:zoom="4.9166667"
     inkscape:cx="24"
     inkscape:cy="24"
     inkscape:window-x="0"
     inkscape:window-y="0"
     inkscape:window-maximized="0"
     inkscape:current-layer="svg2" />
  <defs
     id="defs4">
    <linearGradient
       x1="14.15173"
       y1="11.68966"
       x2="55.06147"
       y2="57.52354"
       gradientUnits="userSpaceOnUse"
       id="color-1">
      <stop
         offset="0"
         stop-color="#000000"
         stop-opacity="0.7"
         id="stop7" />
      <stop
         offset="1"
         stop-color="#000000"
         stop-opacity="0"
         id="stop9" />
    </linearGradient>
    <filter
       id="dropshadow">
      <feColorMatrix
         type="matrix"
         values="0 0 0 0 .05  0 0 0 0 .15  0 0 0 0 .1  0 0 0 .8 0"
         id="feColorMatrix12" />
      <feOffset
         dx="0"
         dy="1"
         id="feOffset14" />
      <feGaussianBlur
         stdDeviation="1"
         id="feGaussianBlur16"
         result="result1" />
      <feComposite
         in="SourceGraphic"
         id="feComposite18"
         in2="result1" />
    </filter>
  </defs>
  <g
     id="g3373">
    <g
       stroke-miterlimit="4"
       font-size="14"
       id="g22"
       style="font-size:14px;font-family:'Open Sans', sans-serif;fill:#000000" />
    <g
       stroke-miterlimit="4"
       font-size="14"
       id="g24"
       style="font-size:14px;font-family:'Open Sans', sans-serif;fill:#000000" />
    <g
       stroke-miterlimit="4"
       font-size="14"
       id="g26"
       style="font-size:14px;font-family:'Open Sans', sans-serif;fill:#000000" />
    <g
       stroke-miterlimit="4"
       font-size="14"
       id="g28"
       style="font-size:14px;font-family:'Open Sans', sans-serif;fill:#000000" />
    <path
       d="M 3,24 C 3,12.40202 12.40202,3 24,3 35.59798,3 45,12.40202 45,24 45,35.59798 35.59798,45 24,45 12.40202,45 3,35.59798 3,24 Z"
       stroke-miterlimit="10"
       id="path30"
       inkscape:connector-curvature="0"
       style="fill:#00796b;stroke-miterlimit:10;filter:url(#dropshadow)" />
    <path
       d="m 24.28594,44.99809 -9.41098,-9.41098 c -0.44625,-0.44625 -0.72323,-1.06177 -0.72323,-1.73884 l 0.02462,-14.77241 7.36158,-7.3862 9.84827,0 c 0.67707,0 1.29259,0.27698 1.73884,0.72323 l 11.87305,11.87305 c -0.15175,11.37102 -9.34113,20.5604 -20.71215,20.71215 z"
       stroke-miterlimit="10"
       id="path32"
       style="fill:url(#color-1);stroke-miterlimit:10"
       inkscape:connector-curvature="0" />
    <path
       d="m 33.84827,14.15173 0,19.69654 c 0,1.35414 -1.10793,2.46207 -2.46207,2.46207 l -14.77241,0 c -1.35414,0 -2.46207,-1.10793 -2.46207,-2.46207 l 0.02462,-14.77241 7.36158,-7.3862 9.84827,0 c 1.35414,0 2.46207,1.10793 2.46207,2.46207 z m -9.84827,0 -2.46207,0 0,4.92414 2.46207,0 z m 7.3862,0 -2.46207,0 0,4.92414 2.46207,0 z m -3.6931,0 -2.46207,0 0,4.92414 2.46207,0 z"
       stroke-miterlimit="4"
       id="path34"
       inkscape:connector-curvature="0"
       style="fill:#ffffff;stroke-width:0" />
  </g>
</svg>
