<?xml version="1.0" encoding="UTF-8" standalone="no"?>
<svg
   xmlns:dc="http://purl.org/dc/elements/1.1/"
   xmlns:cc="http://creativecommons.org/ns#"
   xmlns:rdf="http://www.w3.org/1999/02/22-rdf-syntax-ns#"
   xmlns:svg="http://www.w3.org/2000/svg"
   xmlns="http://www.w3.org/2000/svg"
   xmlns:sodipodi="http://sodipodi.sourceforge.net/DTD/sodipodi-0.dtd"
   xmlns:inkscape="http://www.inkscape.org/namespaces/inkscape"
   x="0"
   y="0"
   width="48"
   height="48"
   version="1.1"
   id="svg2"
   inkscape:version="0.91 r13725"
   sodipodi:docname="Sensor Pressed.svg">
  <metadata
     id="metadata73">
    <rdf:RDF>
      <cc:Work
         rdf:about="">
        <dc:format>image/svg+xml</dc:format>
        <dc:type
           rdf:resource="http://purl.org/dc/dcmitype/StillImage" />
      </cc:Work>
    </rdf:RDF>
  </metadata>
  <sodipodi:namedview
     pagecolor="#ffffff"
     bordercolor="#666666"
     borderopacity="1"
     objecttolerance="10"
     gridtolerance="10"
     guidetolerance="10"
     inkscape:pageopacity="0"
     inkscape:pageshadow="2"
     inkscape:window-width="640"
     inkscape:window-height="480"
     id="namedview71"
     showgrid="false"
     inkscape:zoom="4.9166667"
     inkscape:cx="24"
     inkscape:cy="24"
     inkscape:window-x="0"
     inkscape:window-y="0"
     inkscape:window-maximized="0"
     inkscape:current-layer="svg2" />
  <defs
     id="defs4">
    <linearGradient
       x1="11.68966"
       y1="11.68966"
       x2="57.52354"
       y2="57.52354"
       gradientUnits="userSpaceOnUse"
       id="color-1">
      <stop
         offset="0"
         stop-color="#000000"
         stop-opacity="0"
         id="stop7" />
      <stop
         offset="1"
         stop-color="#000000"
         stop-opacity="0"
         id="stop9" />
    </linearGradient>
    <filter
       id="dropshadow">
      <feColorMatrix
         type="matrix"
         values="0 0 0 0 .05  0 0 0 0 .15  0 0 0 0 .1  0 0 0 .8 0"
         id="feColorMatrix12" />
      <feOffset
         dx="0"
         dy="1"
         id="feOffset14" />
      <feGaussianBlur
         stdDeviation="1"
         id="feGaussianBlur16"
         result="result1" />
      <feComposite
         in="SourceGraphic"
         id="feComposite18"
         in2="result1" />
    </filter>
  </defs>
  <g
     id="g3389">
    <g
       stroke-miterlimit="4"
       font-size="14"
       id="g22"
       style="font-size:14px;font-family:'Open Sans', sans-serif;fill:#000000" />
    <g
       stroke-miterlimit="4"
       font-size="14"
       id="g24"
       style="font-size:14px;font-family:'Open Sans', sans-serif;fill:#000000" />
    <g
       stroke-miterlimit="4"
       font-size="14"
       id="g26"
       style="font-size:14px;font-family:'Open Sans', sans-serif;fill:#000000" />
    <g
       stroke-miterlimit="4"
       font-size="14"
       id="g28"
       style="font-size:14px;font-family:'Open Sans', sans-serif;fill:#000000" />
    <g
       id="Capa_1"
       stroke-miterlimit="4"
       font-size="14"
       style="font-size:14px;font-family:'Open Sans', sans-serif;fill:#000000">
      <g
         id="g31" />
      <g
         id="g33" />
      <g
         id="g35" />
      <g
         id="g37" />
      <g
         id="g39" />
      <g
         id="g41" />
      <g
         id="g43" />
      <g
         id="g45" />
      <g
         id="g47" />
      <g
         id="g49" />
      <g
         id="g51" />
      <g
         id="g53" />
      <g
         id="g55" />
      <g
         id="g57" />
      <g
         id="g59" />
      <g
         id="g61" />
    </g>
    <g
       stroke-miterlimit="4"
       font-size="14"
       id="g63"
       style="font-size:14px;font-family:'Open Sans', sans-serif;fill:#000000" />
    <path
       d="M 3,24 C 3,12.40202 12.40202,3 24,3 35.59798,3 45,12.40202 45,24 45,35.59798 35.59798,45 24,45 12.40202,45 3,35.59798 3,24 Z"
       stroke-miterlimit="10"
       id="path65"
       inkscape:connector-curvature="0"
       style="fill:#0091ea;stroke-miterlimit:10;filter:url(#dropshadow)" />
    <path
       d="m 36.31034,24 c 0,6.78747 -5.52287,12.31034 -12.31034,12.31034 -6.78747,0 -12.31034,-5.52287 -12.31034,-12.31034 0,-6.78747 5.52287,-12.31034 12.31034,-12.31034 6.78747,0 12.31034,5.52287 12.31034,12.31034 z m -2.23825,0 c 0,-5.55084 -4.51566,-10.07209 -10.07209,-10.07209 -5.55644,0 -10.07209,4.52125 -10.07209,10.07209 0,5.55084 4.51566,10.07209 10.07209,10.07209 5.55644,0 10.07209,-4.52125 10.07209,-10.07209 z m -8.39341,-4.47649 -3.35736,0 c -0.92887,0 -1.67868,-0.74981 -1.67868,-1.67868 0,-0.92887 0.74981,-1.67868 1.67868,-1.67868 l 3.35736,0 c 0.92887,0 1.67868,0.74981 1.67868,1.67868 0,0.92887 -0.74981,1.67868 -1.67868,1.67868 z m -7.83385,5.59561 c -0.92887,0 -1.67868,-0.74981 -1.67868,-1.67868 0,-0.92887 0.74981,-1.67868 1.67868,-1.67868 0.92887,0 1.67868,0.74981 1.67868,1.67868 0,0.92887 -0.74981,1.67868 -1.67868,1.67868 z m 3.91693,3.91693 c 0,0.92887 -0.74981,1.67868 -1.67868,1.67868 -0.92887,0 -1.67868,-0.74981 -1.67868,-1.67868 0,-0.92887 0.74981,-1.67868 1.67868,-1.67868 0.92887,0 1.67868,0.74981 1.67868,1.67868 z m 10.07209,-5.59561 c 0,0.92887 -0.74981,1.67868 -1.67868,1.67868 -0.92887,0 -1.67868,-0.74981 -1.67868,-1.67868 0,-0.92887 0.74981,-1.67868 1.67868,-1.67868 0.92887,0 1.67868,0.74981 1.67868,1.67868 z m -2.23824,5.59561 c 0,0.92887 -0.74981,1.67868 -1.67868,1.67868 -0.92887,0 -1.67868,-0.74981 -1.67868,-1.67868 0,-0.92887 0.74981,-1.67868 1.67868,-1.67868 0.92887,0 1.67868,0.74981 1.67868,1.67868 z"
       stroke-miterlimit="4"
       id="path69"
       inkscape:connector-curvature="0"
       style="fill:#ffffff;stroke-width:0" />
  </g>
</svg>
