<svg x="0" y="0" width="48" height="48" version="1.1" xmlns="http://www.w3.org/2000/svg" xmlns:xlink="http://www.w3.org/1999/xlink"><defs><linearGradient x1="11.68966" y1="11.68966" x2="57.52354" y2="57.52354" gradientUnits="userSpaceOnUse" id="color-1"><stop offset="0" stop-color="#000000" stop-opacity="0"></stop><stop offset="1" stop-color="#000000" stop-opacity="0"></stop></linearGradient><filter id="dropshadow"><feColorMatrix type="matrix" values="0 0 0 0 .05  0 0 0 0 .15  0 0 0 0 .1  0 0 0 .8 0"></feColorMatrix> <feOffset dx="0" dy="1"></feOffset> <feGaussianBlur stdDeviation="1"></feGaussianBlur> <feComposite in="SourceGraphic"></feComposite></filter></defs><g fill="none" stroke="none" stroke-width="none" stroke-linecap="butt" stroke-linejoin="miter" stroke-miterlimit="none" stroke-dasharray="" stroke-dashoffset="0" font-family="none" font-weight="normal" font-size="none" text-anchor="start" mix-blend-mode="normal"><g fill="#000000" stroke="none" stroke-width="1" stroke-miterlimit="4" font-family="&quot;Open Sans&quot;, sans-serif" font-size="14"></g><g fill="#000000" stroke="none" stroke-width="1" stroke-miterlimit="4" font-family="&quot;Open Sans&quot;, sans-serif" font-size="14"></g><g fill="#000000" stroke="none" stroke-width="1" stroke-miterlimit="4" font-family="&quot;Open Sans&quot;, sans-serif" font-size="14"></g><g fill="#000000" stroke="none" stroke-width="1" stroke-miterlimit="4" font-family="&quot;Open Sans&quot;, sans-serif" font-size="14"></g><g id="Capa_1" fill="#000000" stroke="none" stroke-width="1" stroke-miterlimit="4" font-family="&quot;Open Sans&quot;, sans-serif" font-size="14"><g></g><g></g><g></g><g></g><g></g><g></g><g></g><g></g><g></g><g></g><g></g><g></g><g></g><g></g><g></g><g></g></g><g fill="#000000" stroke="none" stroke-width="1" stroke-miterlimit="4" font-family="&quot;Open Sans&quot;, sans-serif" font-size="14"></g><path d="M3,24c0,-11.59798 9.40202,-21 21,-21c11.59798,0 21,9.40202 21,21c0,11.59798 -9.40202,21 -21,21c-11.59798,0 -21,-9.40202 -21,-21z" fill="#0091ea" stroke-width="1" stroke-miterlimit="10" font-family="sans-serif" font-size="12" filter="url(#dropshadow)"></path><path d="M27.33561,44.73655l-12.03608,-12.03608c-2.22915,-2.22915 -3.60987,-5.30673 -3.60987,-8.70047c0,-6.78747 5.52287,-12.31034 12.31034,-12.31034c3.39374,0 6.47132,1.38072 8.70047,3.60987l12.03608,12.03608c-1.42467,8.92643 -8.47451,15.97627 -17.40094,17.40094z" fill="url(#color-1)" stroke-width="1" stroke-miterlimit="10" font-family="sans-serif" font-size="12"></path><path d="M36.31034,24c0,6.78747 -5.52287,12.31034 -12.31034,12.31034c-6.78747,0 -12.31034,-5.52287 -12.31034,-12.31034c0,-6.78747 5.52287,-12.31034 12.31034,-12.31034c6.78747,0 12.31034,5.52287 12.31034,12.31034z M34.07209,24c0,-5.55084 -4.51566,-10.07209 -10.07209,-10.07209c-5.55644,0 -10.07209,4.52125 -10.07209,10.07209c0,5.55084 4.51566,10.07209 10.07209,10.07209c5.55644,0 10.07209,-4.52125 10.07209,-10.07209z M25.67868,19.52351l-3.35736,0c-0.92887,0 -1.67868,-0.74981 -1.67868,-1.67868c0,-0.92887 0.74981,-1.67868 1.67868,-1.67868l3.35736,0c0.92887,0 1.67868,0.74981 1.67868,1.67868c0,0.92887 -0.74981,1.67868 -1.67868,1.67868z M17.84483,25.11912c-0.92887,0 -1.67868,-0.74981 -1.67868,-1.67868c0,-0.92887 0.74981,-1.67868 1.67868,-1.67868c0.92887,0 1.67868,0.74981 1.67868,1.67868c0,0.92887 -0.74981,1.67868 -1.67868,1.67868z M21.76176,29.03605c0,0.92887 -0.74981,1.67868 -1.67868,1.67868c-0.92887,0 -1.67868,-0.74981 -1.67868,-1.67868c0,-0.92887 0.74981,-1.67868 1.67868,-1.67868c0.92887,0 1.67868,0.74981 1.67868,1.67868z M31.83385,23.44044c0,0.92887 -0.74981,1.67868 -1.67868,1.67868c-0.92887,0 -1.67868,-0.74981 -1.67868,-1.67868c0,-0.92887 0.74981,-1.67868 1.67868,-1.67868c0.92887,0 1.67868,0.74981 1.67868,1.67868z M29.59561,29.03605c0,0.92887 -0.74981,1.67868 -1.67868,1.67868c-0.92887,0 -1.67868,-0.74981 -1.67868,-1.67868c0,-0.92887 0.74981,-1.67868 1.67868,-1.67868c0.92887,0 1.67868,0.74981 1.67868,1.67868z" fill="#ffffff" stroke="none" stroke-width="0" stroke-miterlimit="4" font-family="&quot;Open Sans&quot;, sans-serif" font-size="14"></path></g></svg>