<?xml version="1.0" encoding="UTF-8" standalone="no"?>
<svg
   xmlns:dc="http://purl.org/dc/elements/1.1/"
   xmlns:cc="http://creativecommons.org/ns#"
   xmlns:rdf="http://www.w3.org/1999/02/22-rdf-syntax-ns#"
   xmlns:svg="http://www.w3.org/2000/svg"
   xmlns="http://www.w3.org/2000/svg"
   xmlns:sodipodi="http://sodipodi.sourceforge.net/DTD/sodipodi-0.dtd"
   xmlns:inkscape="http://www.inkscape.org/namespaces/inkscape"
   x="0"
   y="0"
   width="48"
   height="48"
   version="1.1"
   id="svg2"
   inkscape:version="0.91 r13725"
   sodipodi:docname="Chip.svg">
  <metadata
     id="metadata32">
    <rdf:RDF>
      <cc:Work
         rdf:about="">
        <dc:format>image/svg+xml</dc:format>
        <dc:type
           rdf:resource="http://purl.org/dc/dcmitype/StillImage" />
      </cc:Work>
    </rdf:RDF>
  </metadata>
  <sodipodi:namedview
     pagecolor="#ffffff"
     bordercolor="#666666"
     borderopacity="1"
     objecttolerance="10"
     gridtolerance="10"
     guidetolerance="10"
     inkscape:pageopacity="0"
     inkscape:pageshadow="2"
     inkscape:window-width="640"
     inkscape:window-height="480"
     id="namedview30"
     showgrid="false"
     inkscape:zoom="4.9166667"
     inkscape:cx="24"
     inkscape:cy="24"
     inkscape:window-x="0"
     inkscape:window-y="0"
     inkscape:window-maximized="0"
     inkscape:current-layer="svg2" />
  <defs
     id="defs4">
    <linearGradient
       x1="11.68966"
       y1="11.68966"
       x2="57.52354"
       y2="57.52354"
       gradientUnits="userSpaceOnUse"
       id="color-1">
      <stop
         offset="0"
         stop-color="#000000"
         stop-opacity="0.7"
         id="stop7" />
      <stop
         offset="1"
         stop-color="#000000"
         stop-opacity="0"
         id="stop9" />
    </linearGradient>
    <filter
       id="dropshadow">
      <feColorMatrix
         type="matrix"
         values="0 0 0 0 .05  0 0 0 0 .15  0 0 0 0 .1  0 0 0 .8 0"
         id="feColorMatrix12" />
      <feOffset
         dx="0"
         dy="1"
         id="feOffset14" />
      <feGaussianBlur
         stdDeviation="1"
         id="feGaussianBlur16"
         result="result1" />
      <feComposite
         in="SourceGraphic"
         id="feComposite18"
         in2="result1" />
    </filter>
  </defs>
  <g
     id="g3364">
    <g
       stroke-miterlimit="4"
       font-size="14"
       id="g22"
       style="font-size:14px;font-family:'Open Sans', sans-serif;fill:#ffffff" />
    <path
       d="M 3,24 C 3,12.40202 12.40202,3 24,3 35.59798,3 45,12.40202 45,24 45,35.59798 35.59798,45 24,45 12.40202,45 3,35.59798 3,24 Z"
       stroke-miterlimit="10"
       id="path24"
       inkscape:connector-curvature="0"
       style="fill:#d50000;stroke-miterlimit:10;filter:url(#dropshadow)" />
    <path
       d="M 27.21344,44.75568 15.22888,32.77112 c -0.49583,-0.49583 -0.80359,-1.17974 -0.80359,-1.93204 l -2.73563,-2.73563 0,-2.73563 2.73563,0 c 0,0 0,-10e-6 0,-10e-6 0,0 -2.73563,-2.73563 -2.73563,-2.73563 l 0,-2.73563 2.73563,0 0,-2.73563 c 0,-1.5046 1.23103,-2.73563 2.73563,-2.73563 l 2.73563,0 0,-2.73563 2.73563,0 5.47126,5.47126 10e-6,0 -2.73563,-2.73563 0,-2.73563 2.73563,0 c 0,0 2.73563,2.73563 2.73563,2.73563 0.7523,0 1.43621,0.30776 1.93204,0.80359 l 11.98456,11.98456 c -1.38583,9.02498 -8.51726,16.15641 -17.54224,17.54224 z"
       stroke-miterlimit="10"
       id="path26"
       style="fill:url(#color-1);stroke-miterlimit:10"
       inkscape:connector-curvature="0" />
    <path
       d="m 33.57471,22.63218 0,2.73563 2.73563,0 0,2.73563 -2.73563,0 0,2.73563 c 0,1.5046 -1.23103,2.73563 -2.73563,2.73563 l -2.73563,0 0,2.73563 -2.73563,0 0,-2.73563 -2.73563,0 0,2.73563 -2.73563,0 0,-2.73563 -2.73563,0 c -1.5046,0 -2.73563,-1.23103 -2.73563,-2.73563 l 0,-2.73563 -2.73563,0 0,-2.73563 2.73563,0 0,-2.73563 -2.73563,0 0,-2.73563 2.73563,0 0,-2.73563 c 0,-1.5046 1.23103,-2.73563 2.73563,-2.73563 l 2.73563,0 0,-2.73563 2.73563,0 0,2.73563 2.73563,0 0,-2.73563 2.73563,0 0,2.73563 2.73563,0 c 1.5046,0 2.73563,1.23103 2.73563,2.73563 l 0,2.73563 2.73563,0 0,2.73563 z m -2.73563,-5.47126 -13.67815,0 0,13.67815 13.67815,0 z m -2.73563,10.94253 -8.20689,0 0,-8.20689 8.20689,0 z m -2.73563,-5.47127 -2.73563,0 0,2.73563 2.73563,0 z"
       stroke-miterlimit="10"
       id="path28"
       inkscape:connector-curvature="0"
       style="fill:#ffffff;stroke-width:0;stroke-miterlimit:10" />
  </g>
</svg>
