<svg x="0" y="0" width="48" height="48" version="1.1" xmlns="http://www.w3.org/2000/svg" xmlns:xlink="http://www.w3.org/1999/xlink"><defs><linearGradient x1="11.68966" y1="11.68966" x2="57.52354" y2="57.52354" gradientUnits="userSpaceOnUse" id="color-1"><stop offset="0" stop-color="#000000" stop-opacity="0"></stop><stop offset="1" stop-color="#000000" stop-opacity="0"></stop></linearGradient><filter id="dropshadow"><feColorMatrix type="matrix" values="0 0 0 0 .05  0 0 0 0 .15  0 0 0 0 .1  0 0 0 .8 0"></feColorMatrix> <feOffset dx="0" dy="1"></feOffset> <feGaussianBlur stdDeviation="1"></feGaussianBlur> <feComposite in="SourceGraphic"></feComposite></filter></defs><g fill="none" stroke="none" stroke-width="none" stroke-linecap="butt" stroke-linejoin="miter" stroke-miterlimit="none" stroke-dasharray="" stroke-dashoffset="0" font-family="none" font-weight="normal" font-size="none" text-anchor="start" mix-blend-mode="normal"><g fill="#ffffff" stroke="none" stroke-width="1" stroke-miterlimit="4" font-family="&quot;Open Sans&quot;, sans-serif" font-size="14"></g><path d="M3,24c0,-11.59798 9.40202,-21 21,-21c11.59798,0 21,9.40202 21,21c0,11.59798 -9.40202,21 -21,21c-11.59798,0 -21,-9.40202 -21,-21z" fill="#d50000" stroke-width="1" stroke-miterlimit="10" font-family="sans-serif" font-size="12" filter="url(#dropshadow)"></path><path d="M27.21344,44.75568l-11.98456,-11.98456c-0.49583,-0.49583 -0.80359,-1.17974 -0.80359,-1.93204l-2.73563,-2.73563l0,-2.73563l2.73563,0c0,0 0,-0.00001 0,-0.00001c0,0 -2.73563,-2.73563 -2.73563,-2.73563l0,-2.73563l2.73563,0l0,-2.73563c0,-1.5046 1.23103,-2.73563 2.73563,-2.73563l2.73563,0l0,-2.73563l2.73563,0l5.47126,5.47126l0.00001,0l-2.73563,-2.73563l0,-2.73563l2.73563,0c0,0 2.73563,2.73563 2.73563,2.73563c0.7523,0 1.43621,0.30776 1.93204,0.80359l11.98456,11.98456c-1.38583,9.02498 -8.51726,16.15641 -17.54224,17.54224z" fill="url(#color-1)" stroke-width="1" stroke-miterlimit="10" font-family="sans-serif" font-size="12"></path><path d="M33.57471,22.63218l0,2.73563l2.73563,0l0,2.73563l-2.73563,0l0,2.73563c0,1.5046 -1.23103,2.73563 -2.73563,2.73563l-2.73563,0l0,2.73563l-2.73563,0l0,-2.73563l-2.73563,0l0,2.73563l-2.73563,0l0,-2.73563l-2.73563,0c-1.5046,0 -2.73563,-1.23103 -2.73563,-2.73563l0,-2.73563l-2.73563,0l0,-2.73563l2.73563,0l0,-2.73563l-2.73563,0l0,-2.73563l2.73563,0l0,-2.73563c0,-1.5046 1.23103,-2.73563 2.73563,-2.73563l2.73563,0l0,-2.73563l2.73563,0l0,2.73563l2.73563,0l0,-2.73563l2.73563,0l0,2.73563l2.73563,0c1.5046,0 2.73563,1.23103 2.73563,2.73563l0,2.73563l2.73563,0l0,2.73563z M30.83908,17.16092l-13.67815,0l0,13.67815l13.67815,0z M28.10345,28.10345l-8.20689,0l0,-8.20689l8.20689,0z M25.36782,22.63218l-2.73563,0l0,2.73563l2.73563,0z" fill="#ffffff" stroke-width="0" stroke-miterlimit="10" font-family="sans-serif" font-size="12"></path></g></svg>