<svg x="0" y="0" width="48" height="48" version="1.1" xmlns="http://www.w3.org/2000/svg" xmlns:xlink="http://www.w3.org/1999/xlink"><defs><linearGradient x1="11.68966" y1="14.15173" x2="57.52354" y2="55.06147" gradientUnits="userSpaceOnUse" id="color-1"><stop offset="0" stop-color="#000000" stop-opacity="0.7"></stop><stop offset="1" stop-color="#000000" stop-opacity="0"></stop></linearGradient><filter id="dropshadow"><feColorMatrix type="matrix" values="0 0 0 0 .05  0 0 0 0 .15  0 0 0 0 .1  0 0 0 .8 0"></feColorMatrix> <feOffset dx="0" dy="1"></feOffset> <feGaussianBlur stdDeviation="1"></feGaussianBlur> <feComposite in="SourceGraphic"></feComposite></filter></defs><g fill="none" stroke="none" stroke-width="none" stroke-linecap="butt" stroke-linejoin="miter" stroke-miterlimit="none" stroke-dasharray="" stroke-dashoffset="0" font-family="none" font-weight="normal" font-size="none" text-anchor="start" mix-blend-mode="normal"><g fill="#ffffff" stroke="none" stroke-width="1" stroke-miterlimit="4" font-family="&quot;Open Sans&quot;, sans-serif" font-size="14"></g><path d="M3,24c0,-11.59798 9.40202,-21 21,-21c11.59798,0 21,9.40202 21,21c0,11.59798 -9.40202,21 -21,21c-11.59798,0 -21,-9.40202 -21,-21z" fill="#ffab00" stroke-width="1" stroke-miterlimit="10" font-family="sans-serif" font-size="12" filter="url(#dropshadow)"></path><path d="M24.28594,44.99809l-11.87305,-11.87305c-0.44625,-0.44625 -0.72323,-1.06177 -0.72323,-1.73884l0.01231,-14.77241c0.00001,-1.35414 1.09562,-2.46206 2.44976,-2.46206l7.3862,0c0,0 2.46207,2.46207 2.46207,2.46207l9.84827,0c0.67707,0 1.29259,0.27698 1.73884,0.72323l9.25456,9.25456c-1.26553,10.28285 -9.96425,18.26516 -20.55573,18.4065z" fill="url(#color-1)" stroke-width="1" stroke-miterlimit="10" font-family="sans-serif" font-size="12"></path><path d="M36.31034,19.07586l0,12.31034c0,1.35414 -1.10793,2.46207 -2.46207,2.46207l-19.69654,0c-1.35414,0 -2.46207,-1.10793 -2.46207,-2.46207l0.01231,-14.77241c0,-1.35414 1.09562,-2.46207 2.44976,-2.46207l7.3862,0l2.46207,2.46207l9.84827,0c1.35414,0 2.46207,1.10793 2.46207,2.46207z M33.84827,19.07586l-19.69654,0l0,12.31034l19.69654,0z" fill="#ffffff" stroke-width="0" stroke-miterlimit="10" font-family="sans-serif" font-size="12"></path></g></svg>