<?xml version="1.0" encoding="UTF-8" standalone="no"?>
<svg
   xmlns:dc="http://purl.org/dc/elements/1.1/"
   xmlns:cc="http://creativecommons.org/ns#"
   xmlns:rdf="http://www.w3.org/1999/02/22-rdf-syntax-ns#"
   xmlns:svg="http://www.w3.org/2000/svg"
   xmlns="http://www.w3.org/2000/svg"
   xmlns:sodipodi="http://sodipodi.sourceforge.net/DTD/sodipodi-0.dtd"
   xmlns:inkscape="http://www.inkscape.org/namespaces/inkscape"
   x="0"
   y="0"
   width="48"
   height="48"
   version="1.1"
   id="svg2"
   inkscape:version="0.91 r13725"
   sodipodi:docname="PB Free Pressed.svg">
  <metadata
     id="metadata58">
    <rdf:RDF>
      <cc:Work
         rdf:about="">
        <dc:format>image/svg+xml</dc:format>
        <dc:type
           rdf:resource="http://purl.org/dc/dcmitype/StillImage" />
      </cc:Work>
    </rdf:RDF>
  </metadata>
  <sodipodi:namedview
     pagecolor="#ffffff"
     bordercolor="#666666"
     borderopacity="1"
     objecttolerance="10"
     gridtolerance="10"
     guidetolerance="10"
     inkscape:pageopacity="0"
     inkscape:pageshadow="2"
     inkscape:window-width="1440"
     inkscape:window-height="848"
     id="namedview56"
     showgrid="false"
     inkscape:zoom="13.906433"
     inkscape:cx="32.869528"
     inkscape:cy="22.915357"
     inkscape:window-x="-8"
     inkscape:window-y="-8"
     inkscape:window-maximized="1"
     inkscape:current-layer="svg2" />
  <defs
     id="defs4">
    <linearGradient
       x1="10.63223"
       y1="11.08811"
       x2="72.53012"
       y2="69.51911"
       gradientUnits="userSpaceOnUse"
       id="color-1">
      <stop
         offset="0"
         stop-color="#000000"
         stop-opacity="0.7"
         id="stop7" />
      <stop
         offset="1"
         stop-color="#000000"
         stop-opacity="0"
         id="stop9" />
    </linearGradient>
    <filter
       id="dropshadow">
      <feColorMatrix
         type="matrix"
         values="0 0 0 0 .05  0 0 0 0 .15  0 0 0 0 .1  0 0 0 .8 0"
         id="feColorMatrix12" />
      <feOffset
         dx="0"
         dy="1"
         id="feOffset14" />
      <feGaussianBlur
         stdDeviation="1"
         id="feGaussianBlur16"
         result="result1" />
      <feComposite
         in="SourceGraphic"
         id="feComposite18"
         in2="result1" />
    </filter>
  </defs>
  <g
     style="font-size:14px;font-family:'Open Sans', sans-serif;fill:#000000"
     font-size="14"
     stroke-miterlimit="4"
     id="g29">
    <g
       id="g3344" />
  </g>
  <g
     style="font-size:122.49700165px;font-family:MyriadPro-Bold;fill:#010101"
     font-size="122.497"
     stroke-miterlimit="4"
     id="g32">
    <g
       id="g4160">
      <g
         id="g35" />
    </g>
  </g>
  <g
     style="font-size:14px;font-family:'Open Sans', sans-serif;fill:#000000"
     font-size="14"
     stroke-miterlimit="4"
     id="g37">
    <g
       id="g39" />
  </g>
  <g
     style="font-size:122.49700165px;font-family:MyriadPro-Bold;fill:#010101"
     font-size="122.497"
     stroke-miterlimit="4"
     id="g41">
    <g
       id="g43">
      <g
         id="g45" />
    </g>
  </g>
  <g
     style="font-size:14px;font-family:'Open Sans', sans-serif;fill:#000000"
     font-size="14"
     stroke-miterlimit="4"
     id="g47">
    <g
       id="g3475" />
  </g>
  <path
     style="fill:#00c853;stroke-miterlimit:10;filter:url(#dropshadow)"
     inkscape:connector-curvature="0"
     id="path50"
     stroke-miterlimit="10"
     d="M 3,24 C 3,12.40202 12.40202,3 24,3 35.59798,3 45,12.40202 45,24 45,35.59798 35.59798,45 24,45 12.40202,45 3,35.59798 3,24 Z" />
  <path
     style="fill:#ffffff;stroke-width:0;stroke-miterlimit:10"
     inkscape:connector-curvature="0"
     id="path54"
     stroke-miterlimit="10"
     d="m 31.73943,34.87993 c 0,0 -0.23942,-0.68519 -0.30809,-1.65231 -2.20353,1.89264 -5.06856,3.03571 -8.1978,3.03571 -6.94442,0 -12.60131,-5.6295 -12.60131,-12.58761 0,-6.95812 5.6432,-12.58761 12.60131,-12.58761 6.95812,0 12.58761,5.6295 12.58761,12.58761 0,1.36491 -0.21715,2.6787 -0.61866,3.9089 1.23801,-0.42998 2.8631,-0.66957 4.98803,-0.6079 0,0 0.21915,0.09588 0,0.39722 0,0 -1.47928,1.23274 -2.39699,5.01313 -0.9177,3.78039 -4.17761,4.05433 -5.43774,2.94487 0,0 -0.73964,0.9314 -1.01358,1.94498 l -0.69855,-0.4657 c -0.0137,0.0137 0.49309,-0.53419 1.09577,-1.93129 z M 30.69144,29.55916 29.5759,28.44579 c 0.41504,-0.13737 0.76376,-0.38118 1.04616,-0.73143 0.46993,-0.58192 0.70489,-1.49152 0.70489,-2.7288 0,-1.12994 -0.17424,-1.98587 -0.52273,-2.56778 -0.34849,-0.58757 -0.91081,-0.88135 -1.68699,-0.88135 -0.43297,0 -0.87121,0.10169 -1.31474,0.30508 -0.44353,0.19774 -0.85537,0.4548 -1.23554,0.77118 l 0,2.82999 -1.48898,-1.4861 0,3.31066 -2.8945,-2.91712 c 0.26235,-0.1722 0.50319,-0.37564 0.72252,-0.61032 0.31983,-0.34222 0.56911,-0.74376 0.74782,-1.20462 l -1.34734,-1.34473 c 0.0037,-0.06701 0.0055,-0.13531 0.0055,-0.20488 l 0,0 c 0,-0.43503 -0.07128,-0.81356 -0.21384,-1.13559 -0.14256,-0.32203 -0.35905,-0.58474 -0.64945,-0.78813 -0.25344,-0.17514 -0.54385,-0.29943 -0.87121,-0.37288 -0.24578,-0.06036 -0.5423,-0.09769 -0.88955,-0.11199 l -1.45014,-1.44733 -2.00846,0 0,1.2198 -0.8853,-0.89222 c -1.27383,1.60256 -2.13674,3.80779 -2.13674,6.21847 0,5.53362 4.47894,10.01256 10.01256,10.01256 2.38329,0 4.56113,-0.83552 6.14999,-2.09565 l -1.79832,-1.81237 c 0.03471,0.01232 0.06946,0.02424 0.10427,0.03578 0.37489,0.12994 0.81313,0.19491 1.31474,0.19491 0.53857,0 1.03226,-0.11017 1.48106,-0.33051 0.0743,-0.03741 0.14759,-0.07784 0.21986,-0.12129 z m -12.45365,-12.4295 1.19127,0 c 0.70753,0 1.30682,0.06497 1.79787,0.19491 0.49105,0.12429 0.92666,0.32203 1.30682,0.59322 0.44881,0.32203 0.79465,0.72316 1.03754,1.20338 0.24816,0.48022 0.37225,1.08757 0.37225,1.82203 0,0.55932 -0.0924,1.07909 -0.2772,1.55931 -0.0041,0.01092 -0.0083,0.02181 -0.01251,0.03267 l 1.42416,1.4214 0,-7.39471 1.48898,0 0,4.71184 c 0.41713,-0.36723 0.86065,-0.66666 1.33058,-0.8983 0.46993,-0.23729 0.99794,-0.35593 1.58403,-0.35593 1.04546,0 1.86915,0.42938 2.47108,1.28813 0.60721,0.85875 0.91081,2.07061 0.91081,3.63558 l 0,0 c 0,0.79096 -0.1056,1.50282 -0.31681,2.13558 -0.20592,0.63277 -0.48577,1.16384 -0.83953,1.59321 -0.31283,0.37244 -0.65139,0.66816 -1.01568,0.88718 l 0.36313,0.36243 c 1.31492,-1.56147 2.17784,-3.79409 2.17784,-6.24587 0,-5.53362 -4.47894,-10.01256 -10.01256,-10.01256 -2.45178,0 -4.6981,0.87661 -6.28696,2.16414 z m 3.91579,4.86439 c -0.10032,0.29943 -0.27456,0.58474 -0.52273,0.85593 -0.15063,0.16117 -0.32849,0.29633 -0.53358,0.40546 l 1.0862,1.09469 c -0.22397,0.14701 -0.46362,0.27125 -0.71894,0.37272 -0.55441,0.21469 -1.25402,0.32203 -2.09883,0.32203 l -1.56819,0 0,4.70337 -1.56819,0 0,-11.39879 1.56819,1.58044 0,-1.35957 1.55235,0 c 0.11758,0 0.23027,0.0022 0.33807,0.0067 l 2.61854,2.61346 c -0.01603,0.29216 -0.06699,0.56003 -0.15289,0.80359 z m 15.99608,5.95516 c -1.08663,0.62749 -2.05997,1.45378 -2.89851,2.31884 -0.06603,-0.35669 -0.10896,-0.80274 -0.10219,-0.88613 -0.0086,0.06937 -0.06476,0.56498 0.02772,0.96343 -0.28565,0.29828 -0.55529,0.60059 -0.80802,0.9004 -0.1012,-0.49122 -0.16796,-1.14145 -0.17755,-1.37049 0.40945,-0.72201 0.74961,-1.48856 1.01139,-2.29063 -3.45751,1.20086 -3.89586,3.88678 -3.77115,5.643 0.57558,-0.49438 1.10603,-1.03989 1.58427,-1.62954 0.01451,0.38487 0.06722,0.80225 0.19996,1.14427 -0.89926,1.27443 -1.39396,2.24716 -1.39396,2.24716 l 0.06849,0 c 0,0 2.30111,-4.02694 6.13629,-6.90333 z m -17.05239,-4.69377 -3.29976,-3.32554 0,3.68278 1.32266,0 c 0.63361,0 1.14842,-0.05932 1.54442,-0.17797 0.15564,-0.04885 0.29987,-0.10861 0.43267,-0.17928 z m 7.59228,5.32332 c -0.38545,0 -0.73129,-0.03955 -1.03754,-0.11864 -0.30096,-0.0791 -0.66265,-0.22034 -1.08506,-0.42373 l 0,-2.59371 3.00894,3.00311 c -0.26783,0.08865 -0.56328,0.13298 -0.88635,0.13298 z m -2.12259,0.72881 -0.09504,0.44068 -1.39394,0 0,-2.481 2.49354,2.51302 c -0.3392,-0.12037 -0.67405,-0.27793 -1.00455,-0.47269 z m 7.68416,2.07887 c -0.33003,0.39867 -0.62976,0.7911 -0.8971,1.16183 -0.07473,-0.33968 -0.14105,-0.76095 -0.18988,-1.1369 0.36674,-0.47003 0.70085,-0.9668 0.99891,-1.48692 -0.02739,0.27623 -0.07084,0.95076 0.08807,1.46198 z m -1.23551,0.21164 c -0.02338,-0.62021 0.05244,-1.156 0.05244,-1.156 l 0.0137,0.0137 c -0.01424,0.06408 0.01964,0.47242 0.0824,0.9556 -0.04893,0.06271 -0.09844,0.12495 -0.14853,0.1867 z m 1.40844,-0.11503 -0.12327,0.04109 0,0 c -0.01841,-0.04419 -0.03491,-0.09025 -0.04966,-0.1377 0.03876,-0.04682 0.07794,-0.09373 0.11754,-0.1407 0.01748,0.08485 0.03598,0.16495 0.0554,0.23731 z m -1.02728,1.24644 -0.16436,0.05479 c -0.0057,-0.01384 -0.01136,-0.02782 -0.01684,-0.04193 0.04513,-0.06396 0.09128,-0.12868 0.13844,-0.19408 0.01398,0.06354 0.02825,0.12422 0.04276,0.18122 z m 1.9039,-2.23263 -0.06849,0.02739 c -0.0227,-0.05587 -0.04094,-0.11619 -0.0555,-0.17892 0.0247,-0.0258 0.04953,-0.05156 0.07447,-0.07729 0.01537,0.08301 0.03199,0.16118 0.04952,0.22882 z m -1.13762,-0.57241 c 0.0079,-0.07961 0.01446,-0.12614 0.01446,-0.12614 l 0.0137,0 c -0.0017,0.01199 -0.0017,0.03855 -10e-5,0.07694 -0.0093,0.01642 -0.01866,0.03282 -0.02805,0.0492 z M 35.15,29.3737 c -4.3e-4,0.0021 -7.8e-4,0.0049 -10e-4,0.0082 6.7e-4,-0.0054 10e-4,-0.0082 10e-4,-0.0082 z" />
</svg>
