<?xml version="1.0" encoding="UTF-8" standalone="no"?>
<svg
   xmlns:dc="http://purl.org/dc/elements/1.1/"
   xmlns:cc="http://creativecommons.org/ns#"
   xmlns:rdf="http://www.w3.org/1999/02/22-rdf-syntax-ns#"
   xmlns:svg="http://www.w3.org/2000/svg"
   xmlns="http://www.w3.org/2000/svg"
   xmlns:sodipodi="http://sodipodi.sourceforge.net/DTD/sodipodi-0.dtd"
   xmlns:inkscape="http://www.inkscape.org/namespaces/inkscape"
   x="0"
   y="0"
   width="48"
   height="48"
   version="1.1"
   id="svg2"
   inkscape:version="0.91 r13725"
   sodipodi:docname="PB Pressed.svg">
  <metadata
     id="metadata49">
    <rdf:RDF>
      <cc:Work
         rdf:about="">
        <dc:format>image/svg+xml</dc:format>
        <dc:type
           rdf:resource="http://purl.org/dc/dcmitype/StillImage" />
        <dc:title></dc:title>
      </cc:Work>
    </rdf:RDF>
  </metadata>
  <sodipodi:namedview
     pagecolor="#ffffff"
     bordercolor="#666666"
     borderopacity="1"
     objecttolerance="10"
     gridtolerance="10"
     guidetolerance="10"
     inkscape:pageopacity="0"
     inkscape:pageshadow="2"
     inkscape:window-width="1440"
     inkscape:window-height="848"
     id="namedview47"
     showgrid="false"
     inkscape:zoom="9.8333333"
     inkscape:cx="13.042761"
     inkscape:cy="21.226543"
     inkscape:window-x="-8"
     inkscape:window-y="-8"
     inkscape:window-maximized="1"
     inkscape:current-layer="svg2" />
  <defs
     id="defs4">
    <linearGradient
       x1="11.68966"
       y1="14.0468"
       x2="57.52354"
       y2="55.1664"
       gradientUnits="userSpaceOnUse"
       id="color-1">
      <stop
         offset="0"
         stop-color="#000000"
         stop-opacity="0.7"
         id="stop7" />
      <stop
         offset="1"
         stop-color="#000000"
         stop-opacity="0"
         id="stop9" />
    </linearGradient>
    <filter
       id="dropshadow">
      <feColorMatrix
         type="matrix"
         values="0 0 0 0 .05  0 0 0 0 .15  0 0 0 0 .1  0 0 0 .8 0"
         id="feColorMatrix12" />
      <feOffset
         dx="0"
         dy="1"
         id="feOffset14" />
      <feGaussianBlur
         stdDeviation="1"
         id="feGaussianBlur16"
         result="result1" />
      <feComposite
         in="SourceGraphic"
         id="feComposite18"
         in2="result1" />
    </filter>
  </defs>
  <g
     style="font-size:14px;font-family:'Open Sans', sans-serif;fill:#000000"
     font-size="14"
     stroke-miterlimit="4"
     id="g29">
    <g
       id="g3344" />
  </g>
  <g
     style="font-size:122.49700165px;font-family:MyriadPro-Bold;fill:#010101"
     font-size="122.497"
     stroke-miterlimit="4"
     id="g32">
    <g
       id="g4160">
      <g
         id="g35" />
    </g>
  </g>
  <g
     style="font-size:14px;font-family:'Open Sans', sans-serif;fill:#000000"
     font-size="14"
     stroke-miterlimit="4"
     id="g37">
    <g
       id="g39" />
  </g>
  <path
     style="fill:#0288d1;stroke-miterlimit:10;filter:url(#dropshadow)"
     inkscape:connector-curvature="0"
     id="path41"
     stroke-miterlimit="10"
     d="M 3,24 C 3,12.40202 12.40202,3 24,3 35.59798,3 45,12.40202 45,24 45,35.59798 35.59798,45 24,45 12.40202,45 3,35.59798 3,24 Z" />
  <path
     style="fill:#ffffff;stroke-width:0;stroke-miterlimit:10"
     inkscape:connector-curvature="0"
     id="path45"
     stroke-miterlimit="10"
     d="m 36.31034,26.45224 c 0,1.17072 -0.1563,2.22436 -0.46891,3.16094 -0.30479,0.93657 -0.719,1.72263 -1.24262,2.35816 -0.55488,0.66062 -1.16447,1.15817 -1.82876,1.49267 -0.66429,0.32613 -1.39501,0.48919 -2.19216,0.48919 -0.74244,0 -1.39111,-0.09617 -1.94599,-0.2885 -0.55488,-0.18397 -1.10194,-0.43484 -1.64119,-0.7526 l -0.14067,0.65226 -2.06322,0 0,-19.51755 2.20389,0 0,6.97414 c 0.6174,-0.54355 1.27388,-0.98675 1.96943,-1.3296 0.69555,-0.35122 1.47707,-0.52682 2.34456,-0.52682 1.54741,0 2.76658,0.63553 3.65752,1.9066 0.89875,1.27107 1.34812,3.06477 1.34812,5.38112 z M 23.10768,20.53175 c 0,0.82787 -0.13677,1.59719 -0.4103,2.30799 -0.26572,0.70243 -0.64085,1.31288 -1.12539,1.83134 -0.60177,0.6439 -1.31296,1.12891 -2.13355,1.45504 -0.8206,0.31777 -1.85611,0.47665 -3.10655,0.47665 l -2.32112,0 0,6.96159 -2.32112,0 0,-18.67714 4.73602,0 c 1.04724,0 1.93426,0.09617 2.66108,0.2885 0.72681,0.18397 1.37157,0.47665 1.93426,0.87804 0.66429,0.47665 1.17619,1.07037 1.53569,1.78116 0.36732,0.71079 0.55097,1.60974 0.55097,2.69683 z m 10.92843,5.9832 c 0,-1.67245 -0.2579,-2.93934 -0.77371,-3.80065 -0.5158,-0.86968 -1.34812,-1.30451 -2.49696,-1.30451 -0.64085,0 -1.28951,0.15052 -1.94599,0.45156 -0.65648,0.29268 -1.26606,0.67316 -1.82876,1.14145 l 0,8.02778 c 0.62522,0.30104 1.16056,0.5101 1.60603,0.62717 0.45328,0.11707 0.96518,0.17561 1.53569,0.17561 1.21917,0 2.17263,-0.42648 2.86037,-1.27943 0.69555,-0.86131 1.04333,-2.20764 1.04333,-4.03898 z M 20.69278,20.59446 c 0,-0.6439 -0.10551,-1.20417 -0.31652,-1.68082 -0.21101,-0.47665 -0.53143,-0.8655 -0.96127,-1.16654 -0.37513,-0.25923 -0.80497,-0.4432 -1.28951,-0.55191 -0.47673,-0.11707 -1.08241,-0.17561 -1.81704,-0.17561 l -2.29767,0 0,7.46333 1.95771,0 c 0.93783,0 1.69981,-0.0878 2.28595,-0.26341 0.58614,-0.18397 1.06287,-0.47247 1.43018,-0.8655 0.36732,-0.40139 0.62522,-0.82368 0.77371,-1.26688 0.1563,-0.4432 0.23446,-0.94076 0.23446,-1.49267 z" />
</svg>
