<svg x="0" y="0" width="48" height="48" version="1.1" xmlns="http://www.w3.org/2000/svg" xmlns:xlink="http://www.w3.org/1999/xlink"><defs><linearGradient x1="14.15173" y1="11.68966" x2="55.06147" y2="57.52354" gradientUnits="userSpaceOnUse" id="color-1"><stop offset="0" stop-color="#000000" stop-opacity="0.7"></stop><stop offset="1" stop-color="#000000" stop-opacity="0"></stop></linearGradient><filter id="dropshadow"><feColorMatrix type="matrix" values="0 0 0 0 .05  0 0 0 0 .15  0 0 0 0 .1  0 0 0 .8 0"></feColorMatrix> <feOffset dx="0" dy="1"></feOffset> <feGaussianBlur stdDeviation="1"></feGaussianBlur> <feComposite in="SourceGraphic"></feComposite></filter></defs><g fill="none" stroke="none" stroke-width="none" stroke-linecap="butt" stroke-linejoin="miter" stroke-miterlimit="none" stroke-dasharray="" stroke-dashoffset="0" font-family="none" font-weight="normal" font-size="none" text-anchor="start" mix-blend-mode="normal"><g fill="#ffffff" stroke="none" stroke-width="1" stroke-miterlimit="4" font-family="&quot;Open Sans&quot;, sans-serif" font-size="14"><g></g></g><g fill="#000000" stroke="none" stroke-width="1" stroke-miterlimit="4" font-family="&quot;Open Sans&quot;, sans-serif" font-size="14"></g><path d="M3,24c0,-11.59798 9.40202,-21 21,-21c11.59798,0 21,9.40202 21,21c0,11.59798 -9.40202,21 -21,21c-11.59798,0 -21,-9.40202 -21,-21z" fill="#ff6d00" stroke-width="1" stroke-miterlimit="10" font-family="sans-serif" font-size="12" filter="url(#dropshadow)"></path><path d="M24.27529,44.99823l-9.40278,-9.40278c-0.44595,-0.44595 -0.72078,-1.06396 -0.72078,-1.74718l0.01231,-19.69654c0,-1.36029 1.08947,-2.46207 2.44976,-2.46207l9.84827,0l17.81034,17.81034c-2.3941,8.84567 -10.4233,15.37524 -19.99711,15.49824z" fill="url(#color-1)" stroke-width="1" stroke-miterlimit="10" font-family="sans-serif" font-size="12"></path><path d="M29.13341,28.62253c0.64014,-0.97252 1.02176,-2.13584 1.02176,-3.3915c0,-3.39765 -2.75752,-6.15517 -6.15517,-6.15517c-3.39765,0 -6.15517,2.75752 -6.15517,6.15517c0,3.39765 2.75752,6.15517 6.15517,6.15517c1.25565,0 2.41898,-0.38162 3.38534,-1.02791l5.45963,5.45963c-0.40624,0.30776 -0.91096,0.49241 -1.45878,0.49241l-14.78472,0c-1.36029,0 -2.44976,-1.10178 -2.44976,-2.46207l0.01231,-19.69654c0,-1.36029 1.08946,-2.46207 2.44976,-2.46207l9.84827,0l7.3862,7.3862l0,14.26153z M24,21.53793c2.03736,0 3.6931,1.65574 3.6931,3.6931c0,2.03736 -1.65574,3.6931 -3.6931,3.6931c-2.03736,0 -3.6931,-1.65574 -3.6931,-3.6931c0,-2.03736 1.65574,-3.6931 3.6931,-3.6931z" fill="#ffffff" stroke="none" stroke-width="0" stroke-miterlimit="4" font-family="&quot;Open Sans&quot;, sans-serif" font-size="14"></path></g></svg>