<svg x="0" y="0" width="48" height="48" version="1.1" xmlns="http://www.w3.org/2000/svg" xmlns:xlink="http://www.w3.org/1999/xlink"><defs><linearGradient x1="11.68966" y1="11.68966" x2="57.52354" y2="57.52354" gradientUnits="userSpaceOnUse" id="color-1"><stop offset="0" stop-color="#000000" stop-opacity="0"></stop><stop offset="1" stop-color="#000000" stop-opacity="0"></stop></linearGradient><filter id="dropshadow"><feColorMatrix type="matrix" values="0 0 0 0 .05  0 0 0 0 .15  0 0 0 0 .1  0 0 0 .8 0"></feColorMatrix> <feOffset dx="0" dy="1"></feOffset> <feGaussianBlur stdDeviation="1"></feGaussianBlur> <feComposite in="SourceGraphic"></feComposite></filter></defs><g fill="none" stroke="none" stroke-width="none" stroke-linecap="butt" stroke-linejoin="miter" stroke-miterlimit="none" stroke-dasharray="" stroke-dashoffset="0" font-family="none" font-weight="normal" font-size="none" text-anchor="start" mix-blend-mode="normal"><g fill="#000000" stroke="none" stroke-width="1" stroke-miterlimit="4" font-family="&quot;Open Sans&quot;, sans-serif" font-size="14"></g><path d="M3,24c0,-11.59798 9.40202,-21 21,-21c11.59798,0 21,9.40202 21,21c0,11.59798 -9.40202,21 -21,21c-11.59798,0 -21,-9.40202 -21,-21z" fill="#0091ea" stroke-width="1" stroke-miterlimit="10" font-family="sans-serif" font-size="12" filter="url(#dropshadow)"></path><path d="M35.5936,12.41478c-0.00139,-0.0014 -0.00278,-0.00279 -0.00418,-0.00419l9.28566,9.28566c0.08255,0.75657 0.12492,1.52521 0.12492,2.30375c0,11.59798 -9.40202,21 -21,21c-0.77854,0 -1.54718,-0.04237 -2.30375,-0.12492l-9.28567,-9.28567c-0.44548,-0.44548 -0.72092,-1.06099 -0.72092,-1.74114l0,-17.23447l2.46207,0l2.46207,2.46207l0,-4.92413l-0.00001,-0.00001c0,-1.36029 1.10178,-2.46207 2.46207,-2.46207l0.00001,0.00001l14.7724,0c0.68014,0 1.29566,0.27544 1.74114,0.72092c0,0 0.00419,0.00419 0.00419,0.00419z" fill="url(#color-1)" stroke-width="1" stroke-miterlimit="10" font-family="sans-serif" font-size="12"></path><path d="M33.84827,31.3862l-14.77241,0c-1.36029,0 -2.46207,-1.10178 -2.46207,-2.46207l0,-14.77241c0,-1.36029 1.10178,-2.46207 2.46207,-2.46207l14.77241,0c1.36029,0 2.46207,1.10178 2.46207,2.46207l0,14.77241c0,1.36029 -1.10178,2.46207 -2.46207,2.46207z M14.15173,16.6138l0,17.23447l17.23447,0l0,2.46207l-17.23447,0c-1.36029,0 -2.46207,-1.10178 -2.46207,-2.46207l0,-17.23447z M19.07586,28.92414l14.77241,0l-4.92414,-6.15517l-3.65617,4.56714l-2.499,-3.3361z" fill="#ffffff" stroke="none" stroke-width="0" stroke-miterlimit="4" font-family="&quot;Open Sans&quot;, sans-serif" font-size="14"></path></g></svg>