<?xml version="1.0" encoding="UTF-8" standalone="no"?>
<svg
   xmlns:dc="http://purl.org/dc/elements/1.1/"
   xmlns:cc="http://creativecommons.org/ns#"
   xmlns:rdf="http://www.w3.org/1999/02/22-rdf-syntax-ns#"
   xmlns:svg="http://www.w3.org/2000/svg"
   xmlns="http://www.w3.org/2000/svg"
   xmlns:sodipodi="http://sodipodi.sourceforge.net/DTD/sodipodi-0.dtd"
   xmlns:inkscape="http://www.inkscape.org/namespaces/inkscape"
   x="0"
   y="0"
   width="48"
   height="48"
   version="1.1"
   id="svg2"
   inkscape:version="0.91 r13725"
   sodipodi:docname="Profiles.svg">
  <metadata
     id="metadata32">
    <rdf:RDF>
      <cc:Work
         rdf:about="">
        <dc:format>image/svg+xml</dc:format>
        <dc:type
           rdf:resource="http://purl.org/dc/dcmitype/StillImage" />
      </cc:Work>
    </rdf:RDF>
  </metadata>
  <sodipodi:namedview
     pagecolor="#ffffff"
     bordercolor="#666666"
     borderopacity="1"
     objecttolerance="10"
     gridtolerance="10"
     guidetolerance="10"
     inkscape:pageopacity="0"
     inkscape:pageshadow="2"
     inkscape:window-width="640"
     inkscape:window-height="480"
     id="namedview30"
     showgrid="false"
     inkscape:zoom="4.9166667"
     inkscape:cx="24"
     inkscape:cy="24"
     inkscape:window-x="0"
     inkscape:window-y="0"
     inkscape:window-maximized="0"
     inkscape:current-layer="svg2" />
  <defs
     id="defs4">
    <linearGradient
       x1="11.68966"
       y1="11.68966"
       x2="57.52354"
       y2="57.52354"
       gradientUnits="userSpaceOnUse"
       id="color-1">
      <stop
         offset="0"
         stop-color="#000000"
         stop-opacity="0.7"
         id="stop7" />
      <stop
         offset="1"
         stop-color="#000000"
         stop-opacity="0"
         id="stop9" />
    </linearGradient>
    <filter
       id="dropshadow">
      <feColorMatrix
         type="matrix"
         values="0 0 0 0 .05  0 0 0 0 .15  0 0 0 0 .1  0 0 0 .8 0"
         id="feColorMatrix12" />
      <feOffset
         dx="0"
         dy="1"
         id="feOffset14" />
      <feGaussianBlur
         stdDeviation="1"
         id="feGaussianBlur16"
         result="result1" />
      <feComposite
         in="SourceGraphic"
         id="feComposite18"
         in2="result1" />
    </filter>
  </defs>
  <g
     id="g3364">
    <g
       stroke-miterlimit="4"
       font-size="14"
       id="g22"
       style="font-size:14px;font-family:'Open Sans', sans-serif;fill:#000000" />
    <path
       d="M 3,24 C 3,12.40202 12.40202,3 24,3 35.59798,3 45,12.40202 45,24 45,35.59798 35.59798,45 24,45 12.40202,45 3,35.59798 3,24 Z"
       stroke-miterlimit="10"
       id="path24"
       inkscape:connector-curvature="0"
       style="fill:#0091ea;stroke-miterlimit:10;filter:url(#dropshadow)" />
    <path
       d="m 35.5936,12.41478 c -0.0014,-0.0014 -0.0028,-0.0028 -0.0042,-0.0042 l 9.28566,9.28566 C 44.95763,22.45282 45,23.22146 45,24 45,35.59798 35.59798,45 24,45 23.22146,45 22.45282,44.95763 21.69625,44.87508 L 12.41058,35.58941 C 11.9651,35.14393 11.68966,34.52842 11.68966,33.84827 l 0,-17.23447 2.46207,0 2.46207,2.46207 0,-4.92413 -10e-6,-10e-6 c 0,-1.36029 1.10178,-2.46207 2.46207,-2.46207 l 10e-6,10e-6 14.7724,0 c 0.68014,0 1.29566,0.27544 1.74114,0.72092 0,0 0.0042,0.0042 0.0042,0.0042 z"
       stroke-miterlimit="10"
       id="path26"
       style="fill:url(#color-1);stroke-miterlimit:10"
       inkscape:connector-curvature="0" />
    <path
       d="m 33.84827,31.3862 -14.77241,0 c -1.36029,0 -2.46207,-1.10178 -2.46207,-2.46207 l 0,-14.77241 c 0,-1.36029 1.10178,-2.46207 2.46207,-2.46207 l 14.77241,0 c 1.36029,0 2.46207,1.10178 2.46207,2.46207 l 0,14.77241 c 0,1.36029 -1.10178,2.46207 -2.46207,2.46207 z m -19.69654,-14.7724 0,17.23447 17.23447,0 0,2.46207 -17.23447,0 c -1.36029,0 -2.46207,-1.10178 -2.46207,-2.46207 l 0,-17.23447 z m 4.92413,12.31034 14.77241,0 -4.92414,-6.15517 -3.65617,4.56714 -2.499,-3.3361 z"
       stroke-miterlimit="4"
       id="path28"
       inkscape:connector-curvature="0"
       style="fill:#ffffff;stroke-width:0" />
  </g>
</svg>
